<svg width="173" height="170" viewBox="0 0 173 170" fill="none" xmlns="http://www.w3.org/2000/svg">
<rect width="173" height="169.018" rx="9.13613" fill="#F1F6F4"/>
<path d="M14.2597 129.407H30.2597V113.407H14.2597V129.407ZM41.8672 117.727H44.2992L39.5952 128.479H38.8752L34.1552 117.727H36.6032L39.2432 124.127L41.8672 117.727ZM44.1962 124.319C44.1482 122.063 46.1162 120.143 48.4362 120.191C50.7562 120.159 52.7402 122.063 52.6922 124.319C52.7402 126.575 50.7402 128.511 48.4202 128.463C46.1002 128.511 44.1482 126.575 44.1962 124.319ZM50.4842 124.335C50.4842 123.103 49.6042 122.159 48.4362 122.159C47.2362 122.159 46.3882 123.071 46.3882 124.335C46.3882 125.567 47.2362 126.479 48.4362 126.479C49.6042 126.479 50.4842 125.567 50.4842 124.335ZM59.4666 126.479V128.287C58.9546 128.415 58.4586 128.479 57.9786 128.479C55.9786 128.479 54.8106 127.487 54.8106 125.503V122.191H53.5626V120.367H54.8106V118.367H56.9706V120.367H59.2106V122.191H56.9706V125.311C56.9706 126.207 57.4186 126.543 58.4426 126.543C58.5706 126.543 58.9066 126.527 59.4666 126.479ZM65.8988 120.367V122.271H65.3228C64.0268 122.271 63.1948 122.975 63.1948 124.335V128.287H61.0348V120.367H63.0188V121.311C63.5468 120.655 64.3148 120.271 65.1948 120.271C65.4668 120.271 65.6908 120.303 65.8988 120.367ZM74.3617 125.055H68.8097C69.0657 126.063 69.8817 126.623 71.0337 126.623C71.8177 126.623 72.5537 126.351 73.2417 125.823L74.1377 127.295C73.1937 128.079 72.1377 128.479 70.9697 128.479C68.5217 128.527 66.5857 126.623 66.6337 124.335C66.5857 122.047 68.4897 120.143 70.7777 120.191C72.9697 120.191 74.5057 121.807 74.5057 123.871C74.5057 124.255 74.4577 124.655 74.3617 125.055ZM68.8097 123.535H72.4097C72.3937 122.559 71.6417 121.935 70.6977 121.935C69.7857 121.935 69.0497 122.559 68.8097 123.535ZM85.5394 120.367V122.271H84.9634C83.6674 122.271 82.8354 122.975 82.8354 124.335V128.287H80.6754V120.367H82.6594V121.311C83.1874 120.655 83.9554 120.271 84.8354 120.271C85.1074 120.271 85.3314 120.303 85.5394 120.367ZM94.0023 125.055H88.4503C88.7063 126.063 89.5223 126.623 90.6743 126.623C91.4583 126.623 92.1943 126.351 92.8823 125.823L93.7783 127.295C92.8343 128.079 91.7783 128.479 90.6103 128.479C88.1623 128.527 86.2263 126.623 86.2743 124.335C86.2263 122.047 88.1303 120.143 90.4183 120.191C92.6103 120.191 94.1463 121.807 94.1463 123.871C94.1463 124.255 94.0983 124.655 94.0023 125.055ZM88.4503 123.535H92.0503C92.0343 122.559 91.2823 121.935 90.3383 121.935C89.4263 121.935 88.6903 122.559 88.4503 123.535ZM95.3837 124.319C95.3837 121.999 97.2717 120.191 99.6237 120.191C101.176 120.191 102.376 120.927 103.064 122.143L101.56 123.311C101.064 122.591 100.488 122.159 99.6557 122.159C98.4397 122.159 97.5757 123.087 97.5757 124.319C97.5757 125.583 98.4397 126.495 99.6557 126.495C100.472 126.495 101.048 126.079 101.56 125.359L103.064 126.511C102.376 127.727 101.16 128.479 99.6237 128.479C97.3037 128.527 95.3517 126.607 95.3837 124.319ZM104.056 124.319C104.008 122.063 105.976 120.143 108.296 120.191C110.616 120.159 112.6 122.063 112.552 124.319C112.6 126.575 110.6 128.511 108.28 128.463C105.96 128.511 104.008 126.575 104.056 124.319ZM110.344 124.335C110.344 123.103 109.464 122.159 108.296 122.159C107.096 122.159 106.248 123.071 106.248 124.335C106.248 125.567 107.096 126.479 108.296 126.479C109.464 126.479 110.344 125.567 110.344 124.335ZM119.102 120.367V122.271H118.526C117.23 122.271 116.398 122.975 116.398 124.335V128.287H114.238V120.367H116.222V121.311C116.75 120.655 117.518 120.271 118.398 120.271C118.67 120.271 118.894 120.303 119.102 120.367ZM126.045 116.287H128.205V128.287H126.221V127.311C125.693 128.063 124.765 128.479 123.677 128.479C121.469 128.479 119.837 126.719 119.837 124.335C119.837 121.951 121.469 120.191 123.677 120.191C124.685 120.191 125.469 120.511 126.045 121.135V116.287ZM126.077 124.335C126.077 122.927 125.165 122.143 124.077 122.143C122.925 122.143 122.029 123.023 122.029 124.319C122.029 125.647 122.909 126.511 124.077 126.511C125.165 126.511 126.077 125.759 126.077 124.335ZM140.592 116.287H142.752V128.287H140.768V127.311C140.24 128.063 139.312 128.479 138.224 128.479C136.016 128.479 134.384 126.719 134.384 124.335C134.384 121.951 136.016 120.191 138.224 120.191C139.232 120.191 140.016 120.511 140.592 121.135V116.287ZM140.624 124.335C140.624 122.927 139.712 122.143 138.624 122.143C137.472 122.143 136.576 123.023 136.576 124.319C136.576 125.647 137.456 126.511 138.624 126.511C139.712 126.511 140.624 125.759 140.624 124.335ZM152.174 125.055H146.622C146.878 126.063 147.694 126.623 148.846 126.623C149.63 126.623 150.366 126.351 151.054 125.823L151.95 127.295C151.006 128.079 149.95 128.479 148.782 128.479C146.334 128.527 144.398 126.623 144.446 124.335C144.398 122.047 146.302 120.143 148.59 120.191C150.782 120.191 152.318 121.807 152.318 123.871C152.318 124.255 152.27 124.655 152.174 125.055ZM146.622 123.535H150.222C150.206 122.559 149.454 121.935 148.51 121.935C147.598 121.935 146.862 122.559 146.622 123.535ZM19.5591 144.319C19.5591 146.687 17.9271 148.479 15.7191 148.479C14.7591 148.479 13.9271 148.143 13.3511 147.519V151.167H11.1911V140.367H13.1751V141.359C13.7031 140.607 14.6311 140.191 15.7191 140.191C17.9271 140.191 19.5591 141.951 19.5591 144.319ZM17.3671 144.335C17.3671 143.007 16.4871 142.143 15.3191 142.143C14.2311 142.143 13.3191 142.895 13.3191 144.319C13.3191 145.727 14.2151 146.511 15.3191 146.511C16.4711 146.511 17.3671 145.631 17.3671 144.335ZM26.1176 140.367V142.271H25.5416C24.2456 142.271 23.4136 142.975 23.4136 144.335V148.287H21.2536V140.367H23.2376V141.311C23.7656 140.655 24.5336 140.271 25.4136 140.271C25.6856 140.271 25.9096 140.303 26.1176 140.367ZM27.4567 148.287V140.367H29.6167V148.287H27.4567ZM27.1527 137.487C27.1527 136.719 27.7607 136.143 28.5287 136.143C29.2967 136.143 29.9207 136.719 29.9207 137.487C29.9207 138.239 29.2967 138.815 28.5287 138.815C27.7607 138.815 27.1527 138.239 27.1527 137.487ZM31.0336 146.943L32.1216 145.631C32.8096 146.351 33.5616 146.703 34.3456 146.703C34.9216 146.703 35.3536 146.479 35.3536 146.047C35.3536 145.711 35.1296 145.583 34.5376 145.327L33.6896 144.975C32.2336 144.383 31.5296 143.727 31.5296 142.559C31.5296 141.071 32.7136 140.191 34.4416 140.191C35.6256 140.191 36.5696 140.591 37.2896 141.375L36.2016 142.703C35.6736 142.207 35.0816 141.951 34.4256 141.951C33.8976 141.951 33.5776 142.143 33.5776 142.511C33.5776 142.815 33.7856 142.959 34.4096 143.215L35.1776 143.535C36.7136 144.159 37.4016 144.783 37.4016 145.951C37.4016 146.735 37.1136 147.359 36.5216 147.807C35.9456 148.255 35.2096 148.479 34.3136 148.479C32.9216 148.479 31.7536 147.903 31.0336 146.943ZM46.3148 145.055H40.7628C41.0188 146.063 41.8348 146.623 42.9868 146.623C43.7708 146.623 44.5068 146.351 45.1948 145.823L46.0908 147.295C45.1468 148.079 44.0908 148.479 42.9228 148.479C40.4748 148.527 38.5388 146.623 38.5868 144.335C38.5388 142.047 40.4428 140.143 42.7308 140.191C44.9228 140.191 46.4588 141.807 46.4588 143.871C46.4588 144.255 46.4108 144.655 46.3148 145.055ZM40.7628 143.535H44.3628C44.3468 142.559 43.5948 141.935 42.6508 141.935C41.7388 141.935 41.0028 142.559 40.7628 143.535ZM47.4242 146.943L48.5122 145.631C49.2002 146.351 49.9522 146.703 50.7362 146.703C51.3122 146.703 51.7442 146.479 51.7442 146.047C51.7442 145.711 51.5202 145.583 50.9282 145.327L50.0802 144.975C48.6242 144.383 47.9202 143.727 47.9202 142.559C47.9202 141.071 49.1042 140.191 50.8322 140.191C52.0162 140.191 52.9602 140.591 53.6802 141.375L52.5922 142.703C52.0642 142.207 51.4722 141.951 50.8162 141.951C50.2882 141.951 49.9682 142.143 49.9682 142.511C49.9682 142.815 50.1762 142.959 50.8002 143.215L51.5682 143.535C53.1042 144.159 53.7922 144.783 53.7922 145.951C53.7922 146.735 53.5042 147.359 52.9122 147.807C52.3362 148.255 51.6002 148.479 50.7042 148.479C49.3122 148.479 48.1442 147.903 47.4242 146.943ZM59.4618 144.319C59.4618 141.999 61.3498 140.191 63.7018 140.191C65.2538 140.191 66.4538 140.927 67.1418 142.143L65.6378 143.311C65.1418 142.591 64.5658 142.159 63.7338 142.159C62.5178 142.159 61.6538 143.087 61.6538 144.319C61.6538 145.583 62.5178 146.495 63.7338 146.495C64.5498 146.495 65.1258 146.079 65.6378 145.359L67.1418 146.511C66.4538 147.727 65.2378 148.479 63.7018 148.479C61.3818 148.527 59.4298 146.607 59.4618 144.319ZM68.1337 144.319C68.0857 142.063 70.0537 140.143 72.3737 140.191C74.6937 140.159 76.6777 142.063 76.6297 144.319C76.6777 146.575 74.6777 148.511 72.3577 148.463C70.0377 148.511 68.0857 146.575 68.1337 144.319ZM74.4217 144.335C74.4217 143.103 73.5417 142.159 72.3737 142.159C71.1737 142.159 70.3257 143.071 70.3257 144.335C70.3257 145.567 71.1737 146.479 72.3737 146.479C73.5417 146.479 74.4217 145.567 74.4217 144.335ZM85.5961 143.375V148.287H83.4521V143.663C83.4521 142.751 82.8601 142.127 81.9801 142.127C81.1001 142.127 80.4761 142.751 80.4761 143.663V148.287H78.3161V140.367H80.3001V141.087C80.8601 140.527 81.6761 140.191 82.6201 140.191C84.4601 140.191 85.5961 141.455 85.5961 143.375ZM86.9554 146.943L88.0434 145.631C88.7314 146.351 89.4834 146.703 90.2674 146.703C90.8434 146.703 91.2754 146.479 91.2754 146.047C91.2754 145.711 91.0514 145.583 90.4594 145.327L89.6114 144.975C88.1554 144.383 87.4514 143.727 87.4514 142.559C87.4514 141.071 88.6354 140.191 90.3634 140.191C91.5474 140.191 92.4914 140.591 93.2114 141.375L92.1234 142.703C91.5954 142.207 91.0034 141.951 90.3474 141.951C89.8194 141.951 89.4994 142.143 89.4994 142.511C89.4994 142.815 89.7074 142.959 90.3314 143.215L91.0994 143.535C92.6354 144.159 93.3234 144.783 93.3234 145.951C93.3234 146.735 93.0354 147.359 92.4434 147.807C91.8674 148.255 91.1314 148.479 90.2354 148.479C88.8434 148.479 87.6754 147.903 86.9554 146.943ZM102.237 145.055H96.6847C96.9407 146.063 97.7567 146.623 98.9087 146.623C99.6927 146.623 100.429 146.351 101.117 145.823L102.013 147.295C101.069 148.079 100.013 148.479 98.8447 148.479C96.3967 148.527 94.4607 146.623 94.5087 144.335C94.4607 142.047 96.3647 140.143 98.6527 140.191C100.845 140.191 102.381 141.807 102.381 143.871C102.381 144.255 102.333 144.655 102.237 145.055ZM96.6847 143.535H100.285C100.269 142.559 99.5167 141.935 98.5727 141.935C97.6607 141.935 96.9247 142.559 96.6847 143.535ZM97.8687 139.151L99.0367 135.807H101.629V136.191L99.4367 139.151H97.8687ZM103.618 144.319C103.618 141.999 105.506 140.191 107.858 140.191C109.41 140.191 110.61 140.927 111.298 142.143L109.794 143.311C109.298 142.591 108.722 142.159 107.89 142.159C106.674 142.159 105.81 143.087 105.81 144.319C105.81 145.583 106.674 146.495 107.89 146.495C108.706 146.495 109.282 146.079 109.794 145.359L111.298 146.511C110.61 147.727 109.394 148.479 107.858 148.479C105.538 148.527 103.586 146.607 103.618 144.319ZM112.814 144.799V140.367H114.974V144.975C114.974 145.887 115.598 146.495 116.478 146.495C117.31 146.495 117.95 145.887 117.95 144.975V140.367H120.11V144.799C120.11 147.007 118.542 148.479 116.478 148.479C114.366 148.479 112.814 147.007 112.814 144.799ZM127.263 146.479V148.287C126.751 148.415 126.255 148.479 125.775 148.479C123.775 148.479 122.607 147.487 122.607 145.503V142.191H121.359V140.367H122.607V138.367H124.767V140.367H127.007V142.191H124.767V145.311C124.767 146.207 125.215 146.543 126.239 146.543C126.367 146.543 126.703 146.527 127.263 146.479ZM128.832 148.287V140.367H130.992V148.287H128.832ZM128.528 137.487C128.528 136.719 129.136 136.143 129.904 136.143C130.672 136.143 131.296 136.719 131.296 137.487C131.296 138.239 130.672 138.815 129.904 138.815C129.136 138.815 128.528 138.239 128.528 137.487ZM138.521 140.367H140.809L136.889 148.479H136.169L132.249 140.367H134.521L136.521 144.847L138.521 140.367ZM149.034 145.055H143.482C143.738 146.063 144.554 146.623 145.706 146.623C146.49 146.623 147.226 146.351 147.914 145.823L148.81 147.295C147.866 148.079 146.81 148.479 145.642 148.479C143.194 148.527 141.258 146.623 141.306 144.335C141.258 142.047 143.162 140.143 145.45 140.191C147.642 140.191 149.178 141.807 149.178 143.871C149.178 144.255 149.13 144.655 149.034 145.055ZM143.482 143.535H147.082C147.066 142.559 146.314 141.935 145.37 141.935C144.458 141.935 143.722 142.559 143.482 143.535ZM150.143 146.943L151.231 145.631C151.919 146.351 152.671 146.703 153.455 146.703C154.031 146.703 154.463 146.479 154.463 146.047C154.463 145.711 154.239 145.583 153.647 145.327L152.799 144.975C151.343 144.383 150.639 143.727 150.639 142.559C150.639 141.071 151.823 140.191 153.551 140.191C154.735 140.191 155.679 140.591 156.399 141.375L155.311 142.703C154.783 142.207 154.191 141.951 153.535 141.951C153.007 141.951 152.687 142.143 152.687 142.511C152.687 142.815 152.895 142.959 153.519 143.215L154.287 143.535C155.823 144.159 156.511 144.783 156.511 145.951C156.511 146.735 156.223 147.359 155.631 147.807C155.055 148.255 154.319 148.479 153.423 148.479C152.031 148.479 150.863 147.903 150.143 146.943Z" fill="#03314B"/>
<path d="M82.2297 21.1836C84.6324 19.7964 87.5927 19.7964 89.9954 21.1836L116.464 36.4651C118.867 37.8523 120.347 40.416 120.347 43.1904V73.7535C120.347 76.5279 118.867 79.0916 116.464 80.4788L89.9954 95.7603C87.5927 97.1475 84.6324 97.1475 82.2297 95.7603L55.7613 80.4788C53.3586 79.0916 51.8785 76.5279 51.8785 73.7535V43.1904C51.8785 40.416 53.3586 37.8523 55.7613 36.4651L82.2297 21.1836Z" fill="white" stroke="#F2BD4F" stroke-width="2.74084"/>
<path d="M80.4792 51.296H81.6852V65.7676H77.9138V55.769L75.458 56.5803L74.559 53.2474L80.4792 51.296ZM84.5365 58.4221C84.5365 54.1464 86.5976 51.0328 90.5444 51.0328C94.4913 51.0328 96.5524 54.1464 96.5524 58.4221C96.5524 62.7417 94.4693 66.0307 90.5444 66.0307C86.6196 66.0307 84.5365 62.7417 84.5365 58.4221ZM92.6933 58.4441C92.6933 55.7251 92.0135 54.4973 90.5444 54.4973C89.0754 54.4973 88.3956 55.7251 88.3956 58.4441C88.3956 61.1849 89.1192 62.5663 90.5444 62.5663C91.9697 62.5663 92.6933 61.1849 92.6933 58.4441Z" fill="#03314B"/>
</svg>
