<svg width="358" height="57" viewBox="0 0 358 57" fill="none" xmlns="http://www.w3.org/2000/svg">
<rect width="358" height="57" rx="28.5" fill="#2CE080"/>
<path d="M78.0389 35V21.8H82.9989C85.7589 21.8 87.7589 23.52 87.7589 26.06C87.7589 28.58 85.7589 30.34 82.9989 30.34H80.7389V35H78.0389ZM80.7389 27.98H82.9989C84.2589 27.98 84.9989 27.2 84.9989 26.06C84.9989 24.94 84.2189 24.18 82.9989 24.18H80.7389V27.98ZM97.8386 29.12V35H95.3586V34.04C94.6386 34.78 93.5986 35.24 92.3386 35.24C90.2386 35.24 88.9186 34.02 88.9186 32.28C88.9186 30.5 90.3586 29.4 92.6586 29.4H95.1386V28.96C95.1386 27.86 94.4986 27.22 93.2986 27.22C92.2786 27.22 91.5586 27.64 90.6786 28.58L89.2786 26.92C90.4186 25.56 91.8586 24.88 93.5986 24.88C96.1786 24.88 97.8386 26.38 97.8386 29.12ZM95.1386 31.3V31.18H93.0186C92.1386 31.18 91.6386 31.52 91.6386 32.18C91.6386 32.84 92.1986 33.26 93.0586 33.26C94.2386 33.26 95.1386 32.44 95.1386 31.3ZM99.537 33.32L100.897 31.68C101.757 32.58 102.697 33.02 103.677 33.02C104.397 33.02 104.937 32.74 104.937 32.2C104.937 31.78 104.657 31.62 103.917 31.3L102.857 30.86C101.037 30.12 100.157 29.3 100.157 27.84C100.157 25.98 101.637 24.88 103.797 24.88C105.277 24.88 106.457 25.38 107.357 26.36L105.997 28.02C105.337 27.4 104.597 27.08 103.777 27.08C103.117 27.08 102.717 27.32 102.717 27.78C102.717 28.16 102.977 28.34 103.757 28.66L104.717 29.06C106.637 29.84 107.497 30.62 107.497 32.08C107.497 33.06 107.137 33.84 106.397 34.4C105.677 34.96 104.757 35.24 103.637 35.24C101.897 35.24 100.437 34.52 99.537 33.32ZM108.639 33.32L109.999 31.68C110.859 32.58 111.799 33.02 112.779 33.02C113.499 33.02 114.039 32.74 114.039 32.2C114.039 31.78 113.759 31.62 113.019 31.3L111.959 30.86C110.139 30.12 109.259 29.3 109.259 27.84C109.259 25.98 110.739 24.88 112.899 24.88C114.379 24.88 115.559 25.38 116.459 26.36L115.099 28.02C114.439 27.4 113.699 27.08 112.879 27.08C112.219 27.08 111.819 27.32 111.819 27.78C111.819 28.16 112.079 28.34 112.859 28.66L113.819 29.06C115.739 29.84 116.599 30.62 116.599 32.08C116.599 33.06 116.239 33.84 115.499 34.4C114.779 34.96 113.859 35.24 112.739 35.24C110.999 35.24 109.539 34.52 108.639 33.32ZM127.74 30.96H120.8C121.12 32.22 122.14 32.92 123.58 32.92C124.56 32.92 125.48 32.58 126.34 31.92L127.46 33.76C126.28 34.74 124.96 35.24 123.5 35.24C120.44 35.3 118.02 32.92 118.08 30.06C118.02 27.2 120.4 24.82 123.26 24.88C126 24.88 127.92 26.9 127.92 29.48C127.92 29.96 127.86 30.46 127.74 30.96ZM120.8 29.06H125.3C125.28 27.84 124.34 27.06 123.16 27.06C122.02 27.06 121.1 27.84 120.8 29.06ZM136.107 25.1V27.48H135.387C133.767 27.48 132.727 28.36 132.727 30.06V35H130.027V25.1H132.507V26.28C133.167 25.46 134.127 24.98 135.227 24.98C135.567 24.98 135.847 25.02 136.107 25.1ZM151.686 29.12V35H149.206V34.04C148.486 34.78 147.446 35.24 146.186 35.24C144.086 35.24 142.766 34.02 142.766 32.28C142.766 30.5 144.206 29.4 146.506 29.4H148.986V28.96C148.986 27.86 148.346 27.22 147.146 27.22C146.126 27.22 145.406 27.64 144.526 28.58L143.126 26.92C144.266 25.56 145.706 24.88 147.446 24.88C150.026 24.88 151.686 26.38 151.686 29.12ZM148.986 31.3V31.18H146.866C145.986 31.18 145.486 31.52 145.486 32.18C145.486 32.84 146.046 33.26 146.906 33.26C148.086 33.26 148.986 32.44 148.986 31.3ZM154.185 30.64V25.1H156.885V30.86C156.885 32 157.665 32.76 158.765 32.76C159.805 32.76 160.605 32 160.605 30.86V25.1H163.305V30.64C163.305 33.4 161.345 35.24 158.765 35.24C156.125 35.24 154.185 33.4 154.185 30.64ZM168.892 38.62V36.36C169.212 36.4 169.492 36.42 169.712 36.42C170.912 36.42 171.492 35.98 171.492 34.88V25.1H174.192V35.12C174.192 37.6 172.732 38.84 170.392 38.84C169.852 38.84 169.352 38.76 168.892 38.62ZM171.112 21.5C171.112 20.54 171.872 19.82 172.832 19.82C173.792 19.82 174.572 20.54 174.572 21.5C174.572 22.44 173.792 23.16 172.832 23.16C171.872 23.16 171.112 22.44 171.112 21.5ZM176.303 30.04C176.243 27.22 178.703 24.82 181.603 24.88C184.503 24.84 186.983 27.22 186.923 30.04C186.983 32.86 184.483 35.28 181.583 35.22C178.683 35.28 176.243 32.86 176.303 30.04ZM184.163 30.06C184.163 28.52 183.063 27.34 181.603 27.34C180.103 27.34 179.043 28.48 179.043 30.06C179.043 31.6 180.103 32.74 181.603 32.74C183.063 32.74 184.163 31.6 184.163 30.06ZM188.931 30.64V25.1H191.631V30.86C191.631 32 192.411 32.76 193.511 32.76C194.551 32.76 195.351 32 195.351 30.86V25.1H198.051V30.64C198.051 33.4 196.091 35.24 193.511 35.24C190.871 35.24 188.931 33.4 188.931 30.64ZM206.712 25.1V27.48H205.992C204.372 27.48 203.332 28.36 203.332 30.06V35H200.632V25.1H203.112V26.28C203.772 25.46 204.732 24.98 205.832 24.98C206.172 24.98 206.452 25.02 206.712 25.1ZM213.092 33.32L214.452 31.68C215.312 32.58 216.252 33.02 217.232 33.02C217.952 33.02 218.492 32.74 218.492 32.2C218.492 31.78 218.212 31.62 217.472 31.3L216.412 30.86C214.592 30.12 213.712 29.3 213.712 27.84C213.712 25.98 215.192 24.88 217.352 24.88C218.832 24.88 220.012 25.38 220.912 26.36L219.552 28.02C218.892 27.4 218.152 27.08 217.332 27.08C216.672 27.08 216.272 27.32 216.272 27.78C216.272 28.16 216.532 28.34 217.312 28.66L218.272 29.06C220.192 29.84 221.052 30.62 221.052 32.08C221.052 33.06 220.692 33.84 219.952 34.4C219.232 34.96 218.312 35.24 217.192 35.24C215.452 35.24 213.992 34.52 213.092 33.32ZM222.993 30.64V25.1H225.693V30.86C225.693 32 226.473 32.76 227.573 32.76C228.613 32.76 229.413 32 229.413 30.86V25.1H232.113V30.64C232.113 33.4 230.153 35.24 227.573 35.24C224.933 35.24 222.993 33.4 222.993 30.64ZM234.695 35V25.1H237.395V35H234.695ZM234.315 21.5C234.315 20.54 235.075 19.82 236.035 19.82C236.995 19.82 237.775 20.54 237.775 21.5C237.775 22.44 236.995 23.16 236.035 23.16C235.075 23.16 234.315 22.44 234.315 21.5ZM246.806 25.1H249.666L244.766 35.24H243.866L238.966 25.1H241.806L244.306 30.7L246.806 25.1ZM259.147 29.12V35H256.667V34.04C255.947 34.78 254.907 35.24 253.647 35.24C251.547 35.24 250.227 34.02 250.227 32.28C250.227 30.5 251.667 29.4 253.967 29.4H256.447V28.96C256.447 27.86 255.807 27.22 254.607 27.22C253.587 27.22 252.867 27.64 251.987 28.58L250.587 26.92C251.727 25.56 253.167 24.88 254.907 24.88C257.487 24.88 259.147 26.38 259.147 29.12ZM256.447 31.3V31.18H254.327C253.447 31.18 252.947 31.52 252.947 32.18C252.947 32.84 253.507 33.26 254.367 33.26C255.547 33.26 256.447 32.44 256.447 31.3ZM270.846 28.86V35H268.166V29.22C268.166 28.08 267.426 27.3 266.326 27.3C265.226 27.3 264.446 28.08 264.446 29.22V35H261.746V25.1H264.226V26C264.926 25.3 265.946 24.88 267.126 24.88C269.426 24.88 270.846 26.46 270.846 28.86ZM279.805 32.74V35C279.165 35.16 278.545 35.24 277.945 35.24C275.445 35.24 273.985 34 273.985 31.52V27.38H272.425V25.1H273.985V22.6H276.685V25.1H279.485V27.38H276.685V31.28C276.685 32.4 277.245 32.82 278.525 32.82C278.685 32.82 279.105 32.8 279.805 32.74Z" fill="#03314B"/>
</svg>
