<svg width="165" height="18" viewBox="0 0 165 18" fill="none" xmlns="http://www.w3.org/2000/svg">
<path d="M10.9296 2.77095H14.2858L7.79424 17.6087H6.80064L0.28704 2.77095H3.66528L7.30848 11.6029L10.9296 2.77095ZM15.2983 12.5303V6.41415H18.2791V12.7732C18.2791 14.0317 19.1403 14.8708 20.3547 14.8708C21.5028 14.8708 22.386 14.0317 22.386 12.7732V6.41415H25.3668V12.5303C25.3668 15.5773 23.203 17.6087 20.3547 17.6087C17.4401 17.6087 15.2983 15.5773 15.2983 12.5303ZM38.2633 12.8836H30.6015C30.9548 14.2746 32.0809 15.0474 33.6706 15.0474C34.7525 15.0474 35.7682 14.6721 36.7177 13.9434L37.9541 15.9748C36.6514 17.0567 35.1941 17.6087 33.5823 17.6087C30.2041 17.675 27.5324 15.0474 27.5986 11.89C27.5324 8.73255 30.1599 6.10503 33.3173 6.17127C36.3423 6.17127 38.462 8.40135 38.462 11.2497C38.462 11.7796 38.3957 12.3316 38.2633 12.8836ZM30.6015 10.786H35.5695C35.5474 9.43911 34.5097 8.57799 33.2069 8.57799C31.9484 8.57799 30.9327 9.43911 30.6015 10.786ZM54.925 0.783747H57.9058V17.3438H55.1679V15.9969C54.4393 17.0346 53.1586 17.6087 51.6572 17.6087C48.6102 17.6087 46.358 15.1799 46.358 11.89C46.358 8.60007 48.6102 6.17127 51.6572 6.17127C53.0482 6.17127 54.1302 6.61287 54.925 7.47399V0.783747ZM54.9692 11.89C54.9692 9.94695 53.7106 8.86503 52.2092 8.86503C50.6194 8.86503 49.383 10.0794 49.383 11.8679C49.383 13.7005 50.5974 14.8929 52.2092 14.8929C53.7106 14.8929 54.9692 13.8551 54.9692 11.89ZM61.2158 8.90919L61.3262 2.77095H64.7265L63.49 8.90919H61.2158ZM77.162 12.8836H69.5003C69.8535 14.2746 70.9796 15.0474 72.5694 15.0474C73.6513 15.0474 74.667 14.6721 75.6164 13.9434L76.8529 15.9748C75.5502 17.0567 74.0929 17.6087 72.4811 17.6087C69.1028 17.675 66.4311 15.0474 66.4974 11.89C66.4311 8.73255 69.0587 6.10503 72.2161 6.17127C75.2411 6.17127 77.3607 8.40135 77.3607 11.2497C77.3607 11.7796 77.2945 12.3316 77.162 12.8836ZM69.5003 10.786H74.4683C74.4462 9.43911 73.4084 8.57799 72.1057 8.57799C70.8471 8.57799 69.8315 9.43911 69.5003 10.786ZM89.733 10.5652V17.3438H86.7742V10.9626C86.7742 9.70407 85.9573 8.84295 84.7429 8.84295C83.5285 8.84295 82.6674 9.70407 82.6674 10.9626V17.3438H79.6866V6.41415H82.4245V7.40775C83.1973 6.63495 84.3234 6.17127 85.6261 6.17127C88.1653 6.17127 89.733 7.91559 89.733 10.5652ZM91.6089 15.489L93.1103 13.6785C94.0598 14.6721 95.0975 15.1578 96.1795 15.1578C96.9743 15.1578 97.5705 14.8487 97.5705 14.2525C97.5705 13.7889 97.2614 13.6122 96.4444 13.2589L95.2742 12.7732C93.2649 11.9562 92.2934 11.0509 92.2934 9.43911C92.2934 7.38567 93.9273 6.17127 96.3119 6.17127C97.9459 6.17127 99.2486 6.72327 100.242 7.80519L98.7407 9.63783C98.0121 8.95335 97.1951 8.60007 96.2899 8.60007C95.5612 8.60007 95.1196 8.86503 95.1196 9.37287C95.1196 9.79239 95.4067 9.99111 96.2678 10.3444L97.3276 10.786C99.4473 11.6471 100.397 12.5082 100.397 14.1201C100.397 15.202 99.9993 16.0631 99.1823 16.6813C98.3875 17.2996 97.3718 17.6087 96.1353 17.6087C94.2143 17.6087 92.6025 16.8138 91.6089 15.489ZM112.697 12.8836H105.035C105.389 14.2746 106.515 15.0474 108.104 15.0474C109.186 15.0474 110.202 14.6721 111.151 13.9434L112.388 15.9748C111.085 17.0567 109.628 17.6087 108.016 17.6087C104.638 17.675 101.966 15.0474 102.032 11.89C101.966 8.73255 104.594 6.10503 107.751 6.17127C110.776 6.17127 112.896 8.40135 112.896 11.2497C112.896 11.7796 112.829 12.3316 112.697 12.8836ZM105.035 10.786H110.003C109.981 9.43911 108.943 8.57799 107.641 8.57799C106.382 8.57799 105.366 9.43911 105.035 10.786ZM132.069 10.5652V17.3438H129.088V10.9847C129.088 9.68199 128.315 8.86503 127.145 8.86503C125.975 8.86503 125.135 9.70407 125.135 10.9185V17.3438H122.155V10.9847C122.155 9.68199 121.382 8.86503 120.212 8.86503C118.997 8.86503 118.202 9.68199 118.202 10.9847V17.3438H115.222V6.41415H117.959V7.38567C118.688 6.61287 119.792 6.17127 121.051 6.17127C122.486 6.17127 123.568 6.70119 124.296 7.73895C125.158 6.76743 126.438 6.17127 127.94 6.17127C130.501 6.17127 132.069 7.91559 132.069 10.5652ZM146.456 11.89C146.456 15.1799 144.204 17.6087 141.157 17.6087C139.655 17.6087 138.419 17.0346 137.646 15.9969V17.3438H134.908V0.783747H137.889V7.47399C138.684 6.61287 139.766 6.17127 141.157 6.17127C144.204 6.17127 146.456 8.60007 146.456 11.89ZM143.431 11.8679C143.431 10.0794 142.195 8.86503 140.605 8.86503C139.081 8.86503 137.845 9.94695 137.845 11.89C137.845 13.8551 139.103 14.8929 140.605 14.8929C142.217 14.8929 143.431 13.7005 143.431 11.8679ZM148.794 17.3438V0.783747H151.775V17.3438H148.794ZM164.77 12.8836H157.109C157.462 14.2746 158.588 15.0474 160.178 15.0474C161.26 15.0474 162.275 14.6721 163.225 13.9434L164.461 15.9748C163.159 17.0567 161.701 17.6087 160.09 17.6087C156.711 17.675 154.04 15.0474 154.106 11.89C154.04 8.73255 156.667 6.10503 159.825 6.17127C162.85 6.17127 164.969 8.40135 164.969 11.2497C164.969 11.7796 164.903 12.3316 164.77 12.8836ZM157.109 10.786H162.077C162.055 9.43911 161.017 8.57799 159.714 8.57799C158.456 8.57799 157.44 9.43911 157.109 10.786Z" fill="#03314B"/>
</svg>
