<svg width="233" height="22" viewBox="0 0 233 22" fill="none" xmlns="http://www.w3.org/2000/svg">
<path d="M10.9296 3.4272H14.2858L7.79424 18.265H6.80064L0.28704 3.4272H3.66528L7.30848 12.2592L10.9296 3.4272ZM14.1436 12.5242C14.0774 9.41088 16.7932 6.76128 19.9948 6.82752C23.1964 6.78336 25.9343 9.41088 25.8681 12.5242C25.9343 15.6374 23.1743 18.3091 19.9727 18.2429C16.7711 18.3091 14.0774 15.6374 14.1436 12.5242ZM22.8211 12.5462C22.8211 10.8461 21.6067 9.54336 19.9948 9.54336C18.3388 9.54336 17.1686 10.8019 17.1686 12.5462C17.1686 14.2464 18.3388 15.505 19.9948 15.505C21.6067 15.505 22.8211 14.2464 22.8211 12.5462ZM27.2017 16.1453L28.7031 14.3347C29.6526 15.3283 30.6903 15.8141 31.7723 15.8141C32.5671 15.8141 33.1633 15.505 33.1633 14.9088C33.1633 14.4451 32.8542 14.2685 32.0372 13.9152L30.867 13.4294C28.8577 12.6125 27.8862 11.7072 27.8862 10.0954C27.8862 8.04192 29.5201 6.82752 31.9047 6.82752C33.5387 6.82752 34.8414 7.37952 35.835 8.46144L34.3335 10.2941C33.6049 9.6096 32.7879 9.25632 31.8827 9.25632C31.154 9.25632 30.7124 9.52128 30.7124 10.0291C30.7124 10.4486 30.9995 10.6474 31.8606 11.0006L32.9204 11.4422C35.0401 12.3034 35.9895 13.1645 35.9895 14.7763C35.9895 15.8582 35.5921 16.7194 34.7751 17.3376C33.9803 17.9558 32.9646 18.265 31.7281 18.265C29.8071 18.265 28.1953 17.4701 27.2017 16.1453ZM55.9797 12.5242C55.9797 15.792 53.7275 18.265 50.6805 18.265C49.3557 18.265 48.2075 17.8013 47.4127 16.9402V21.9744H44.4319V7.0704H47.1698V8.43936C47.8984 7.4016 49.1791 6.82752 50.6805 6.82752C53.7275 6.82752 55.9797 9.25632 55.9797 12.5242ZM52.9547 12.5462C52.9547 10.7136 51.7403 9.52128 50.1285 9.52128C48.6271 9.52128 47.3685 10.559 47.3685 12.5242C47.3685 14.4672 48.605 15.5491 50.1285 15.5491C51.7183 15.5491 52.9547 14.3347 52.9547 12.5462ZM65.0304 7.0704V9.69792H64.2356C62.4471 9.69792 61.2989 10.6694 61.2989 12.5462V18H58.3181V7.0704H61.056V8.37312C61.7847 7.46784 62.8445 6.93792 64.0589 6.93792C64.4343 6.93792 64.7434 6.98208 65.0304 7.0704ZM66.0446 12.5242C65.9783 9.41088 68.6942 6.76128 71.8958 6.82752C75.0974 6.78336 77.8353 9.41088 77.769 12.5242C77.8353 15.6374 75.0753 18.3091 71.8737 18.2429C68.6721 18.3091 65.9783 15.6374 66.0446 12.5242ZM74.722 12.5462C74.722 10.8461 73.5076 9.54336 71.8958 9.54336C70.2398 9.54336 69.0695 10.8019 69.0695 12.5462C69.0695 14.2464 70.2398 15.505 71.8958 15.505C73.5076 15.505 74.722 14.2464 74.722 12.5462ZM79.478 12.5242C79.478 9.32256 82.0834 6.82752 85.3292 6.82752C87.471 6.82752 89.127 7.8432 90.0764 9.52128L88.0009 11.1331C87.3164 10.1395 86.5215 9.54336 85.3734 9.54336C83.6953 9.54336 82.503 10.824 82.503 12.5242C82.503 14.2685 83.6953 15.527 85.3734 15.527C86.4994 15.527 87.2943 14.953 88.0009 13.9594L90.0764 15.5491C89.127 17.2272 87.4489 18.265 85.3292 18.265C82.1276 18.3312 79.4338 15.6816 79.478 12.5242ZM102.325 11.2214V18H99.3667V11.641C99.3667 10.3824 98.5498 9.52128 97.3354 9.52128C96.121 9.52128 95.2599 10.3824 95.2599 11.641V18H92.2791V1.44H95.2599V7.99776C95.9885 7.26912 97.0483 6.82752 98.2627 6.82752C100.736 6.82752 102.325 8.57184 102.325 11.2214ZM114.358 11.5085V18H111.62V16.9402C110.825 17.7571 109.677 18.265 108.286 18.265C105.968 18.265 104.511 16.9181 104.511 14.9971C104.511 13.032 106.1 11.8176 108.639 11.8176H111.377V11.3318C111.377 10.1174 110.671 9.41088 109.346 9.41088C108.22 9.41088 107.425 9.87456 106.454 10.9123L104.908 9.07968C106.167 7.57824 107.756 6.82752 109.677 6.82752C112.526 6.82752 114.358 8.48352 114.358 11.5085ZM111.377 13.9152V13.7827H109.037C108.065 13.7827 107.513 14.1581 107.513 14.8867C107.513 15.6154 108.132 16.079 109.081 16.079C110.384 16.079 111.377 15.1738 111.377 13.9152ZM117.227 18V7.0704H120.208V18H117.227ZM116.807 3.096C116.807 2.03616 117.646 1.24128 118.706 1.24128C119.766 1.24128 120.627 2.03616 120.627 3.096C120.627 4.13376 119.766 4.92864 118.706 4.92864C117.646 4.92864 116.807 4.13376 116.807 3.096ZM133.203 11.2214V18H130.244V11.6189C130.244 10.3603 129.427 9.4992 128.213 9.4992C126.998 9.4992 126.137 10.3603 126.137 11.6189V18H123.157V7.0704H125.894V8.064C126.667 7.2912 127.793 6.82752 129.096 6.82752C131.635 6.82752 133.203 8.57184 133.203 11.2214ZM146.119 13.5398H138.457C138.81 14.9309 139.937 15.7037 141.526 15.7037C142.608 15.7037 143.624 15.3283 144.573 14.5997L145.81 16.631C144.507 17.713 143.05 18.265 141.438 18.265C138.06 18.3312 135.388 15.7037 135.454 12.5462C135.388 9.3888 138.016 6.76128 141.173 6.82752C144.198 6.82752 146.318 9.0576 146.318 11.9059C146.318 12.4358 146.251 12.9878 146.119 13.5398ZM138.457 11.4422H143.425C143.403 10.0954 142.365 9.23424 141.063 9.23424C139.804 9.23424 138.788 10.0954 138.457 11.4422ZM147.65 16.1453L149.151 14.3347C150.101 15.3283 151.138 15.8141 152.22 15.8141C153.015 15.8141 153.611 15.505 153.611 14.9088C153.611 14.4451 153.302 14.2685 152.485 13.9152L151.315 13.4294C149.306 12.6125 148.334 11.7072 148.334 10.0954C148.334 8.04192 149.968 6.82752 152.353 6.82752C153.987 6.82752 155.29 7.37952 156.283 8.46144L154.782 10.2941C154.053 9.6096 153.236 9.25632 152.331 9.25632C151.602 9.25632 151.161 9.52128 151.161 10.0291C151.161 10.4486 151.448 10.6474 152.309 11.0006L153.369 11.4422C155.488 12.3034 156.438 13.1645 156.438 14.7763C156.438 15.8582 156.04 16.7194 155.223 17.3376C154.428 17.9558 153.413 18.265 152.176 18.265C150.255 18.265 148.643 17.4701 147.65 16.1453ZM174.926 13.5398H167.265C167.618 14.9309 168.744 15.7037 170.334 15.7037C171.416 15.7037 172.431 15.3283 173.381 14.5997L174.617 16.631C173.315 17.713 171.857 18.265 170.245 18.265C166.867 18.3312 164.196 15.7037 164.262 12.5462C164.196 9.3888 166.823 6.76128 169.98 6.82752C173.005 6.82752 175.125 9.0576 175.125 11.9059C175.125 12.4358 175.059 12.9878 174.926 13.5398ZM167.265 11.4422H172.233C172.211 10.0954 171.173 9.23424 169.87 9.23424C168.612 9.23424 167.596 10.0954 167.265 11.4422ZM168.899 5.39232L170.51 0.777598H174.087V1.30752L171.062 5.39232H168.899ZM184.472 15.505V18C183.766 18.1766 183.081 18.265 182.419 18.265C179.659 18.265 178.047 16.896 178.047 14.1581V9.58752H176.325V7.0704H178.047V4.3104H181.028V7.0704H184.119V9.58752H181.028V13.8931C181.028 15.1296 181.646 15.5933 183.059 15.5933C183.236 15.5933 183.7 15.5712 184.472 15.505ZM195.8 11.5085V18H193.062V16.9402C192.267 17.7571 191.119 18.265 189.728 18.265C187.409 18.265 185.952 16.9181 185.952 14.9971C185.952 13.032 187.542 11.8176 190.081 11.8176H192.819V11.3318C192.819 10.1174 192.112 9.41088 190.788 9.41088C189.662 9.41088 188.867 9.87456 187.895 10.9123L186.35 9.07968C187.608 7.57824 189.198 6.82752 191.119 6.82752C193.967 6.82752 195.8 8.48352 195.8 11.5085ZM192.819 13.9152V13.7827H190.478C189.507 13.7827 188.955 14.1581 188.955 14.8867C188.955 15.6154 189.573 16.079 190.523 16.079C191.825 16.079 192.819 15.1738 192.819 13.9152ZM210.216 12.5242C210.216 15.792 207.964 18.265 204.917 18.265C203.592 18.265 202.444 17.8013 201.649 16.9402V21.9744H198.668V7.0704H201.406V8.43936C202.135 7.4016 203.416 6.82752 204.917 6.82752C207.964 6.82752 210.216 9.25632 210.216 12.5242ZM207.191 12.5462C207.191 10.7136 205.977 9.52128 204.365 9.52128C202.864 9.52128 201.605 10.559 201.605 12.5242C201.605 14.4672 202.842 15.5491 204.365 15.5491C205.955 15.5491 207.191 14.3347 207.191 12.5462ZM222.601 13.5398H214.939C215.293 14.9309 216.419 15.7037 218.008 15.7037C219.09 15.7037 220.106 15.3283 221.055 14.5997L222.292 16.631C220.989 17.713 219.532 18.265 217.92 18.265C214.542 18.3312 211.87 15.7037 211.936 12.5462C211.87 9.3888 214.498 6.76128 217.655 6.82752C220.68 6.82752 222.8 9.0576 222.8 11.9059C222.8 12.4358 222.734 12.9878 222.601 13.5398ZM214.939 11.4422H219.907C219.885 10.0954 218.847 9.23424 217.545 9.23424C216.286 9.23424 215.271 10.0954 214.939 11.4422ZM224.132 16.1453L225.633 14.3347C226.583 15.3283 227.621 15.8141 228.703 15.8141C229.497 15.8141 230.094 15.505 230.094 14.9088C230.094 14.4451 229.785 14.2685 228.968 13.9152L227.797 13.4294C225.788 12.6125 224.817 11.7072 224.817 10.0954C224.817 8.04192 226.45 6.82752 228.835 6.82752C230.469 6.82752 231.772 7.37952 232.765 8.46144L231.264 10.2941C230.535 9.6096 229.718 9.25632 228.813 9.25632C228.084 9.25632 227.643 9.52128 227.643 10.0291C227.643 10.4486 227.93 10.6474 228.791 11.0006L229.851 11.4422C231.97 12.3034 232.92 13.1645 232.92 14.7763C232.92 15.8582 232.522 16.7194 231.705 17.3376C230.911 17.9558 229.895 18.265 228.658 18.265C226.737 18.265 225.126 17.4701 224.132 16.1453Z" fill="#03314B"/>
</svg>
