<svg width="112" height="19" viewBox="0 0 112 19" fill="none" xmlns="http://www.w3.org/2000/svg">
<path d="M10.9296 3.4272H14.2858L7.79424 18.265H6.80064L0.28704 3.4272H3.66528L7.30848 12.2592L10.9296 3.4272ZM14.1436 12.5242C14.0774 9.41088 16.7932 6.76128 19.9948 6.82752C23.1964 6.78336 25.9343 9.41088 25.8681 12.5242C25.9343 15.6374 23.1743 18.3091 19.9727 18.2429C16.7711 18.3091 14.0774 15.6374 14.1436 12.5242ZM22.8211 12.5462C22.8211 10.8461 21.6067 9.54336 19.9948 9.54336C18.3388 9.54336 17.1686 10.8019 17.1686 12.5462C17.1686 14.2464 18.3388 15.505 19.9948 15.505C21.6067 15.505 22.8211 14.2464 22.8211 12.5462ZM27.2017 16.1453L28.7031 14.3347C29.6526 15.3283 30.6903 15.8141 31.7723 15.8141C32.5671 15.8141 33.1633 15.505 33.1633 14.9088C33.1633 14.4451 32.8542 14.2685 32.0372 13.9152L30.867 13.4294C28.8577 12.6125 27.8862 11.7072 27.8862 10.0954C27.8862 8.04192 29.5201 6.82752 31.9047 6.82752C33.5387 6.82752 34.8414 7.37952 35.835 8.46144L34.3335 10.2941C33.6049 9.6096 32.7879 9.25632 31.8827 9.25632C31.154 9.25632 30.7124 9.52128 30.7124 10.0291C30.7124 10.4486 30.9995 10.6474 31.8606 11.0006L32.9204 11.4422C35.0401 12.3034 35.9895 13.1645 35.9895 14.7763C35.9895 15.8582 35.5921 16.7194 34.7751 17.3376C33.9803 17.9558 32.9646 18.265 31.7281 18.265C29.8071 18.265 28.1953 17.4701 27.2017 16.1453ZM43.4383 16.1453L44.9397 14.3347C45.8891 15.3283 46.9269 15.8141 48.0088 15.8141C48.8037 15.8141 49.3999 15.505 49.3999 14.9088C49.3999 14.4451 49.0907 14.2685 48.2738 13.9152L47.1035 13.4294C45.0943 12.6125 44.1227 11.7072 44.1227 10.0954C44.1227 8.04192 45.7567 6.82752 48.1413 6.82752C49.7752 6.82752 51.0779 7.37952 52.0715 8.46144L50.5701 10.2941C49.8415 9.6096 49.0245 9.25632 48.1192 9.25632C47.3906 9.25632 46.949 9.52128 46.949 10.0291C46.949 10.4486 47.236 10.6474 48.0971 11.0006L49.157 11.4422C51.2767 12.3034 52.2261 13.1645 52.2261 14.7763C52.2261 15.8582 51.8287 16.7194 51.0117 17.3376C50.2168 17.9558 49.2011 18.265 47.9647 18.265C46.0437 18.265 44.4319 17.4701 43.4383 16.1453ZM54.3696 13.1866V7.0704H57.3504V13.4294C57.3504 14.688 58.2115 15.527 59.4259 15.527C60.5741 15.527 61.4573 14.688 61.4573 13.4294V7.0704H64.4381V13.1866C64.4381 16.2336 62.2742 18.265 59.4259 18.265C56.5113 18.265 54.3696 16.2336 54.3696 13.1866ZM66.6699 12.5242C66.6699 9.32256 69.2753 6.82752 72.5211 6.82752C74.6628 6.82752 76.3188 7.8432 77.2683 9.52128L75.1928 11.1331C74.5083 10.1395 73.7134 9.54336 72.5652 9.54336C70.8872 9.54336 69.6948 10.824 69.6948 12.5242C69.6948 14.2685 70.8872 15.527 72.5652 15.527C73.6913 15.527 74.4862 14.953 75.1928 13.9594L77.2683 15.5491C76.3188 17.2272 74.6408 18.265 72.5211 18.265C69.3195 18.3312 66.6257 15.6816 66.6699 12.5242ZM78.6371 12.5242C78.6371 9.32256 81.2425 6.82752 84.4883 6.82752C86.63 6.82752 88.286 7.8432 89.2355 9.52128L87.1599 11.1331C86.4755 10.1395 85.6806 9.54336 84.5324 9.54336C82.8543 9.54336 81.662 10.824 81.662 12.5242C81.662 14.2685 82.8543 15.527 84.5324 15.527C85.6585 15.527 86.4534 14.953 87.1599 13.9594L89.2355 15.5491C88.286 17.2272 86.6079 18.265 84.4883 18.265C81.2867 18.3312 78.5929 15.6816 78.6371 12.5242ZM101.269 13.5398H93.6071C93.9604 14.9309 95.0865 15.7037 96.6763 15.7037C97.7582 15.7037 98.7739 15.3283 99.7233 14.5997L100.96 16.631C99.6571 17.713 98.1998 18.265 96.5879 18.265C93.2097 18.3312 90.538 15.7037 90.6043 12.5462C90.538 9.3888 93.1655 6.76128 96.323 6.82752C99.3479 6.82752 101.468 9.0576 101.468 11.9059C101.468 12.4358 101.401 12.9878 101.269 13.5398ZM93.6071 11.4422H98.5751C98.5531 10.0954 97.5153 9.23424 96.2126 9.23424C94.954 9.23424 93.9383 10.0954 93.6071 11.4422ZM95.2411 5.39232L92.2161 1.30752V0.777598H95.7931L97.4049 5.39232H95.2411ZM102.8 16.1453L104.301 14.3347C105.251 15.3283 106.288 15.8141 107.37 15.8141C108.165 15.8141 108.761 15.505 108.761 14.9088C108.761 14.4451 108.452 14.2685 107.635 13.9152L106.465 13.4294C104.456 12.6125 103.484 11.7072 103.484 10.0954C103.484 8.04192 105.118 6.82752 107.503 6.82752C109.137 6.82752 110.44 7.37952 111.433 8.46144L109.932 10.2941C109.203 9.6096 108.386 9.25632 107.481 9.25632C106.752 9.25632 106.311 9.52128 106.311 10.0291C106.311 10.4486 106.598 10.6474 107.459 11.0006L108.519 11.4422C110.638 12.3034 111.588 13.1645 111.588 14.7763C111.588 15.8582 111.19 16.7194 110.373 17.3376C109.578 17.9558 108.563 18.265 107.326 18.265C105.405 18.265 103.793 17.4701 102.8 16.1453Z" fill="#03314B"/>
</svg>
