<svg width="358" height="188" viewBox="0 0 358 188" fill="none" xmlns="http://www.w3.org/2000/svg">
<path d="M0 17.1564H16.5199V0.636499H0V17.1564Z" fill="#8BA0AC"/>
<path d="M35.6069 5.09687H37.358V16.1817H36.7633L30.1223 8.61561V16H28.3712V4.91515H28.9824L35.6069 12.4482V5.09687ZM40.2149 9.5242L40.3636 5.09687H42.3625L41.553 9.5242H40.2149ZM51.8947 10.9284V16H50.1601V11.1762C50.1601 10.0528 49.4663 9.29292 48.3925 9.29292C47.3187 9.29292 46.5423 10.0694 46.5423 11.1762V16H44.8077V3.61008H46.5423V8.69821C47.0874 8.05393 47.9134 7.70701 48.8881 7.70701C50.7383 7.70701 51.8947 9.01208 51.8947 10.9284ZM61.6116 12.5143H55.5653C55.7801 13.8359 56.8209 14.6454 58.2085 14.6454C59.051 14.6454 59.844 14.3315 60.5709 13.6872L61.3969 14.8766C60.4718 15.7522 59.398 16.1817 58.159 16.1817C55.681 16.1817 53.7977 14.348 53.7977 11.9526C53.7482 9.62332 55.6975 7.65745 57.9938 7.70701C60.1414 7.70701 61.7438 9.30944 61.7438 11.424C61.7438 11.7709 61.6942 12.1343 61.6116 12.5143ZM55.5984 11.1597H60.0092C59.9927 9.92068 59.0676 9.17728 57.9277 9.17728C56.7878 9.17728 55.8627 9.95372 55.5984 11.1597ZM57.333 6.6167L58.638 3.11448H60.7526V3.42836L58.6215 6.6167H57.333ZM62.9714 14.6123L63.9626 13.522C64.673 14.2654 65.3833 14.6784 66.2424 14.6784C66.9858 14.6784 67.5474 14.3645 67.5474 13.7698C67.5474 13.2907 67.2005 13.0925 66.4076 12.7621L65.5816 12.4152C64.1443 11.8205 63.467 11.1927 63.467 10.0528C63.467 8.59909 64.673 7.70701 66.325 7.70701C67.4979 7.70701 68.423 8.12001 69.1333 8.96252L68.1917 10.0363C67.6796 9.50768 67.0023 9.21032 66.2919 9.21032C65.6146 9.21032 65.1851 9.47464 65.1851 9.98676C65.1851 10.3998 65.4659 10.6145 66.2589 10.9449L67.0353 11.2588C68.5717 11.9031 69.249 12.5639 69.249 13.7037C69.249 14.4802 68.9681 15.0914 68.3899 15.5374C67.8118 15.967 67.1014 16.1817 66.2424 16.1817C64.8547 16.1817 63.6983 15.554 62.9714 14.6123ZM71.2492 16V7.88873H72.9838V16H71.2492ZM70.9353 4.86559C70.9353 4.22131 71.4639 3.7092 72.1247 3.7092C72.769 3.7092 73.2976 4.22131 73.2976 4.86559C73.2976 5.50987 72.769 6.00546 72.1247 6.00546C71.4639 6.00546 70.9353 5.50987 70.9353 4.86559ZM80.3159 14.5297V16C79.7707 16.1156 79.2917 16.1817 78.8787 16.1817C77.0119 16.1817 75.8886 15.2566 75.8886 13.3568V9.39204H74.567V7.88873H75.8886V5.75767H77.6397V7.88873H80.0516V9.39204H77.6397V13.2081C77.6397 14.2489 78.1848 14.6123 79.2421 14.6123C79.4899 14.6123 79.8368 14.5793 80.3159 14.5297ZM89.2147 12.5143H83.1684C83.3832 13.8359 84.4239 14.6454 85.8116 14.6454C86.6541 14.6454 87.4471 14.3315 88.1739 13.6872L88.9999 14.8766C88.0748 15.7522 87.001 16.1817 85.762 16.1817C83.2841 16.1817 81.4008 14.348 81.4008 11.9526C81.3512 9.62332 83.3006 7.65745 85.5968 7.70701C87.7444 7.70701 89.3469 9.30944 89.3469 11.424C89.3469 11.7709 89.2973 12.1343 89.2147 12.5143ZM83.2015 11.1597H87.6123C87.5957 9.92068 86.6706 9.17728 85.5308 9.17728C84.3909 9.17728 83.4658 9.95372 83.2015 11.1597ZM93.036 14.4967H97.3311V16H90.4423V15.5209L94.6879 9.39204H90.8223V7.88873H97.2981V8.38433L93.036 14.4967ZM112.004 11.9361C112.004 14.3645 110.319 16.1817 108.023 16.1817C106.916 16.1817 105.958 15.7522 105.314 15.0088V18.9736H103.579V7.88873H105.198V9.0286C105.793 8.18609 106.834 7.70701 108.023 7.70701C110.319 7.70701 112.004 9.54072 112.004 11.9361ZM110.22 11.9526C110.22 10.3998 109.146 9.29292 107.742 9.29292C106.47 9.29292 105.297 10.1685 105.297 11.9361C105.297 13.7203 106.47 14.5958 107.742 14.5958C109.13 14.5958 110.22 13.5055 110.22 11.9526ZM120.444 11.0936V16H118.825V15.0914C118.23 15.8018 117.338 16.1817 116.231 16.1817C114.529 16.1817 113.406 15.2401 113.406 13.8359C113.406 12.4317 114.563 11.5231 116.396 11.5231H118.693V10.9945C118.693 9.87112 118.065 9.25988 116.958 9.25988C116.049 9.25988 115.389 9.65636 114.711 10.4658L113.703 9.4416C114.513 8.26869 115.719 7.70701 117.123 7.70701C119.122 7.70701 120.444 8.91297 120.444 11.0936ZM118.693 12.9273V12.7786H116.611C115.686 12.7786 115.174 13.109 115.174 13.7698C115.174 14.4471 115.752 14.8436 116.594 14.8436C117.767 14.8436 118.693 14.0341 118.693 12.9273ZM122.098 14.6123L123.089 13.522C123.799 14.2654 124.51 14.6784 125.369 14.6784C126.112 14.6784 126.674 14.3645 126.674 13.7698C126.674 13.2907 126.327 13.0925 125.534 12.7621L124.708 12.4152C123.271 11.8205 122.593 11.1927 122.593 10.0528C122.593 8.59909 123.799 7.70701 125.451 7.70701C126.624 7.70701 127.549 8.12001 128.26 8.96252L127.318 10.0363C126.806 9.50768 126.129 9.21032 125.418 9.21032C124.741 9.21032 124.311 9.47464 124.311 9.98676C124.311 10.3998 124.592 10.6145 125.385 10.9449L126.162 11.2588C127.698 11.9031 128.375 12.5639 128.375 13.7037C128.375 14.4802 128.095 15.0914 127.516 15.5374C126.938 15.967 126.228 16.1817 125.369 16.1817C123.981 16.1817 122.825 15.554 122.098 14.6123ZM141.448 11.0936V16H139.829V15.0914C139.235 15.8018 138.343 16.1817 137.236 16.1817C135.534 16.1817 134.411 15.2401 134.411 13.8359C134.411 12.4317 135.567 11.5231 137.401 11.5231H139.697V10.9945C139.697 9.87112 139.07 9.25988 137.963 9.25988C137.054 9.25988 136.393 9.65636 135.716 10.4658L134.708 9.4416C135.518 8.26869 136.724 7.70701 138.128 7.70701C140.127 7.70701 141.448 8.91297 141.448 11.0936ZM139.697 12.9273V12.7786H137.616C136.691 12.7786 136.179 13.109 136.179 13.7698C136.179 14.4471 136.757 14.8436 137.599 14.8436C138.772 14.8436 139.697 14.0341 139.697 12.9273ZM137.484 6.6167L135.353 3.42836V3.11448H137.467L138.772 6.6167H137.484ZM160.668 10.9284V16H158.917V11.1762C158.917 10.0363 158.272 9.29292 157.232 9.29292C156.174 9.29292 155.447 10.0528 155.447 11.0936V16H153.713V11.1762C153.713 10.0528 153.052 9.29292 152.011 9.29292C150.954 9.29292 150.227 10.0528 150.227 11.1762V16H148.493V7.88873H150.112V8.64865C150.69 8.05393 151.483 7.70701 152.457 7.70701C153.581 7.70701 154.44 8.18609 154.919 8.97905C155.514 8.20261 156.521 7.70701 157.661 7.70701C159.528 7.70701 160.668 8.99556 160.668 10.9284ZM162.564 11.9361C162.515 9.6068 164.514 7.67397 166.843 7.70701C169.205 7.65745 171.204 9.63984 171.155 11.9361C171.204 14.2324 169.205 16.2313 166.843 16.1817C164.514 16.2313 162.515 14.2324 162.564 11.9361ZM169.371 11.9526C169.371 10.4493 168.264 9.29292 166.86 9.29292C165.422 9.29292 164.332 10.4493 164.332 11.9526C164.332 13.4559 165.422 14.5793 166.843 14.5793C168.28 14.5793 169.371 13.4229 169.371 11.9526ZM179.305 3.61008H181.056V16H179.437V14.8436C178.843 15.6861 177.802 16.1817 176.596 16.1817C174.316 16.1817 172.631 14.348 172.631 11.9526C172.582 9.59028 174.349 7.65745 176.596 7.70701C177.719 7.70701 178.694 8.13653 179.305 8.87993V3.61008ZM179.338 11.9526C179.338 10.2015 178.149 9.29292 176.893 9.29292C175.506 9.29292 174.399 10.3832 174.399 11.9361C174.399 13.489 175.456 14.5958 176.893 14.5958C178.165 14.5958 179.338 13.7203 179.338 11.9526ZM183.565 16V7.88873H185.3V16H183.565ZM183.251 4.86559C183.251 4.22131 183.78 3.7092 184.441 3.7092C185.085 3.7092 185.614 4.22131 185.614 4.86559C185.614 5.50987 185.085 6.00546 184.441 6.00546C183.78 6.00546 183.251 5.50987 183.251 4.86559ZM189.84 6.40194V7.88873H191.756V9.39204H189.84V16H188.105V9.39204H186.949V7.88873H188.105V6.25326C188.105 4.35347 189.212 3.42836 190.996 3.42836C191.442 3.42836 191.806 3.47792 192.12 3.57704V5.04731C191.855 5.01427 191.624 4.99775 191.426 4.99775C190.369 4.99775 189.84 5.36119 189.84 6.40194ZM193.375 16V7.88873H195.11V16H193.375ZM193.061 4.86559C193.061 4.22131 193.59 3.7092 194.251 3.7092C194.895 3.7092 195.424 4.22131 195.424 4.86559C195.424 5.50987 194.895 6.00546 194.251 6.00546C193.59 6.00546 193.061 5.50987 193.061 4.86559ZM204.935 12.5143H198.888C199.103 13.8359 200.144 14.6454 201.532 14.6454C202.374 14.6454 203.167 14.3315 203.894 13.6872L204.72 14.8766C203.795 15.7522 202.721 16.1817 201.482 16.1817C199.004 16.1817 197.121 14.348 197.121 11.9526C197.071 9.62332 199.02 7.65745 201.317 7.70701C203.464 7.70701 205.067 9.30944 205.067 11.424C205.067 11.7709 205.017 12.1343 204.935 12.5143ZM198.921 11.1597H203.332C203.316 9.92068 202.391 9.17728 201.251 9.17728C200.111 9.17728 199.186 9.95372 198.921 11.1597ZM211.696 7.88873V9.42508H211.168C209.797 9.42508 208.789 10.2346 208.789 11.6718V16H207.054V7.88873H208.673V8.94601C209.251 8.21913 210.111 7.80613 211.036 7.80613C211.283 7.80613 211.498 7.83917 211.696 7.88873ZM223.029 7.88873H224.879L220.964 16.1817H220.369L216.438 7.88873H218.288L220.667 13.2577L223.029 7.88873ZM225.611 11.9361C225.562 9.6068 227.56 7.67397 229.89 7.70701C232.252 7.65745 234.251 9.63984 234.201 11.9361C234.251 14.2324 232.252 16.2313 229.89 16.1817C227.56 16.2313 225.562 14.2324 225.611 11.9361ZM232.417 11.9526C232.417 10.4493 231.31 9.29292 229.906 9.29292C228.469 9.29292 227.379 10.4493 227.379 11.9526C227.379 13.4559 228.469 14.5793 229.89 14.5793C231.327 14.5793 232.417 13.4229 232.417 11.9526ZM235.43 14.6123L236.421 13.522C237.132 14.2654 237.842 14.6784 238.701 14.6784C239.444 14.6784 240.006 14.3645 240.006 13.7698C240.006 13.2907 239.659 13.0925 238.866 12.7621L238.04 12.4152C236.603 11.8205 235.926 11.1927 235.926 10.0528C235.926 8.59909 237.132 7.70701 238.784 7.70701C239.957 7.70701 240.882 8.12001 241.592 8.96252L240.65 10.0363C240.138 9.50768 239.461 9.21032 238.751 9.21032C238.073 9.21032 237.644 9.47464 237.644 9.98676C237.644 10.3998 237.925 10.6145 238.718 10.9449L239.494 11.2588C241.03 11.9031 241.708 12.5639 241.708 13.7037C241.708 14.4802 241.427 15.0914 240.849 15.5374C240.27 15.967 239.56 16.1817 238.701 16.1817C237.313 16.1817 236.157 15.554 235.43 14.6123ZM252.98 7.88873V9.42508H252.451C251.08 9.42508 250.073 10.2346 250.073 11.6718V16H248.338V7.88873H249.957V8.94601C250.535 8.21913 251.394 7.80613 252.319 7.80613C252.567 7.80613 252.782 7.83917 252.98 7.88873ZM260.814 11.0936V16H259.195V15.0914C258.601 15.8018 257.709 16.1817 256.602 16.1817C254.9 16.1817 253.777 15.2401 253.777 13.8359C253.777 12.4317 254.933 11.5231 256.767 11.5231H259.063V10.9945C259.063 9.87112 258.435 9.25988 257.329 9.25988C256.42 9.25988 255.759 9.65636 255.082 10.4658L254.074 9.4416C254.884 8.26869 256.09 7.70701 257.494 7.70701C259.493 7.70701 260.814 8.91297 260.814 11.0936ZM259.063 12.9273V12.7786H256.982C256.057 12.7786 255.544 13.109 255.544 13.7698C255.544 14.4471 256.123 14.8436 256.965 14.8436C258.138 14.8436 259.063 14.0341 259.063 12.9273ZM271.654 11.9361C271.654 14.3645 269.969 16.1817 267.672 16.1817C266.565 16.1817 265.607 15.7522 264.963 15.0088V18.9736H263.228V7.88873H264.847V9.0286C265.442 8.18609 266.483 7.70701 267.672 7.70701C269.969 7.70701 271.654 9.54072 271.654 11.9361ZM269.869 11.9526C269.869 10.3998 268.796 9.29292 267.391 9.29292C266.119 9.29292 264.946 10.1685 264.946 11.9361C264.946 13.7203 266.119 14.5958 267.391 14.5958C268.779 14.5958 269.869 13.5055 269.869 11.9526ZM282.075 11.9361C282.075 14.3645 280.39 16.1817 278.094 16.1817C276.987 16.1817 276.029 15.7522 275.385 15.0088V18.9736H273.65V7.88873H275.269V9.0286C275.864 8.18609 276.905 7.70701 278.094 7.70701C280.39 7.70701 282.075 9.54072 282.075 11.9361ZM280.291 11.9526C280.291 10.3998 279.217 9.29292 277.813 9.29292C276.541 9.29292 275.368 10.1685 275.368 11.9361C275.368 13.7203 276.541 14.5958 277.813 14.5958C279.201 14.5958 280.291 13.5055 280.291 11.9526ZM291.374 12.5143H285.327C285.542 13.8359 286.583 14.6454 287.971 14.6454C288.813 14.6454 289.606 14.3315 290.333 13.6872L291.159 14.8766C290.234 15.7522 289.16 16.1817 287.921 16.1817C285.443 16.1817 283.56 14.348 283.56 11.9526C283.51 9.62332 285.46 7.65745 287.756 7.70701C289.903 7.70701 291.506 9.30944 291.506 11.424C291.506 11.7709 291.456 12.1343 291.374 12.5143ZM285.36 11.1597H289.771C289.755 9.92068 288.83 9.17728 287.69 9.17728C286.55 9.17728 285.625 9.95372 285.36 11.1597ZM293.493 16V3.61008H295.228V16H293.493ZM296.976 14.6123L297.968 13.522C298.678 14.2654 299.388 14.6784 300.247 14.6784C300.991 14.6784 301.552 14.3645 301.552 13.7698C301.552 13.2907 301.205 13.0925 300.413 12.7621L299.587 12.4152C298.149 11.8205 297.472 11.1927 297.472 10.0528C297.472 8.59909 298.678 7.70701 300.33 7.70701C301.503 7.70701 302.428 8.12001 303.138 8.96252L302.197 10.0363C301.685 9.50768 301.007 9.21032 300.297 9.21032C299.62 9.21032 299.19 9.47464 299.19 9.98676C299.19 10.3998 299.471 10.6145 300.264 10.9449L301.04 11.2588C302.577 11.9031 303.254 12.5639 303.254 13.7037C303.254 14.4802 302.973 15.0914 302.395 15.5374C301.817 15.967 301.106 16.1817 300.247 16.1817C298.86 16.1817 297.703 15.554 296.976 14.6123ZM318.309 11.9361C318.309 14.3645 316.624 16.1817 314.328 16.1817C313.221 16.1817 312.263 15.7522 311.619 15.0088V18.9736H309.884V7.88873H311.503V9.0286C312.098 8.18609 313.139 7.70701 314.328 7.70701C316.624 7.70701 318.309 9.54072 318.309 11.9361ZM316.525 11.9526C316.525 10.3998 315.451 9.29292 314.047 9.29292C312.775 9.29292 311.602 10.1685 311.602 11.9361C311.602 13.7203 312.775 14.5958 314.047 14.5958C315.435 14.5958 316.525 13.5055 316.525 11.9526ZM319.794 11.9361C319.744 9.6068 321.743 7.67397 324.072 7.70701C326.435 7.65745 328.434 9.63984 328.384 11.9361C328.434 14.2324 326.435 16.2313 324.072 16.1817C321.743 16.2313 319.744 14.2324 319.794 11.9361ZM326.6 11.9526C326.6 10.4493 325.493 9.29292 324.089 9.29292C322.652 9.29292 321.561 10.4493 321.561 11.9526C321.561 13.4559 322.652 14.5793 324.072 14.5793C325.51 14.5793 326.6 13.4229 326.6 11.9526ZM330.29 12.5969V7.88873H332.008V12.7291C332.008 13.8524 332.785 14.5793 333.842 14.5793C334.85 14.5793 335.626 13.8524 335.626 12.7291V7.88873H337.361V12.5969C337.361 14.7775 335.824 16.1817 333.842 16.1817C331.81 16.1817 330.29 14.7775 330.29 12.5969ZM344.436 7.88873V9.42508H343.908C342.537 9.42508 341.529 10.2346 341.529 11.6718V16H339.794V7.88873H341.413V8.94601C341.991 8.21913 342.85 7.80613 343.776 7.80613C344.023 7.80613 344.238 7.83917 344.436 7.88873ZM27.7434 32.9361C27.6938 30.6068 29.7093 28.674 32.0386 28.707C33.5419 28.707 34.7478 29.4174 35.4582 30.5903L34.2357 31.5484C33.6575 30.7224 32.9306 30.3094 32.0551 30.3094C30.6013 30.3094 29.511 31.4658 29.511 32.9361C29.511 34.4229 30.6013 35.5793 32.0551 35.5793C32.9141 35.5793 33.641 35.1663 34.2357 34.3568L35.4582 35.2985C34.7313 36.4714 33.5088 37.1817 32.0386 37.1817C29.6432 37.1817 27.7434 35.2985 27.7434 32.9361ZM36.697 32.9361C36.6475 30.6068 38.6464 28.674 40.9757 28.707C43.338 28.6575 45.337 30.6398 45.2874 32.9361C45.337 35.2324 43.338 37.2313 40.9757 37.1817C38.6464 37.2313 36.6475 35.2324 36.697 32.9361ZM43.5032 32.9526C43.5032 31.4493 42.3964 30.2929 40.9922 30.2929C39.555 30.2929 38.4647 31.4493 38.4647 32.9526C38.4647 34.4559 39.555 35.5793 40.9757 35.5793C42.4129 35.5793 43.5032 34.4229 43.5032 32.9526ZM47.276 37V24.6101H49.0106V37H47.276ZM51.5189 37V24.6101H53.2535V37H51.5189ZM63.0636 33.5143H57.0173C57.2321 34.8359 58.2728 35.6454 59.6605 35.6454C60.503 35.6454 61.2959 35.3315 62.0228 34.6872L62.8488 35.8766C61.9237 36.7522 60.8499 37.1817 59.6109 37.1817C57.1329 37.1817 55.2497 35.348 55.2497 32.9526C55.2001 30.6233 57.1495 28.6575 59.4457 28.707C61.5933 28.707 63.1957 30.3094 63.1957 32.424C63.1957 32.7709 63.1462 33.1343 63.0636 33.5143ZM57.0503 32.1597H61.4611C61.4446 30.9207 60.5195 30.1773 59.3796 30.1773C58.2398 30.1773 57.3146 30.9537 57.0503 32.1597ZM69.8254 28.8887V30.4251H69.2967C67.9256 30.4251 66.9179 31.2346 66.9179 32.6718V37H65.1833V28.8887H66.8022V29.946C67.3804 29.2191 68.2395 28.8061 69.1646 28.8061C69.4124 28.8061 69.6271 28.8392 69.8254 28.8887ZM82.4511 32.0936V37H80.8321V36.0914C80.2374 36.8018 79.3453 37.1817 78.2385 37.1817C76.537 37.1817 75.4136 36.2401 75.4136 34.8359C75.4136 33.4317 76.57 32.5231 78.4037 32.5231H80.7V31.9945C80.7 30.8711 80.0722 30.2599 78.9654 30.2599C78.0568 30.2599 77.396 30.6564 76.7187 31.4658L75.711 30.4416C76.5204 29.2687 77.7264 28.707 79.1306 28.707C81.1295 28.707 82.4511 29.913 82.4511 32.0936ZM80.7 33.9273V33.7786H78.6185C77.6934 33.7786 77.1812 34.109 77.1812 34.7698C77.1812 35.4471 77.7594 35.8436 78.602 35.8436C79.7749 35.8436 80.7 35.0341 80.7 33.9273ZM78.4863 27.6167L76.3552 24.4284V24.1145H78.4698L79.7749 27.6167H78.4863ZM94.645 28.8887H96.4952L92.58 37.1817H91.9853L88.0535 28.8887H89.9038L92.2826 34.2577L94.645 28.8887ZM97.227 32.9361C97.1774 30.6068 99.1763 28.674 101.506 28.707C103.868 28.6575 105.867 30.6398 105.817 32.9361C105.867 35.2324 103.868 37.2313 101.506 37.1817C99.1763 37.2313 97.1774 35.2324 97.227 32.9361ZM104.033 32.9526C104.033 31.4493 102.926 30.2929 101.522 30.2929C100.085 30.2929 98.9946 31.4493 98.9946 32.9526C98.9946 34.4559 100.085 35.5793 101.506 35.5793C102.943 35.5793 104.033 34.4229 104.033 32.9526ZM107.046 35.6123L108.037 34.522C108.748 35.2654 109.458 35.6784 110.317 35.6784C111.06 35.6784 111.622 35.3645 111.622 34.7698C111.622 34.2907 111.275 34.0925 110.482 33.7621L109.656 33.4152C108.219 32.8205 107.542 32.1927 107.542 31.0528C107.542 29.5991 108.748 28.707 110.4 28.707C111.572 28.707 112.498 29.12 113.208 29.9625L112.266 31.0363C111.754 30.5077 111.077 30.2103 110.366 30.2103C109.689 30.2103 109.26 30.4746 109.26 30.9868C109.26 31.3998 109.54 31.6145 110.333 31.9449L111.11 32.2588C112.646 32.9031 113.324 33.5639 113.324 34.7037C113.324 35.4802 113.043 36.0914 112.465 36.5374C111.886 36.967 111.176 37.1817 110.317 37.1817C108.929 37.1817 107.773 36.554 107.046 35.6123ZM127.041 31.9284V37H125.306V32.1762C125.306 31.0528 124.612 30.2929 123.539 30.2929C122.465 30.2929 121.688 31.0694 121.688 32.1762V37H119.954V24.6101H121.688V29.6982C122.234 29.0539 123.06 28.707 124.034 28.707C125.884 28.707 127.041 30.0121 127.041 31.9284ZM135.899 32.0936V37H134.28V36.0914C133.685 36.8018 132.793 37.1817 131.686 37.1817C129.985 37.1817 128.861 36.2401 128.861 34.8359C128.861 33.4317 130.018 32.5231 131.851 32.5231H134.148V31.9945C134.148 30.8711 133.52 30.2599 132.413 30.2599C131.504 30.2599 130.844 30.6564 130.166 31.4658L129.159 30.4416C129.968 29.2687 131.174 28.707 132.578 28.707C134.577 28.707 135.899 29.913 135.899 32.0936ZM134.148 33.9273V33.7786H132.066C131.141 33.7786 130.629 34.109 130.629 34.7698C130.629 35.4471 131.207 35.8436 132.05 35.8436C133.223 35.8436 134.148 35.0341 134.148 33.9273ZM146.738 32.9526C146.738 35.348 145.036 37.1817 142.773 37.1817C141.584 37.1817 140.543 36.7192 139.932 35.8766V37H138.313V24.6101H140.047V29.8799C140.659 29.1365 141.633 28.707 142.757 28.707C145.053 28.707 146.738 30.5407 146.738 32.9526ZM144.954 32.9361C144.954 31.3832 143.864 30.2929 142.476 30.2929C141.204 30.2929 140.031 31.1685 140.031 32.9526C140.031 34.7203 141.204 35.5958 142.476 35.5958C143.88 35.5958 144.954 34.489 144.954 32.9361ZM148.735 37V28.8887H150.469V37H148.735ZM148.421 25.8656C148.421 25.2213 148.949 24.7092 149.61 24.7092C150.254 24.7092 150.783 25.2213 150.783 25.8656C150.783 26.5099 150.254 27.0055 149.61 27.0055C148.949 27.0055 148.421 26.5099 148.421 25.8656ZM157.801 35.5297V37C157.256 37.1156 156.777 37.1817 156.364 37.1817C154.497 37.1817 153.374 36.2566 153.374 34.3568V30.392H152.052V28.8887H153.374V26.7577H155.125V28.8887H157.537V30.392H155.125V34.2081C155.125 35.2489 155.67 35.6123 156.727 35.6123C156.975 35.6123 157.322 35.5793 157.801 35.5297ZM159.477 33.5969V28.8887H161.195V33.7291C161.195 34.8524 161.972 35.5793 163.029 35.5793C164.037 35.5793 164.813 34.8524 164.813 33.7291V28.8887H166.548V33.5969C166.548 35.7775 165.011 37.1817 163.029 37.1817C160.997 37.1817 159.477 35.7775 159.477 33.5969ZM175.143 24.6101H176.894V37H175.275V35.8436C174.68 36.6861 173.64 37.1817 172.434 37.1817C170.154 37.1817 168.469 35.348 168.469 32.9526C168.419 30.5903 170.187 28.6575 172.434 28.707C173.557 28.707 174.532 29.1365 175.143 29.8799V24.6101ZM175.176 32.9526C175.176 31.2015 173.987 30.2929 172.731 30.2929C171.343 30.2929 170.237 31.3832 170.237 32.9361C170.237 34.489 171.294 35.5958 172.731 35.5958C174.003 35.5958 175.176 34.7203 175.176 32.9526ZM186.705 33.5143H180.658C180.873 34.8359 181.914 35.6454 183.302 35.6454C184.144 35.6454 184.937 35.3315 185.664 34.6872L186.49 35.8766C185.565 36.7522 184.491 37.1817 183.252 37.1817C180.774 37.1817 178.891 35.348 178.891 32.9526C178.841 30.6233 180.791 28.6575 183.087 28.707C185.234 28.707 186.837 30.3094 186.837 32.424C186.837 32.7709 186.787 33.1343 186.705 33.5143ZM180.691 32.1597H185.102C185.086 30.9207 184.161 30.1773 183.021 30.1773C181.881 30.1773 180.956 30.9537 180.691 32.1597ZM188.064 35.6123L189.056 34.522C189.766 35.2654 190.476 35.6784 191.335 35.6784C192.079 35.6784 192.64 35.3645 192.64 34.7698C192.64 34.2907 192.294 34.0925 191.501 33.7621L190.675 33.4152C189.237 32.8205 188.56 32.1927 188.56 31.0528C188.56 29.5991 189.766 28.707 191.418 28.707C192.591 28.707 193.516 29.12 194.226 29.9625L193.285 31.0363C192.773 30.5077 192.095 30.2103 191.385 30.2103C190.708 30.2103 190.278 30.4746 190.278 30.9868C190.278 31.3998 190.559 31.6145 191.352 31.9449L192.128 32.2588C193.665 32.9031 194.342 33.5639 194.342 34.7037C194.342 35.4802 194.061 36.0914 193.483 36.5374C192.905 36.967 192.194 37.1817 191.335 37.1817C189.948 37.1817 188.791 36.554 188.064 35.6123ZM207.134 24.6101H208.885V37H207.266V35.8436C206.672 36.6861 205.631 37.1817 204.425 37.1817C202.145 37.1817 200.46 35.348 200.46 32.9526C200.411 30.5903 202.178 28.6575 204.425 28.707C205.548 28.707 206.523 29.1365 207.134 29.8799V24.6101ZM207.167 32.9526C207.167 31.2015 205.978 30.2929 204.722 30.2929C203.335 30.2929 202.228 31.3832 202.228 32.9361C202.228 34.489 203.285 35.5958 204.722 35.5958C205.994 35.5958 207.167 34.7203 207.167 32.9526ZM211.311 33.5969V28.8887H213.03V33.7291C213.03 34.8524 213.806 35.5793 214.863 35.5793C215.871 35.5793 216.647 34.8524 216.647 33.7291V28.8887H218.382V33.5969C218.382 35.7775 216.846 37.1817 214.863 37.1817C212.831 37.1817 211.311 35.7775 211.311 33.5969ZM235.634 28.8887H237.484L233.883 37.1817H233.288L230.744 31.7797L228.2 37.1817H227.605L224.004 28.8887H225.854L227.985 34.1916L230.447 28.707H231.041L233.536 34.1255L235.634 28.8887ZM246.025 33.5143H239.978C240.193 34.8359 241.234 35.6454 242.622 35.6454C243.464 35.6454 244.257 35.3315 244.984 34.6872L245.81 35.8766C244.885 36.7522 243.811 37.1817 242.572 37.1817C240.094 37.1817 238.211 35.348 238.211 32.9526C238.161 30.6233 240.11 28.6575 242.407 28.707C244.554 28.707 246.157 30.3094 246.157 32.424C246.157 32.7709 246.107 33.1343 246.025 33.5143ZM240.011 32.1597H244.422C244.406 30.9207 243.481 30.1773 242.341 30.1773C241.201 30.1773 240.276 30.9537 240.011 32.1597ZM255.446 33.5143H249.4C249.615 34.8359 250.655 35.6454 252.043 35.6454C252.886 35.6454 253.679 35.3315 254.405 34.6872L255.231 35.8766C254.306 36.7522 253.232 37.1817 251.993 37.1817C249.515 37.1817 247.632 35.348 247.632 32.9526C247.583 30.6233 249.532 28.6575 251.828 28.707C253.976 28.707 255.578 30.3094 255.578 32.424C255.578 32.7709 255.529 33.1343 255.446 33.5143ZM249.433 32.1597H253.844C253.827 30.9207 252.902 30.1773 251.762 30.1773C250.622 30.1773 249.697 30.9537 249.433 32.1597ZM257.566 37V24.6101H259.3V37H257.566ZM261.398 32.457L264.95 37H262.869L259.35 32.4405L262.522 28.8887H264.669L261.398 32.457ZM265.735 32.4901V31.0198H269.799V32.4901H265.735ZM279.161 33.5143H273.115C273.33 34.8359 274.37 35.6454 275.758 35.6454C276.601 35.6454 277.394 35.3315 278.12 34.6872L278.946 35.8766C278.021 36.7522 276.948 37.1817 275.709 37.1817C273.231 37.1817 271.347 35.348 271.347 32.9526C271.298 30.6233 273.247 28.6575 275.543 28.707C277.691 28.707 279.293 30.3094 279.293 32.424C279.293 32.7709 279.244 33.1343 279.161 33.5143ZM273.148 32.1597H277.559C277.542 30.9207 276.617 30.1773 275.477 30.1773C274.337 30.1773 273.412 30.9537 273.148 32.1597ZM288.368 31.9284V37H286.633V32.1597C286.633 31.0363 285.923 30.2764 284.866 30.2764C283.792 30.2764 283.016 31.0528 283.016 32.1597V37H281.281V28.8887H282.9V29.6817C283.511 29.0374 284.321 28.707 285.328 28.707C287.228 28.707 288.368 29.9956 288.368 31.9284ZM296.945 24.6101H298.696V37H297.077V35.8436C296.482 36.6861 295.442 37.1817 294.236 37.1817C291.956 37.1817 290.271 35.348 290.271 32.9526C290.221 30.5903 291.989 28.6575 294.236 28.707C295.359 28.707 296.334 29.1365 296.945 29.8799V24.6101ZM296.978 32.9526C296.978 31.2015 295.789 30.2929 294.533 30.2929C293.145 30.2929 292.039 31.3832 292.039 32.9361C292.039 34.489 293.096 35.5958 294.533 35.5958C295.805 35.5958 296.978 34.7203 296.978 32.9526ZM300.974 35.9097C300.974 35.1828 301.552 34.6211 302.279 34.6211C303.005 34.6211 303.551 35.1663 303.551 35.9097C303.551 36.6366 303.005 37.1817 302.279 37.1817C301.552 37.1817 300.974 36.6366 300.974 35.9097ZM310.581 37V26.0969H314.562C316.759 26.0969 318.262 27.468 318.262 29.4339C318.262 31.3832 316.759 32.7874 314.562 32.7874H312.332V37H310.581ZM312.332 31.2346H314.529C315.768 31.2346 316.462 30.5242 316.462 29.4504C316.462 28.3766 315.768 27.6497 314.529 27.6497H312.332V31.2346ZM326.362 32.0936V37H324.743V36.0914C324.148 36.8018 323.256 37.1817 322.149 37.1817C320.447 37.1817 319.324 36.2401 319.324 34.8359C319.324 33.4317 320.48 32.5231 322.314 32.5231H324.61V31.9945C324.61 30.8711 323.983 30.2599 322.876 30.2599C321.967 30.2599 321.306 30.6564 320.629 31.4658L319.621 30.4416C320.431 29.2687 321.637 28.707 323.041 28.707C325.04 28.707 326.362 29.913 326.362 32.0936ZM324.61 33.9273V33.7786H322.529C321.604 33.7786 321.092 34.109 321.092 34.7698C321.092 35.4471 321.67 35.8436 322.512 35.8436C323.685 35.8436 324.61 35.0341 324.61 33.9273ZM333.418 28.8887V30.4251H332.889C331.518 30.4251 330.51 31.2346 330.51 32.6718V37H328.776V28.8887H330.395V29.946C330.973 29.2191 331.832 28.8061 332.757 28.8061C333.005 28.8061 333.219 28.8392 333.418 28.8887ZM35.5573 54.5143H29.511C29.7258 55.8359 30.7665 56.6454 32.1542 56.6454C32.9967 56.6454 33.7897 56.3315 34.5166 55.6872L35.3425 56.8766C34.4174 57.7522 33.3436 58.1817 32.1046 58.1817C29.6267 58.1817 27.7434 56.348 27.7434 53.9526C27.6938 51.6233 29.6432 49.6575 31.9394 49.707C34.087 49.707 35.6895 51.3094 35.6895 53.424C35.6895 53.7709 35.6399 54.1343 35.5573 54.5143ZM29.5441 53.1597H33.9549C33.9384 51.9207 33.0132 51.1773 31.8734 51.1773C30.7335 51.1773 29.8084 51.9537 29.5441 53.1597ZM44.5036 58H42.5212L40.4893 55.0264L38.4738 58H36.4915L39.4981 53.7874L36.7062 49.8887H38.6886L40.5058 52.565L42.3065 49.8887H44.2888L41.4805 53.8039L44.5036 58ZM52.9806 54.5143H46.9343C47.1491 55.8359 48.1899 56.6454 49.5775 56.6454C50.42 56.6454 51.213 56.3315 51.9399 55.6872L52.7659 56.8766C51.8408 57.7522 50.767 58.1817 49.528 58.1817C47.05 58.1817 45.1667 56.348 45.1667 53.9526C45.1172 51.6233 47.0665 49.6575 49.3628 49.707C51.5104 49.707 53.1128 51.3094 53.1128 53.424C53.1128 53.7709 53.0632 54.1343 52.9806 54.5143ZM46.9674 53.1597H51.3782C51.3617 51.9207 50.4366 51.1773 49.2967 51.1773C48.1568 51.1773 47.2317 51.9537 46.9674 53.1597ZM67.2755 52.9284V58H65.5244V53.1762C65.5244 52.0363 64.8801 51.2929 63.8394 51.2929C62.7821 51.2929 62.0552 52.0528 62.0552 53.0936V58H60.3206V53.1762C60.3206 52.0528 59.6598 51.2929 58.6191 51.2929C57.5618 51.2929 56.8349 52.0528 56.8349 53.1762V58H55.1003V49.8887H56.7193V50.6486C57.2975 50.0539 58.0904 49.707 59.0651 49.707C60.1885 49.707 61.0475 50.1861 61.5266 50.979C62.1213 50.2026 63.129 49.707 64.2689 49.707C66.1356 49.707 67.2755 50.9956 67.2755 52.9284ZM78.1095 53.9361C78.1095 56.3645 76.4244 58.1817 74.1282 58.1817C73.0213 58.1817 72.0632 57.7522 71.4189 57.0088V60.9736H69.6843V49.8887H71.3033V51.0286C71.898 50.1861 72.9387 49.707 74.1282 49.707C76.4244 49.707 78.1095 51.5407 78.1095 53.9361ZM76.3253 53.9526C76.3253 52.3998 75.2515 51.2929 73.8473 51.2929C72.5753 51.2929 71.4024 52.1685 71.4024 53.9361C71.4024 55.7203 72.5753 56.5958 73.8473 56.5958C75.235 56.5958 76.3253 55.5055 76.3253 53.9526ZM80.106 58V45.6101H81.8406V58H80.106ZM91.6507 54.5143H85.6045C85.8192 55.8359 86.86 56.6454 88.2476 56.6454C89.0902 56.6454 89.8831 56.3315 90.61 55.6872L91.436 56.8766C90.5109 57.7522 89.4371 58.1817 88.1981 58.1817C85.7201 58.1817 83.8368 56.348 83.8368 53.9526C83.7873 51.6233 85.7366 49.6575 88.0329 49.707C90.1805 49.707 91.7829 51.3094 91.7829 53.424C91.7829 53.7709 91.7333 54.1343 91.6507 54.5143ZM85.6375 53.1597H90.0483C90.0318 51.9207 89.1067 51.1773 87.9668 51.1773C86.8269 51.1773 85.9018 51.9537 85.6375 53.1597ZM106.826 53.9361C106.826 56.3645 105.141 58.1817 102.844 58.1817C101.738 58.1817 100.779 57.7522 100.135 57.0088V60.9736H98.4005V49.8887H100.019V51.0286C100.614 50.1861 101.655 49.707 102.844 49.707C105.141 49.707 106.826 51.5407 106.826 53.9361ZM105.042 53.9526C105.042 52.3998 103.968 51.2929 102.564 51.2929C101.292 51.2929 100.119 52.1685 100.119 53.9361C100.119 55.7203 101.292 56.5958 102.564 56.5958C103.951 56.5958 105.042 55.5055 105.042 53.9526ZM108.31 53.9361C108.261 51.6068 110.259 49.674 112.589 49.707C114.951 49.6575 116.95 51.6398 116.9 53.9361C116.95 56.2324 114.951 58.2313 112.589 58.1817C110.259 58.2313 108.261 56.2324 108.31 53.9361ZM115.116 53.9526C115.116 52.4493 114.01 51.2929 112.605 51.2929C111.168 51.2929 110.078 52.4493 110.078 53.9526C110.078 55.4559 111.168 56.5793 112.589 56.5793C114.026 56.5793 115.116 55.4229 115.116 53.9526ZM118.806 54.5969V49.8887H120.525V54.7291C120.525 55.8524 121.301 56.5793 122.358 56.5793C123.366 56.5793 124.142 55.8524 124.142 54.7291V49.8887H125.877V54.5969C125.877 56.7775 124.341 58.1817 122.358 58.1817C120.326 58.1817 118.806 56.7775 118.806 54.5969ZM132.953 49.8887V51.4251H132.424C131.053 51.4251 130.045 52.2346 130.045 53.6718V58H128.311V49.8887H129.93V50.946C130.508 50.2191 131.367 49.8061 132.292 49.8061C132.54 49.8061 132.754 49.8392 132.953 49.8887ZM139.053 54.5969V49.8887H140.771V54.7291C140.771 55.8524 141.548 56.5793 142.605 56.5793C143.613 56.5793 144.389 55.8524 144.389 54.7291V49.8887H146.124V54.5969C146.124 56.7775 144.587 58.1817 142.605 58.1817C140.573 58.1817 139.053 56.7775 139.053 54.5969ZM155.644 52.9284V58H153.91V53.1597C153.91 52.0363 153.199 51.2764 152.142 51.2764C151.068 51.2764 150.292 52.0528 150.292 53.1597V58H148.557V49.8887H150.176V50.6817C150.787 50.0374 151.597 49.707 152.604 49.707C154.504 49.707 155.644 50.9956 155.644 52.9284ZM167.331 49.8887V51.4251H166.803C165.432 51.4251 164.424 52.2346 164.424 53.6718V58H162.689V49.8887H164.308V50.946C164.887 50.2191 165.746 49.8061 166.671 49.8061C166.918 49.8061 167.133 49.8392 167.331 49.8887ZM176.025 54.5143H169.979C170.193 55.8359 171.234 56.6454 172.622 56.6454C173.464 56.6454 174.257 56.3315 174.984 55.6872L175.81 56.8766C174.885 57.7522 173.811 58.1817 172.572 58.1817C170.094 58.1817 168.211 56.348 168.211 53.9526C168.161 51.6233 170.111 49.6575 172.407 49.707C174.555 49.707 176.157 51.3094 176.157 53.424C176.157 53.7709 176.107 54.1343 176.025 54.5143ZM170.012 53.1597H174.422C174.406 51.9207 173.481 51.1773 172.341 51.1773C171.201 51.1773 170.276 51.9537 170.012 53.1597ZM171.746 48.6167L173.051 45.1145H175.166V45.4284L173.035 48.6167H171.746ZM183.472 49.8887H185.322L181.407 58.1817H180.812L176.88 49.8887H178.73L181.109 55.2577L183.472 49.8887ZM193.868 54.5143H187.821C188.036 55.8359 189.077 56.6454 190.464 56.6454C191.307 56.6454 192.1 56.3315 192.827 55.6872L193.653 56.8766C192.728 57.7522 191.654 58.1817 190.415 58.1817C187.937 58.1817 186.054 56.348 186.054 53.9526C186.004 51.6233 187.953 49.6575 190.25 49.707C192.397 49.707 194 51.3094 194 53.424C194 53.7709 193.95 54.1343 193.868 54.5143ZM187.854 53.1597H192.265C192.249 51.9207 191.324 51.1773 190.184 51.1773C189.044 51.1773 188.119 51.9537 187.854 53.1597ZM195.987 58V49.8887H197.722V58H195.987ZM195.673 46.8656C195.673 46.2213 196.202 45.7092 196.863 45.7092C197.507 45.7092 198.036 46.2213 198.036 46.8656C198.036 47.5099 197.507 48.0055 196.863 48.0055C196.202 48.0055 195.673 47.5099 195.673 46.8656ZM200.23 58V45.6101H201.965V58H200.23ZM217.528 53.9361C217.528 56.3645 215.843 58.1817 213.547 58.1817C212.44 58.1817 211.482 57.7522 210.838 57.0088V60.9736H209.103V49.8887H210.722V51.0286C211.317 50.1861 212.358 49.707 213.547 49.707C215.843 49.707 217.528 51.5407 217.528 53.9361ZM215.744 53.9526C215.744 52.3998 214.67 51.2929 213.266 51.2929C211.994 51.2929 210.821 52.1685 210.821 53.9361C210.821 55.7203 211.994 56.5958 213.266 56.5958C214.654 56.5958 215.744 55.5055 215.744 53.9526ZM219.525 58V45.6101H221.259V58H219.525ZM223.685 54.5969V49.8887H225.403V54.7291C225.403 55.8524 226.18 56.5793 227.237 56.5793C228.245 56.5793 229.021 55.8524 229.021 54.7291V49.8887H230.756V54.5969C230.756 56.7775 229.219 58.1817 227.237 58.1817C225.205 58.1817 223.685 56.7775 223.685 54.5969ZM232.429 56.6123L233.421 55.522C234.131 56.2654 234.841 56.6784 235.7 56.6784C236.444 56.6784 237.005 56.3645 237.005 55.7698C237.005 55.2907 236.658 55.0925 235.866 54.7621L235.04 54.4152C233.602 53.8205 232.925 53.1927 232.925 52.0528C232.925 50.5991 234.131 49.707 235.783 49.707C236.956 49.707 237.881 50.12 238.591 50.9625L237.65 52.0363C237.138 51.5077 236.46 51.2103 235.75 51.2103C235.073 51.2103 234.643 51.4746 234.643 51.9868C234.643 52.3998 234.924 52.6145 235.717 52.9449L236.493 53.2588C238.03 53.9031 238.707 54.5639 238.707 55.7037C238.707 56.4802 238.426 57.0914 237.848 57.5374C237.27 57.967 236.559 58.1817 235.7 58.1817C234.313 58.1817 233.156 57.554 232.429 56.6123ZM250.161 56.5297V58C249.616 58.1156 249.137 58.1817 248.724 58.1817C246.857 58.1817 245.734 57.2566 245.734 55.3568V51.392H244.412V49.8887H245.734V47.7577H247.485V49.8887H249.897V51.392H247.485V55.2081C247.485 56.2489 248.03 56.6123 249.087 56.6123C249.335 56.6123 249.682 56.5793 250.161 56.5297ZM258.362 53.0936V58H256.743V57.0914C256.148 57.8018 255.256 58.1817 254.15 58.1817C252.448 58.1817 251.325 57.2401 251.325 55.8359C251.325 54.4317 252.481 53.5231 254.315 53.5231H256.611V52.9945C256.611 51.8711 255.983 51.2599 254.876 51.2599C253.968 51.2599 253.307 51.6564 252.63 52.4658L251.622 51.4416C252.432 50.2687 253.637 49.707 255.042 49.707C257.041 49.707 258.362 50.913 258.362 53.0936ZM256.611 54.9273V54.7786H254.53C253.604 54.7786 253.092 55.109 253.092 55.7698C253.092 56.4471 253.671 56.8436 254.513 56.8436C255.686 56.8436 256.611 56.0341 256.611 54.9273ZM265.418 49.8887V51.4251H264.89C263.519 51.4251 262.511 52.2346 262.511 53.6718V58H260.776V49.8887H262.395V50.946C262.973 50.2191 263.832 49.8061 264.758 49.8061C265.005 49.8061 265.22 49.8392 265.418 49.8887ZM272.972 45.6101H274.723V58H273.104V56.8436C272.509 57.6861 271.468 58.1817 270.263 58.1817C267.983 58.1817 266.298 56.348 266.298 53.9526C266.248 51.5903 268.016 49.6575 270.263 49.707C271.386 49.707 272.361 50.1365 272.972 50.8799V45.6101ZM273.005 53.9526C273.005 52.2015 271.815 51.2929 270.56 51.2929C269.172 51.2929 268.065 52.3832 268.065 53.9361C268.065 55.489 269.123 56.5958 270.56 56.5958C271.832 56.5958 273.005 55.7203 273.005 53.9526ZM277.232 58V49.8887H278.966V58H277.232ZM276.918 46.8656C276.918 46.2213 277.446 45.7092 278.107 45.7092C278.751 45.7092 279.28 46.2213 279.28 46.8656C279.28 47.5099 278.751 48.0055 278.107 48.0055C277.446 48.0055 276.918 47.5099 276.918 46.8656ZM283.506 48.4019V49.8887H285.423V51.392H283.506V58H281.772V51.392H280.615V49.8887H281.772V48.2533C281.772 46.3535 282.879 45.4284 284.663 45.4284C285.109 45.4284 285.472 45.4779 285.786 45.577V47.0473C285.522 47.0143 285.291 46.9978 285.092 46.9978C284.035 46.9978 283.506 47.3612 283.506 48.4019ZM286.067 56.9097C286.067 56.1828 286.645 55.6211 287.372 55.6211C288.099 55.6211 288.644 56.1663 288.644 56.9097C288.644 57.6366 288.099 58.1817 287.372 58.1817C286.645 58.1817 286.067 57.6366 286.067 56.9097Z" fill="#8BA0AC"/>
<path d="M0 100.156H16.5199V83.6365H0V100.156Z" fill="#8BA0AC"/>
<path d="M28.3712 99V88.0969H32.3524C34.5496 88.0969 36.0529 89.468 36.0529 91.4339C36.0529 93.3832 34.5496 94.7874 32.3524 94.7874H30.1223V99H28.3712ZM30.1223 93.2346H32.3194C33.5584 93.2346 34.2522 92.5242 34.2522 91.4504C34.2522 90.3766 33.5584 89.6497 32.3194 89.6497H30.1223V93.2346ZM44.9627 95.5143H38.9164C39.1312 96.8359 40.1719 97.6454 41.5596 97.6454C42.4021 97.6454 43.195 97.3315 43.9219 96.6872L44.7479 97.8766C43.8228 98.7522 42.749 99.1817 41.51 99.1817C39.032 99.1817 37.1488 97.348 37.1488 94.9526C37.0992 92.6233 39.0486 90.6575 41.3448 90.707C43.4924 90.707 45.0948 92.3094 45.0948 94.424C45.0948 94.7709 45.0453 95.1343 44.9627 95.5143ZM38.9494 94.1597H43.3602C43.3437 92.9207 42.4186 92.1773 41.2787 92.1773C40.1389 92.1773 39.2138 92.9537 38.9494 94.1597ZM54.1694 93.9284V99H52.4348V94.1597C52.4348 93.0363 51.7245 92.2764 50.6672 92.2764C49.5934 92.2764 48.817 93.0528 48.817 94.1597V99H47.0824V90.8887H48.7013V91.6817C49.3126 91.0374 50.122 90.707 51.1298 90.707C53.0295 90.707 54.1694 91.9956 54.1694 93.9284ZM55.8246 97.6123L56.8158 96.522C57.5262 97.2654 58.2365 97.6784 59.0956 97.6784C59.839 97.6784 60.4006 97.3645 60.4006 96.7698C60.4006 96.2907 60.0537 96.0925 59.2608 95.7621L58.4348 95.4152C56.9975 94.8205 56.3202 94.1927 56.3202 93.0528C56.3202 91.5991 57.5262 90.707 59.1782 90.707C60.3511 90.707 61.2762 91.12 61.9866 91.9625L61.0449 93.0363C60.5328 92.5077 59.8555 92.2103 59.1451 92.2103C58.4678 92.2103 58.0383 92.4746 58.0383 92.9868C58.0383 93.3998 58.3191 93.6145 59.1121 93.9449L59.8885 94.2588C61.4249 94.9031 62.1022 95.5639 62.1022 96.7037C62.1022 97.4802 61.8214 98.0914 61.2432 98.5374C60.665 98.967 59.9546 99.1817 59.0956 99.1817C57.7079 99.1817 56.5515 98.554 55.8246 97.6123ZM71.4042 95.5143H65.3579C65.5727 96.8359 66.6134 97.6454 68.0011 97.6454C68.8436 97.6454 69.6366 97.3315 70.3634 96.6872L71.1894 97.8766C70.2643 98.7522 69.1905 99.1817 67.9515 99.1817C65.4735 99.1817 63.5903 97.348 63.5903 94.9526C63.5407 92.6233 65.4901 90.6575 67.7863 90.707C69.9339 90.707 71.5363 92.3094 71.5363 94.424C71.5363 94.7709 71.4868 95.1343 71.4042 95.5143ZM65.3909 94.1597H69.8018C69.7852 92.9207 68.8601 92.1773 67.7202 92.1773C66.5804 92.1773 65.6553 92.9537 65.3909 94.1597ZM75.2254 97.4967H79.5206V99H72.6318V98.5209L76.8774 92.392H73.0118V90.8887H79.4876V91.3843L75.2254 97.4967ZM92.2114 94.0936V99H90.5924V98.0914C89.9977 98.8018 89.1056 99.1817 87.9988 99.1817C86.2973 99.1817 85.1739 98.2401 85.1739 96.8359C85.1739 95.4317 86.3303 94.5231 88.164 94.5231H90.4603V93.9945C90.4603 92.8711 89.8325 92.2599 88.7257 92.2599C87.8171 92.2599 87.1563 92.6564 86.479 93.4658L85.4713 92.4416C86.2807 91.2687 87.4867 90.707 88.8909 90.707C90.8898 90.707 92.2114 91.913 92.2114 94.0936ZM90.4603 95.9273V95.7786H88.3788C87.4536 95.7786 86.9415 96.109 86.9415 96.7698C86.9415 97.4471 87.5197 97.8436 88.3622 97.8436C89.5352 97.8436 90.4603 97.0341 90.4603 95.9273ZM88.2466 89.6167L86.1155 86.4284V86.1145H88.2301L89.5352 89.6167H88.2466ZM105.698 94.0936V99H104.079V98.0914C103.485 98.8018 102.593 99.1817 101.486 99.1817C99.7842 99.1817 98.6608 98.2401 98.6608 96.8359C98.6608 95.4317 99.8172 94.5231 101.651 94.5231H103.947V93.9945C103.947 92.8711 103.319 92.2599 102.213 92.2599C101.304 92.2599 100.643 92.6564 99.9659 93.4658L98.9582 92.4416C99.7677 91.2687 100.974 90.707 102.378 90.707C104.377 90.707 105.698 91.913 105.698 94.0936ZM103.947 95.9273V95.7786H101.866C100.941 95.7786 100.428 96.109 100.428 96.7698C100.428 97.4471 101.007 97.8436 101.849 97.8436C103.022 97.8436 103.947 97.0341 103.947 95.9273ZM113.44 90.8887H115.29L111.375 99.1817H110.78L106.848 90.8887H108.698L111.077 96.2577L113.44 90.8887ZM116.022 94.9361C115.972 92.6068 117.971 90.674 120.3 90.707C122.663 90.6575 124.661 92.6398 124.612 94.9361C124.661 97.2324 122.663 99.2313 120.3 99.1817C117.971 99.2313 115.972 97.2324 116.022 94.9361ZM122.828 94.9526C122.828 93.4493 121.721 92.2929 120.317 92.2929C118.88 92.2929 117.789 93.4493 117.789 94.9526C117.789 96.4559 118.88 97.5793 120.3 97.5793C121.737 97.5793 122.828 96.4229 122.828 94.9526ZM126.601 99V90.8887H128.335V99H126.601ZM126.287 87.8656C126.287 87.2213 126.815 86.7092 127.476 86.7092C128.12 86.7092 128.649 87.2213 128.649 87.8656C128.649 88.5099 128.12 89.0055 127.476 89.0055C126.815 89.0055 126.287 88.5099 126.287 87.8656ZM135.486 90.8887V92.4251H134.957C133.586 92.4251 132.578 93.2346 132.578 94.6718V99H130.843V90.8887H132.462V91.946C133.041 91.2191 133.9 90.8061 134.825 90.8061C135.073 90.8061 135.287 90.8392 135.486 90.8887ZM146.818 90.8887H148.668L144.753 99.1817H144.158L140.227 90.8887H142.077L144.456 96.2577L146.818 90.8887ZM149.4 94.9361C149.351 92.6068 151.349 90.674 153.679 90.707C156.041 90.6575 158.04 92.6398 157.99 94.9361C158.04 97.2324 156.041 99.2313 153.679 99.1817C151.349 99.2313 149.351 97.2324 149.4 94.9361ZM156.206 94.9526C156.206 93.4493 155.1 92.2929 153.695 92.2929C152.258 92.2929 151.168 93.4493 151.168 94.9526C151.168 96.4559 152.258 97.5793 153.679 97.5793C155.116 97.5793 156.206 96.4229 156.206 94.9526ZM164.803 97.5297V99C164.258 99.1156 163.779 99.1817 163.366 99.1817C161.499 99.1817 160.376 98.2566 160.376 96.3568V92.392H159.054V90.8887H160.376V88.7577H162.127V90.8887H164.539V92.392H162.127V96.2081C162.127 97.2489 162.672 97.6123 163.729 97.6123C163.977 97.6123 164.324 97.5793 164.803 97.5297ZM171.203 90.8887V92.4251H170.675C169.304 92.4251 168.296 93.2346 168.296 94.6718V99H166.561V90.8887H168.18V91.946C168.758 91.2191 169.617 90.8061 170.543 90.8061C170.79 90.8061 171.005 90.8392 171.203 90.8887ZM179.897 95.5143H173.85C174.065 96.8359 175.106 97.6454 176.494 97.6454C177.336 97.6454 178.129 97.3315 178.856 96.6872L179.682 97.8766C178.757 98.7522 177.683 99.1817 176.444 99.1817C173.966 99.1817 172.083 97.348 172.083 94.9526C172.033 92.6233 173.983 90.6575 176.279 90.707C178.426 90.707 180.029 92.3094 180.029 94.424C180.029 94.7709 179.979 95.1343 179.897 95.5143ZM173.883 94.1597H178.294C178.278 92.9207 177.353 92.1773 176.213 92.1773C175.073 92.1773 174.148 92.9537 173.883 94.1597ZM195.617 99H193.618L190.512 94.7874H188.513V99H186.762V88.0969H190.743C192.941 88.0969 194.444 89.468 194.444 91.4339C194.444 92.8711 193.651 93.9945 192.346 94.5066L195.617 99ZM188.513 89.6497V93.2346H190.71C191.916 93.2346 192.643 92.5077 192.643 91.4504C192.643 90.3766 191.916 89.6497 190.71 89.6497H188.513ZM204.128 95.5143H198.082C198.296 96.8359 199.337 97.6454 200.725 97.6454C201.567 97.6454 202.36 97.3315 203.087 96.6872L203.913 97.8766C202.988 98.7522 201.914 99.1817 200.675 99.1817C198.197 99.1817 196.314 97.348 196.314 94.9526C196.265 92.6233 198.214 90.6575 200.51 90.707C202.658 90.707 204.26 92.3094 204.26 94.424C204.26 94.7709 204.211 95.1343 204.128 95.5143ZM198.115 94.1597H202.526C202.509 92.9207 201.584 92.1773 200.444 92.1773C199.304 92.1773 198.379 92.9537 198.115 94.1597ZM205.488 97.6123L206.479 96.522C207.189 97.2654 207.9 97.6784 208.759 97.6784C209.502 97.6784 210.064 97.3645 210.064 96.7698C210.064 96.2907 209.717 96.0925 208.924 95.7621L208.098 95.4152C206.661 94.8205 205.983 94.1927 205.983 93.0528C205.983 91.5991 207.189 90.707 208.841 90.707C210.014 90.707 210.939 91.12 211.65 91.9625L210.708 93.0363C210.196 92.5077 209.519 92.2103 208.808 92.2103C208.131 92.2103 207.701 92.4746 207.701 92.9868C207.701 93.3998 207.982 93.6145 208.775 93.9449L209.552 94.2588C211.088 94.9031 211.765 95.5639 211.765 96.7037C211.765 97.4802 211.484 98.0914 210.906 98.5374C210.328 98.967 209.618 99.1817 208.759 99.1817C207.371 99.1817 206.215 98.554 205.488 97.6123ZM222.191 94.9361C222.191 97.3645 220.506 99.1817 218.209 99.1817C217.103 99.1817 216.144 98.7522 215.5 98.0088V101.974H213.766V90.8887H215.384V92.0286C215.979 91.1861 217.02 90.707 218.209 90.707C220.506 90.707 222.191 92.5407 222.191 94.9361ZM220.407 94.9526C220.407 93.3998 219.333 92.2929 217.929 92.2929C216.657 92.2929 215.484 93.1685 215.484 94.9361C215.484 96.7203 216.657 97.5958 217.929 97.5958C219.316 97.5958 220.407 96.5055 220.407 94.9526ZM224.187 99V90.8887H225.922V99H224.187ZM223.873 87.8656C223.873 87.2213 224.402 86.7092 225.063 86.7092C225.707 86.7092 226.236 87.2213 226.236 87.8656C226.236 88.5099 225.707 89.0055 225.063 89.0055C224.402 89.0055 223.873 88.5099 223.873 87.8656ZM234.08 90.8887H235.93L232.015 99.1817H231.42L227.489 90.8887H229.339L231.718 96.2577L234.08 90.8887ZM244.476 95.5143H238.43C238.644 96.8359 239.685 97.6454 241.073 97.6454C241.915 97.6454 242.708 97.3315 243.435 96.6872L244.261 97.8766C243.336 98.7522 242.262 99.1817 241.023 99.1817C238.545 99.1817 236.662 97.348 236.662 94.9526C236.612 92.6233 238.562 90.6575 240.858 90.707C243.006 90.707 244.608 92.3094 244.608 94.424C244.608 94.7709 244.558 95.1343 244.476 95.5143ZM238.463 94.1597H242.873C242.857 92.9207 241.932 92.1773 240.792 92.1773C239.652 92.1773 238.727 92.9537 238.463 94.1597ZM253.683 93.9284V99H251.948V94.1597C251.948 93.0363 251.238 92.2764 250.18 92.2764C249.107 92.2764 248.33 93.0528 248.33 94.1597V99H246.596V90.8887H248.215V91.6817C248.826 91.0374 249.635 90.707 250.643 90.707C252.543 90.707 253.683 91.9956 253.683 93.9284ZM260.922 97.5297V99C260.376 99.1156 259.897 99.1817 259.484 99.1817C257.618 99.1817 256.494 98.2566 256.494 96.3568V92.392H255.173V90.8887H256.494V88.7577H258.245V90.8887H260.657V92.392H258.245V96.2081C258.245 97.2489 258.79 97.6123 259.848 97.6123C260.096 97.6123 260.442 97.5793 260.922 97.5297ZM262.68 99V90.8887H264.414V99H262.68ZM262.366 87.8656C262.366 87.2213 262.895 86.7092 263.555 86.7092C264.2 86.7092 264.728 87.2213 264.728 87.8656C264.728 88.5099 264.2 89.0055 263.555 89.0055C262.895 89.0055 262.366 88.5099 262.366 87.8656ZM273.911 99H271.928L269.896 96.0264L267.881 99H265.899L268.905 94.7874L266.113 90.8887H268.096L269.913 93.565L271.714 90.8887H273.696L270.888 94.8039L273.911 99ZM36.6807 115.936C36.6807 118.365 34.9956 120.182 32.6994 120.182C31.5925 120.182 30.6344 119.752 29.9901 119.009V122.974H28.2555V111.889H29.8745V113.029C30.4692 112.186 31.5099 111.707 32.6994 111.707C34.9956 111.707 36.6807 113.541 36.6807 115.936ZM34.8965 115.953C34.8965 114.4 33.8227 113.293 32.4185 113.293C31.1465 113.293 29.9736 114.168 29.9736 115.936C29.9736 117.72 31.1465 118.596 32.4185 118.596C33.8062 118.596 34.8965 117.505 34.8965 115.953ZM43.3193 111.889V113.425H42.7907C41.4195 113.425 40.4118 114.235 40.4118 115.672V120H38.6772V111.889H40.2962V112.946C40.8744 112.219 41.7334 111.806 42.6585 111.806C42.9063 111.806 43.1211 111.839 43.3193 111.889ZM52.0127 116.514H45.9664C46.1811 117.836 47.2219 118.645 48.6096 118.645C49.4521 118.645 50.245 118.331 50.9719 117.687L51.7979 118.877C50.8728 119.752 49.799 120.182 48.56 120.182C46.082 120.182 44.1988 118.348 44.1988 115.953C44.1492 113.623 46.0985 111.657 48.3948 111.707C50.5424 111.707 52.1448 113.309 52.1448 115.424C52.1448 115.771 52.0953 116.134 52.0127 116.514ZM45.9994 115.16H50.4102C50.3937 113.921 49.4686 113.177 48.3287 113.177C47.1889 113.177 46.2637 113.954 45.9994 115.16ZM47.734 110.617L45.603 107.428V107.114H47.7175L49.0226 110.617H47.734ZM53.3725 118.612L54.3637 117.522C55.074 118.265 55.7844 118.678 56.6434 118.678C57.3868 118.678 57.9485 118.365 57.9485 117.77C57.9485 117.291 57.6016 117.092 56.8086 116.762L55.9826 116.415C54.5454 115.82 53.8681 115.193 53.8681 114.053C53.8681 112.599 55.074 111.707 56.726 111.707C57.8989 111.707 58.824 112.12 59.5344 112.963L58.5927 114.036C58.0806 113.508 57.4033 113.21 56.693 113.21C56.0156 113.21 55.5861 113.475 55.5861 113.987C55.5861 114.4 55.867 114.615 56.6599 114.945L57.4364 115.259C58.9727 115.903 59.65 116.564 59.65 117.704C59.65 118.48 59.3692 119.091 58.791 119.537C58.2128 119.967 57.5024 120.182 56.6434 120.182C55.2557 120.182 54.0993 119.554 53.3725 118.612ZM72.4422 107.61H74.1933V120H72.5744V118.844C71.9797 119.686 70.9389 120.182 69.733 120.182C67.4532 120.182 65.7682 118.348 65.7682 115.953C65.7186 113.59 67.4863 111.657 69.733 111.707C70.8563 111.707 71.831 112.137 72.4422 112.88V107.61ZM72.4753 115.953C72.4753 114.202 71.2858 113.293 70.0303 113.293C68.6427 113.293 67.5358 114.383 67.5358 115.936C67.5358 117.489 68.5931 118.596 70.0303 118.596C71.3024 118.596 72.4753 117.72 72.4753 115.953ZM84.0038 116.514H77.9575C78.1723 117.836 79.2131 118.645 80.6007 118.645C81.4432 118.645 82.2362 118.331 82.9631 117.687L83.7891 118.877C82.864 119.752 81.7902 120.182 80.5512 120.182C78.0732 120.182 76.1899 118.348 76.1899 115.953C76.1404 113.623 78.0897 111.657 80.386 111.707C82.5336 111.707 84.136 113.309 84.136 115.424C84.136 115.771 84.0864 116.134 84.0038 116.514ZM77.9906 115.16H82.4014C82.3849 113.921 81.4598 113.177 80.3199 113.177C79.18 113.177 78.2549 113.954 77.9906 115.16ZM95.9033 111.889H97.7535L93.8383 120.182H93.2436L89.3119 111.889H91.1621L93.541 117.258L95.9033 111.889ZM98.4853 115.936C98.4358 113.607 100.435 111.674 102.764 111.707C105.126 111.657 107.125 113.64 107.076 115.936C107.125 118.232 105.126 120.231 102.764 120.182C100.435 120.231 98.4358 118.232 98.4853 115.936ZM105.292 115.953C105.292 114.449 104.185 113.293 102.78 113.293C101.343 113.293 100.253 114.449 100.253 115.953C100.253 117.456 101.343 118.579 102.764 118.579C104.201 118.579 105.292 117.423 105.292 115.953ZM108.982 116.597V111.889H110.7V116.729C110.7 117.852 111.476 118.579 112.533 118.579C113.541 118.579 114.318 117.852 114.318 116.729V111.889H116.052V116.597C116.052 118.778 114.516 120.182 112.533 120.182C110.501 120.182 108.982 118.778 108.982 116.597ZM117.726 118.612L118.717 117.522C119.427 118.265 120.138 118.678 120.997 118.678C121.74 118.678 122.302 118.365 122.302 117.77C122.302 117.291 121.955 117.092 121.162 116.762L120.336 116.415C118.899 115.82 118.221 115.193 118.221 114.053C118.221 112.599 119.427 111.707 121.079 111.707C122.252 111.707 123.177 112.12 123.888 112.963L122.946 114.036C122.434 113.508 121.757 113.21 121.046 113.21C120.369 113.21 119.94 113.475 119.94 113.987C119.94 114.4 120.22 114.615 121.013 114.945L121.79 115.259C123.326 115.903 124.003 116.564 124.003 117.704C124.003 118.48 123.723 119.091 123.144 119.537C122.566 119.967 121.856 120.182 120.997 120.182C119.609 120.182 118.453 119.554 117.726 118.612ZM137.076 115.094V120H135.457V119.091C134.863 119.802 133.971 120.182 132.864 120.182C131.162 120.182 130.039 119.24 130.039 117.836C130.039 116.432 131.195 115.523 133.029 115.523H135.325V114.994C135.325 113.871 134.698 113.26 133.591 113.26C132.682 113.26 132.021 113.656 131.344 114.466L130.336 113.442C131.146 112.269 132.352 111.707 133.756 111.707C135.755 111.707 137.076 112.913 137.076 115.094ZM135.325 116.927V116.779H133.244C132.319 116.779 131.807 117.109 131.807 117.77C131.807 118.447 132.385 118.844 133.227 118.844C134.4 118.844 135.325 118.034 135.325 116.927ZM139.408 116.597V111.889H141.126V116.729C141.126 117.852 141.902 118.579 142.96 118.579C143.967 118.579 144.744 117.852 144.744 116.729V111.889H146.478V116.597C146.478 118.778 144.942 120.182 142.96 120.182C140.928 120.182 139.408 118.778 139.408 116.597ZM155.9 120H153.918L151.886 117.026L149.87 120H147.888L150.894 115.787L148.103 111.889H150.085L151.902 114.565L153.703 111.889H155.685L152.877 115.804L155.9 120ZM168.471 115.094V120H166.852V119.091C166.257 119.802 165.365 120.182 164.258 120.182C162.557 120.182 161.433 119.24 161.433 117.836C161.433 116.432 162.59 115.523 164.423 115.523H166.72V114.994C166.72 113.871 166.092 113.26 164.985 113.26C164.076 113.26 163.416 113.656 162.738 114.466L161.731 113.442C162.54 112.269 163.746 111.707 165.15 111.707C167.149 111.707 168.471 112.913 168.471 115.094ZM166.72 116.927V116.779H164.638C163.713 116.779 163.201 117.109 163.201 117.77C163.201 118.447 163.779 118.844 164.622 118.844C165.794 118.844 166.72 118.034 166.72 116.927ZM179.31 115.953C179.31 118.348 177.608 120.182 175.345 120.182C174.156 120.182 173.115 119.719 172.504 118.877V120H170.885V107.61H172.619V112.88C173.231 112.137 174.205 111.707 175.329 111.707C177.625 111.707 179.31 113.541 179.31 115.953ZM177.526 115.936C177.526 114.383 176.435 113.293 175.048 113.293C173.776 113.293 172.603 114.168 172.603 115.953C172.603 117.72 173.776 118.596 175.048 118.596C176.452 118.596 177.526 117.489 177.526 115.936ZM180.794 115.936C180.745 113.607 182.744 111.674 185.073 111.707C187.435 111.657 189.434 113.64 189.385 115.936C189.434 118.232 187.435 120.231 185.073 120.182C182.744 120.231 180.745 118.232 180.794 115.936ZM187.601 115.953C187.601 114.449 186.494 113.293 185.09 113.293C183.652 113.293 182.562 114.449 182.562 115.953C182.562 117.456 183.652 118.579 185.073 118.579C186.51 118.579 187.601 117.423 187.601 115.953ZM196.015 111.889V113.425H195.487C194.116 113.425 193.108 114.235 193.108 115.672V120H191.373V111.889H192.992V112.946C193.57 112.219 194.43 111.806 195.355 111.806C195.602 111.806 195.817 111.839 196.015 111.889ZM203.569 107.61H205.32V120H203.701V118.844C203.106 119.686 202.066 120.182 200.86 120.182C198.58 120.182 196.895 118.348 196.895 115.953C196.845 113.59 198.613 111.657 200.86 111.707C201.983 111.707 202.958 112.137 203.569 112.88V107.61ZM203.602 115.953C203.602 114.202 202.412 113.293 201.157 113.293C199.769 113.293 198.662 114.383 198.662 115.936C198.662 117.489 199.72 118.596 201.157 118.596C202.429 118.596 203.602 117.72 203.602 115.953ZM207.069 118.612L208.06 117.522C208.77 118.265 209.481 118.678 210.34 118.678C211.083 118.678 211.645 118.365 211.645 117.77C211.645 117.291 211.298 117.092 210.505 116.762L209.679 116.415C208.242 115.82 207.564 115.193 207.564 114.053C207.564 112.599 208.77 111.707 210.422 111.707C211.595 111.707 212.52 112.12 213.231 112.963L212.289 114.036C211.777 113.508 211.1 113.21 210.389 113.21C209.712 113.21 209.282 113.475 209.282 113.987C209.282 114.4 209.563 114.615 210.356 114.945L211.133 115.259C212.669 115.903 213.346 116.564 213.346 117.704C213.346 118.48 213.065 119.091 212.487 119.537C211.909 119.967 211.199 120.182 210.34 120.182C208.952 120.182 207.796 119.554 207.069 118.612ZM226.139 107.61H227.89V120H226.271V118.844C225.676 119.686 224.635 120.182 223.429 120.182C221.15 120.182 219.465 118.348 219.465 115.953C219.415 113.59 221.183 111.657 223.429 111.707C224.553 111.707 225.527 112.137 226.139 112.88V107.61ZM226.172 115.953C226.172 114.202 224.982 113.293 223.727 113.293C222.339 113.293 221.232 114.383 221.232 115.936C221.232 117.489 222.289 118.596 223.727 118.596C224.999 118.596 226.172 117.72 226.172 115.953ZM237.7 116.514H231.654C231.869 117.836 232.909 118.645 234.297 118.645C235.14 118.645 235.933 118.331 236.659 117.687L237.485 118.877C236.56 119.752 235.486 120.182 234.247 120.182C231.77 120.182 229.886 118.348 229.886 115.953C229.837 113.623 231.786 111.657 234.082 111.707C236.23 111.707 237.832 113.309 237.832 115.424C237.832 115.771 237.783 116.134 237.7 116.514ZM231.687 115.16H236.098C236.081 113.921 235.156 113.177 234.016 113.177C232.876 113.177 231.951 113.954 231.687 115.16ZM249.6 111.889H251.45L247.535 120.182H246.94L243.008 111.889H244.858L247.237 117.258L249.6 111.889ZM252.182 115.936C252.132 113.607 254.131 111.674 256.46 111.707C258.823 111.657 260.822 113.64 260.772 115.936C260.822 118.232 258.823 120.231 256.46 120.182C254.131 120.231 252.132 118.232 252.182 115.936ZM258.988 115.953C258.988 114.449 257.881 113.293 256.477 113.293C255.04 113.293 253.949 114.449 253.949 115.953C253.949 117.456 255.04 118.579 256.46 118.579C257.898 118.579 258.988 117.423 258.988 115.953ZM267.584 118.53V120C267.039 120.116 266.56 120.182 266.147 120.182C264.28 120.182 263.157 119.257 263.157 117.357V113.392H261.835V111.889H263.157V109.758H264.908V111.889H267.32V113.392H264.908V117.208C264.908 118.249 265.453 118.612 266.511 118.612C266.758 118.612 267.105 118.579 267.584 118.53ZM273.985 111.889V113.425H273.456C272.085 113.425 271.077 114.235 271.077 115.672V120H269.343V111.889H270.962V112.946C271.54 112.219 272.399 111.806 273.324 111.806C273.572 111.806 273.787 111.839 273.985 111.889ZM282.678 116.514H276.632C276.847 117.836 277.887 118.645 279.275 118.645C280.118 118.645 280.911 118.331 281.637 117.687L282.463 118.877C281.538 119.752 280.464 120.182 279.225 120.182C276.747 120.182 274.864 118.348 274.864 115.953C274.815 113.623 276.764 111.657 279.06 111.707C281.208 111.707 282.81 113.309 282.81 115.424C282.81 115.771 282.761 116.134 282.678 116.514ZM276.665 115.16H281.076C281.059 113.921 280.134 113.177 278.994 113.177C277.854 113.177 276.929 113.954 276.665 115.16ZM296.515 114.928V120H294.78V115.176C294.78 114.053 294.087 113.293 293.013 113.293C291.939 113.293 291.163 114.069 291.163 115.176V120H289.428V107.61H291.163V112.698C291.708 112.054 292.534 111.707 293.508 111.707C295.359 111.707 296.515 113.012 296.515 114.928ZM298.418 115.936C298.368 113.607 300.367 111.674 302.697 111.707C305.059 111.657 307.058 113.64 307.008 115.936C307.058 118.232 305.059 120.231 302.697 120.182C300.367 120.231 298.368 118.232 298.418 115.936ZM305.224 115.953C305.224 114.449 304.117 113.293 302.713 113.293C301.276 113.293 300.186 114.449 300.186 115.953C300.186 117.456 301.276 118.579 302.697 118.579C304.134 118.579 305.224 117.423 305.224 115.953ZM313.639 111.889V113.425H313.11C311.739 113.425 310.731 114.235 310.731 115.672V120H308.997V111.889H310.616V112.946C311.194 112.219 312.053 111.806 312.978 111.806C313.226 111.806 313.441 111.839 313.639 111.889ZM321.473 115.094V120H319.854V119.091C319.26 119.802 318.368 120.182 317.261 120.182C315.559 120.182 314.436 119.24 314.436 117.836C314.436 116.432 315.592 115.523 317.426 115.523H319.722V114.994C319.722 113.871 319.094 113.26 317.988 113.26C317.079 113.26 316.418 113.656 315.741 114.466L314.733 113.442C315.543 112.269 316.749 111.707 318.153 111.707C320.152 111.707 321.473 112.913 321.473 115.094ZM319.722 116.927V116.779H317.641C316.716 116.779 316.203 117.109 316.203 117.77C316.203 118.447 316.782 118.844 317.624 118.844C318.797 118.844 319.722 118.034 319.722 116.927ZM323.887 120V111.889H325.622V120H323.887ZM323.574 108.866C323.574 108.221 324.102 107.709 324.763 107.709C325.407 107.709 325.936 108.221 325.936 108.866C325.936 109.51 325.407 110.005 324.763 110.005C324.102 110.005 323.574 109.51 323.574 108.866ZM332.772 111.889V113.425H332.244C330.873 113.425 329.865 114.235 329.865 115.672V120H328.13V111.889H329.749V112.946C330.327 112.219 331.186 111.806 332.112 111.806C332.359 111.806 332.574 111.839 332.772 111.889ZM341.466 116.514H335.419C335.634 117.836 336.675 118.645 338.063 118.645C338.905 118.645 339.698 118.331 340.425 117.687L341.251 118.877C340.326 119.752 339.252 120.182 338.013 120.182C335.535 120.182 333.652 118.348 333.652 115.953C333.602 113.623 335.552 111.657 337.848 111.707C339.995 111.707 341.598 113.309 341.598 115.424C341.598 115.771 341.548 116.134 341.466 116.514ZM335.452 115.16H339.863C339.847 113.921 338.922 113.177 337.782 113.177C336.642 113.177 335.717 113.954 335.452 115.16ZM34.4174 128.61H36.1685V141H34.5496V139.844C33.9549 140.686 32.9141 141.182 31.7082 141.182C29.4284 141.182 27.7434 139.348 27.7434 136.953C27.6938 134.59 29.4615 132.657 31.7082 132.707C32.8315 132.707 33.8062 133.137 34.4174 133.88V128.61ZM34.4505 136.953C34.4505 135.202 33.261 134.293 32.0055 134.293C30.6179 134.293 29.511 135.383 29.511 136.936C29.511 138.489 30.5683 139.596 32.0055 139.596C33.2776 139.596 34.4505 138.72 34.4505 136.953ZM45.979 137.514H39.9328C40.1475 138.836 41.1883 139.645 42.5759 139.645C43.4185 139.645 44.2114 139.331 44.9383 138.687L45.7643 139.877C44.8392 140.752 43.7654 141.182 42.5264 141.182C40.0484 141.182 38.1651 139.348 38.1651 136.953C38.1156 134.623 40.0649 132.657 42.3612 132.707C44.5088 132.707 46.1112 134.309 46.1112 136.424C46.1112 136.771 46.0616 137.134 45.979 137.514ZM39.9658 136.16H44.3766C44.3601 134.921 43.435 134.177 42.2951 134.177C41.1552 134.177 40.2301 134.954 39.9658 136.16ZM61.154 136.936C61.154 139.365 59.4689 141.182 57.1727 141.182C56.0659 141.182 55.1077 140.752 54.4634 140.009V143.974H52.7288V132.889H54.3478V134.029C54.9425 133.186 55.9833 132.707 57.1727 132.707C59.4689 132.707 61.154 134.541 61.154 136.936ZM59.3698 136.953C59.3698 135.4 58.296 134.293 56.8918 134.293C55.6198 134.293 54.4469 135.168 54.4469 136.936C54.4469 138.72 55.6198 139.596 56.8918 139.596C58.2795 139.596 59.3698 138.505 59.3698 136.953ZM67.7927 132.889V134.425H67.264C65.8929 134.425 64.8852 135.235 64.8852 136.672V141H63.1506V132.889H64.7695V133.946C65.3477 133.219 66.2067 132.806 67.1319 132.806C67.3797 132.806 67.5944 132.839 67.7927 132.889ZM69.3455 141V132.889H71.0801V141H69.3455ZM69.0316 129.866C69.0316 129.221 69.5603 128.709 70.2211 128.709C70.8654 128.709 71.394 129.221 71.394 129.866C71.394 130.51 70.8654 131.005 70.2211 131.005C69.5603 131.005 69.0316 130.51 69.0316 129.866ZM72.8285 139.612L73.8197 138.522C74.5301 139.265 75.2404 139.678 76.0994 139.678C76.8428 139.678 77.4045 139.365 77.4045 138.77C77.4045 138.291 77.0576 138.092 76.2646 137.762L75.4387 137.415C74.0014 136.82 73.3241 136.193 73.3241 135.053C73.3241 133.599 74.5301 132.707 76.182 132.707C77.355 132.707 78.2801 133.12 78.9904 133.963L78.0488 135.036C77.5367 134.508 76.8594 134.21 76.149 134.21C75.4717 134.21 75.0422 134.475 75.0422 134.987C75.0422 135.4 75.323 135.615 76.116 135.945L76.8924 136.259C78.4288 136.903 79.1061 137.564 79.1061 138.704C79.1061 139.48 78.8252 140.091 78.247 140.537C77.6688 140.967 76.9585 141.182 76.0994 141.182C74.7118 141.182 73.5554 140.554 72.8285 139.612ZM88.4081 137.514H82.3618C82.5765 138.836 83.6173 139.645 85.005 139.645C85.8475 139.645 86.6404 139.331 87.3673 138.687L88.1933 139.877C87.2682 140.752 86.1944 141.182 84.9554 141.182C82.4774 141.182 80.5941 139.348 80.5941 136.953C80.5446 134.623 82.4939 132.657 84.7902 132.707C86.9378 132.707 88.5402 134.309 88.5402 136.424C88.5402 136.771 88.4907 137.134 88.4081 137.514ZM82.3948 136.16H86.8056C86.7891 134.921 85.864 134.177 84.7241 134.177C83.5842 134.177 82.6591 134.954 82.3948 136.16ZM90.2965 139.91C90.2965 139.183 90.8747 138.621 91.6016 138.621C92.3284 138.621 92.8736 139.166 92.8736 139.91C92.8736 140.637 92.3284 141.182 91.6016 141.182C90.8747 141.182 90.2965 140.637 90.2965 139.91ZM99.9036 141V130.097H103.885C106.082 130.097 107.585 131.468 107.585 133.434C107.585 135.383 106.082 136.787 103.885 136.787H101.655V141H99.9036ZM101.655 135.235H103.852C105.091 135.235 105.785 134.524 105.785 133.45C105.785 132.377 105.091 131.65 103.852 131.65H101.655V135.235ZM109.419 141V128.61H111.154V141H109.419ZM120.105 136.094V141H118.486V140.091C117.891 140.802 116.999 141.182 115.892 141.182C114.191 141.182 113.067 140.24 113.067 138.836C113.067 137.432 114.224 136.523 116.057 136.523H118.354V135.994C118.354 134.871 117.726 134.26 116.619 134.26C115.711 134.26 115.05 134.656 114.372 135.466L113.365 134.442C114.174 133.269 115.38 132.707 116.784 132.707C118.783 132.707 120.105 133.913 120.105 136.094ZM118.354 137.927V137.779H116.272C115.347 137.779 114.835 138.109 114.835 138.77C114.835 139.447 115.413 139.844 116.256 139.844C117.429 139.844 118.354 139.034 118.354 137.927ZM122.007 136.936C121.957 134.607 123.973 132.674 126.302 132.707C127.805 132.707 129.011 133.417 129.722 134.59L128.499 135.548C127.921 134.722 127.194 134.309 126.319 134.309C124.865 134.309 123.774 135.466 123.774 136.936C123.774 138.423 124.865 139.579 126.319 139.579C127.178 139.579 127.904 139.166 128.499 138.357L129.722 139.298C128.995 140.471 127.772 141.182 126.302 141.182C123.907 141.182 122.007 139.298 122.007 136.936ZM138.774 137.514H132.728C132.943 138.836 133.984 139.645 135.371 139.645C136.214 139.645 137.007 139.331 137.734 138.687L138.56 139.877C137.635 140.752 136.561 141.182 135.322 141.182C132.844 141.182 130.96 139.348 130.96 136.953C130.911 134.623 132.86 132.657 135.157 132.707C137.304 132.707 138.907 134.309 138.907 136.424C138.907 136.771 138.857 137.134 138.774 137.514ZM132.761 136.16H137.172C137.155 134.921 136.23 134.177 135.09 134.177C133.951 134.177 133.025 134.954 132.761 136.16ZM142.596 139.497H146.891V141H140.002V140.521L144.248 134.392H140.382V132.889H146.858V133.384L142.596 139.497ZM148.063 136.49V135.02H152.127V136.49H148.063ZM154.187 141V128.61H155.922V141H154.187ZM165.732 137.514H159.686C159.901 138.836 160.941 139.645 162.329 139.645C163.172 139.645 163.965 139.331 164.691 138.687L165.517 139.877C164.592 140.752 163.518 141.182 162.279 141.182C159.801 141.182 157.918 139.348 157.918 136.953C157.869 134.623 159.818 132.657 162.114 132.707C164.262 132.707 165.864 134.309 165.864 136.424C165.864 136.771 165.815 137.134 165.732 137.514ZM159.719 136.16H164.13C164.113 134.921 163.188 134.177 162.048 134.177C160.908 134.177 159.983 134.954 159.719 136.16ZM178.644 128.61H180.395V141H178.776V139.844C178.181 140.686 177.141 141.182 175.935 141.182C173.655 141.182 171.97 139.348 171.97 136.953C171.92 134.59 173.688 132.657 175.935 132.707C177.058 132.707 178.033 133.137 178.644 133.88V128.61ZM178.677 136.953C178.677 135.202 177.487 134.293 176.232 134.293C174.844 134.293 173.737 135.383 173.737 136.936C173.737 138.489 174.795 139.596 176.232 139.596C177.504 139.596 178.677 138.72 178.677 136.953ZM189.346 136.094V141H187.727V140.091C187.133 140.802 186.241 141.182 185.134 141.182C183.432 141.182 182.309 140.24 182.309 138.836C182.309 137.432 183.465 136.523 185.299 136.523H187.595V135.994C187.595 134.871 186.968 134.26 185.861 134.26C184.952 134.26 184.291 134.656 183.614 135.466L182.606 134.442C183.416 133.269 184.622 132.707 186.026 132.707C188.025 132.707 189.346 133.913 189.346 136.094ZM187.595 137.927V137.779H185.514C184.589 137.779 184.077 138.109 184.077 138.77C184.077 139.447 184.655 139.844 185.497 139.844C186.67 139.844 187.595 139.034 187.595 137.927ZM198.848 135.928V141H197.113V136.16C197.113 135.036 196.403 134.276 195.345 134.276C194.272 134.276 193.495 135.053 193.495 136.16V141H191.761V132.889H193.379V133.682C193.991 133.037 194.8 132.707 195.808 132.707C197.708 132.707 198.848 133.996 198.848 135.928ZM200.503 139.612L201.494 138.522C202.204 139.265 202.915 139.678 203.774 139.678C204.517 139.678 205.079 139.365 205.079 138.77C205.079 138.291 204.732 138.092 203.939 137.762L203.113 137.415C201.676 136.82 200.998 136.193 200.998 135.053C200.998 133.599 202.204 132.707 203.856 132.707C205.029 132.707 205.954 133.12 206.665 133.963L205.723 135.036C205.211 134.508 204.534 134.21 203.823 134.21C203.146 134.21 202.716 134.475 202.716 134.987C202.716 135.4 202.997 135.615 203.79 135.945L204.567 136.259C206.103 136.903 206.78 137.564 206.78 138.704C206.78 139.48 206.499 140.091 205.921 140.537C205.343 140.967 204.633 141.182 203.774 141.182C202.386 141.182 201.23 140.554 200.503 139.612ZM213.411 141V128.61H215.145V141H213.411ZM224.096 136.094V141H222.477V140.091C221.883 140.802 220.991 141.182 219.884 141.182C218.182 141.182 217.059 140.24 217.059 138.836C217.059 137.432 218.215 136.523 220.049 136.523H222.345V135.994C222.345 134.871 221.717 134.26 220.611 134.26C219.702 134.26 219.041 134.656 218.364 135.466L217.356 134.442C218.166 133.269 219.372 132.707 220.776 132.707C222.775 132.707 224.096 133.913 224.096 136.094ZM222.345 137.927V137.779H220.264C219.339 137.779 218.826 138.109 218.826 138.77C218.826 139.447 219.405 139.844 220.247 139.844C221.42 139.844 222.345 139.034 222.345 137.927ZM239.566 136.936C239.566 139.365 237.881 141.182 235.584 141.182C234.477 141.182 233.519 140.752 232.875 140.009V143.974H231.14V132.889H232.759V134.029C233.354 133.186 234.395 132.707 235.584 132.707C237.881 132.707 239.566 134.541 239.566 136.936ZM237.781 136.953C237.781 135.4 236.708 134.293 235.303 134.293C234.031 134.293 232.859 135.168 232.859 136.936C232.859 138.72 234.031 139.596 235.303 139.596C236.691 139.596 237.781 138.505 237.781 136.953ZM241.562 141V132.889H243.297V141H241.562ZM241.248 129.866C241.248 129.221 241.777 128.709 242.438 128.709C243.082 128.709 243.611 129.221 243.611 129.866C243.611 130.51 243.082 131.005 242.438 131.005C241.777 131.005 241.248 130.51 241.248 129.866ZM253.107 137.514H247.061C247.275 138.836 248.316 139.645 249.704 139.645C250.546 139.645 251.339 139.331 252.066 138.687L252.892 139.877C251.967 140.752 250.893 141.182 249.654 141.182C247.176 141.182 245.293 139.348 245.293 136.953C245.243 134.623 247.193 132.657 249.489 132.707C251.637 132.707 253.239 134.309 253.239 136.424C253.239 136.771 253.189 137.134 253.107 137.514ZM247.094 136.16H251.504C251.488 134.921 250.563 134.177 249.423 134.177C248.283 134.177 247.358 134.954 247.094 136.16ZM248.828 131.617L246.697 128.428V128.114H248.812L250.117 131.617H248.828ZM254.714 136.936C254.665 134.607 256.68 132.674 259.01 132.707C260.513 132.707 261.719 133.417 262.429 134.59L261.207 135.548C260.629 134.722 259.902 134.309 259.026 134.309C257.572 134.309 256.482 135.466 256.482 136.936C256.482 138.423 257.572 139.579 259.026 139.579C259.885 139.579 260.612 139.166 261.207 138.357L262.429 139.298C261.702 140.471 260.48 141.182 259.01 141.182C256.614 141.182 254.714 139.298 254.714 136.936ZM271.482 137.514H265.436C265.651 138.836 266.691 139.645 268.079 139.645C268.921 139.645 269.714 139.331 270.441 138.687L271.267 139.877C270.342 140.752 269.268 141.182 268.029 141.182C265.551 141.182 263.668 139.348 263.668 136.953C263.619 134.623 265.568 132.657 267.864 132.707C270.012 132.707 271.614 134.309 271.614 136.424C271.614 136.771 271.565 137.134 271.482 137.514ZM265.469 136.16H269.88C269.863 134.921 268.938 134.177 267.798 134.177C266.658 134.177 265.733 134.954 265.469 136.16ZM277.72 136.936C277.67 134.607 279.669 132.674 281.998 132.707C284.361 132.657 286.36 134.64 286.31 136.936C286.36 139.232 284.361 141.231 281.998 141.182C279.669 141.231 277.67 139.232 277.72 136.936ZM284.526 136.953C284.526 135.449 283.419 134.293 282.015 134.293C280.578 134.293 279.487 135.449 279.487 136.953C279.487 138.456 280.578 139.579 281.998 139.579C283.436 139.579 284.526 138.423 284.526 136.953ZM288.216 137.597V132.889H289.934V137.729C289.934 138.852 290.711 139.579 291.768 139.579C292.776 139.579 293.552 138.852 293.552 137.729V132.889H295.287V137.597C295.287 139.778 293.75 141.182 291.768 141.182C289.736 141.182 288.216 139.778 288.216 137.597ZM291.107 131.617L288.976 128.428V128.114H291.09L292.396 131.617H291.107ZM307.5 132.889H309.35L305.435 141.182H304.84L300.908 132.889H302.759L305.138 138.258L307.5 132.889ZM310.082 136.936C310.032 134.607 312.031 132.674 314.361 132.707C316.723 132.657 318.722 134.64 318.672 136.936C318.722 139.232 316.723 141.231 314.361 141.182C312.031 141.231 310.032 139.232 310.082 136.936ZM316.888 136.953C316.888 135.449 315.781 134.293 314.377 134.293C312.94 134.293 311.85 135.449 311.85 136.953C311.85 138.456 312.94 139.579 314.361 139.579C315.798 139.579 316.888 138.423 316.888 136.953ZM320.578 137.597V132.889H322.296V137.729C322.296 138.852 323.073 139.579 324.13 139.579C325.138 139.579 325.914 138.852 325.914 137.729V132.889H327.649V137.597C327.649 139.778 326.112 141.182 324.13 141.182C322.098 141.182 320.578 139.778 320.578 137.597ZM329.322 139.612L330.314 138.522C331.024 139.265 331.734 139.678 332.593 139.678C333.337 139.678 333.898 139.365 333.898 138.77C333.898 138.291 333.552 138.092 332.759 137.762L331.933 137.415C330.495 136.82 329.818 136.193 329.818 135.053C329.818 133.599 331.024 132.707 332.676 132.707C333.849 132.707 334.774 133.12 335.484 133.963L334.543 135.036C334.031 134.508 333.353 134.21 332.643 134.21C331.966 134.21 331.536 134.475 331.536 134.987C331.536 135.4 331.817 135.615 332.61 135.945L333.386 136.259C334.923 136.903 335.6 137.564 335.6 138.704C335.6 139.48 335.319 140.091 334.741 140.537C334.163 140.967 333.452 141.182 332.593 141.182C331.206 141.182 330.049 140.554 329.322 139.612ZM34.6983 157.094V162H33.0793V161.091C32.4846 161.802 31.5925 162.182 30.4857 162.182C28.7841 162.182 27.6608 161.24 27.6608 159.836C27.6608 158.432 28.8172 157.523 30.6509 157.523H32.9472V156.994C32.9472 155.871 32.3194 155.26 31.2126 155.26C30.304 155.26 29.6432 155.656 28.9659 156.466L27.9582 155.442C28.7676 154.269 29.9736 153.707 31.3778 153.707C33.3767 153.707 34.6983 154.913 34.6983 157.094ZM32.9472 158.927V158.779H30.8657C29.9405 158.779 29.4284 159.109 29.4284 159.77C29.4284 160.447 30.0066 160.844 30.8491 160.844C32.022 160.844 32.9472 160.034 32.9472 158.927ZM42.4395 153.889H44.2897L40.3745 162.182H39.7798L35.8481 153.889H37.6983L40.0772 159.258L42.4395 153.889ZM52.8354 158.514H46.7892C47.0039 159.836 48.0447 160.645 49.4323 160.645C50.2749 160.645 51.0678 160.331 51.7947 159.687L52.6207 160.877C51.6956 161.752 50.6218 162.182 49.3828 162.182C46.9048 162.182 45.0215 160.348 45.0215 157.953C44.972 155.623 46.9213 153.657 49.2176 153.707C51.3652 153.707 52.9676 155.309 52.9676 157.424C52.9676 157.771 52.918 158.134 52.8354 158.514ZM46.8222 157.16H51.233C51.2165 155.921 50.2914 155.177 49.1515 155.177C48.0116 155.177 47.0865 155.954 46.8222 157.16ZM56.6567 160.497H60.9519V162H54.0631V161.521L58.3087 155.392H54.443V153.889H60.9188V154.384L56.6567 160.497ZM67.1999 162V149.61H68.9345V162H67.1999ZM71.6575 155.524L71.8062 151.097H73.8051L72.9956 155.524H71.6575ZM83.3374 156.928V162H81.6028V157.176C81.6028 156.053 80.9089 155.293 79.8351 155.293C78.7613 155.293 77.9849 156.069 77.9849 157.176V162H76.2503V149.61H77.9849V154.698C78.5301 154.054 79.3561 153.707 80.3307 153.707C82.181 153.707 83.3374 155.012 83.3374 156.928ZM92.1952 157.094V162H90.5763V161.091C89.9816 161.802 89.0895 162.182 87.9827 162.182C86.2811 162.182 85.1578 161.24 85.1578 159.836C85.1578 158.432 86.3142 157.523 88.1479 157.523H90.4441V156.994C90.4441 155.871 89.8164 155.26 88.7095 155.26C87.801 155.26 87.1402 155.656 86.4628 156.466L85.4551 155.442C86.2646 154.269 87.4706 153.707 88.8747 153.707C90.8737 153.707 92.1952 154.913 92.1952 157.094ZM90.4441 158.927V158.779H88.3626C87.4375 158.779 86.9254 159.109 86.9254 159.77C86.9254 160.447 87.5036 160.844 88.3461 160.844C89.519 160.844 90.4441 160.034 90.4441 158.927ZM103.034 157.953C103.034 160.348 101.333 162.182 99.0697 162.182C97.8803 162.182 96.8395 161.719 96.2283 160.877V162H94.6093V149.61H96.3439V154.88C96.9552 154.137 97.9298 153.707 99.0532 153.707C101.349 153.707 103.034 155.541 103.034 157.953ZM101.25 157.936C101.25 156.383 100.16 155.293 98.7724 155.293C97.5003 155.293 96.3274 156.168 96.3274 157.953C96.3274 159.72 97.5003 160.596 98.7724 160.596C100.177 160.596 101.25 159.489 101.25 157.936ZM105.031 162V153.889H106.766V162H105.031ZM104.717 150.866C104.717 150.221 105.246 149.709 105.907 149.709C106.551 149.709 107.08 150.221 107.08 150.866C107.08 151.51 106.551 152.005 105.907 152.005C105.246 152.005 104.717 151.51 104.717 150.866ZM114.098 160.53V162C113.553 162.116 113.074 162.182 112.661 162.182C110.794 162.182 109.67 161.257 109.67 159.357V155.392H108.349V153.889H109.67V151.758H111.422V153.889H113.833V155.392H111.422V159.208C111.422 160.249 111.967 160.612 113.024 160.612C113.272 160.612 113.619 160.579 114.098 160.53ZM115.774 158.597V153.889H117.492V158.729C117.492 159.852 118.268 160.579 119.325 160.579C120.333 160.579 121.109 159.852 121.109 158.729V153.889H122.844V158.597C122.844 160.778 121.308 162.182 119.325 162.182C117.293 162.182 115.774 160.778 115.774 158.597ZM131.44 149.61H133.191V162H131.572V160.844C130.977 161.686 129.936 162.182 128.73 162.182C126.451 162.182 124.766 160.348 124.766 157.953C124.716 155.59 126.484 153.657 128.73 153.707C129.854 153.707 130.828 154.137 131.44 154.88V149.61ZM131.473 157.953C131.473 156.202 130.283 155.293 129.028 155.293C127.64 155.293 126.533 156.383 126.533 157.936C126.533 159.489 127.59 160.596 129.028 160.596C130.3 160.596 131.473 159.72 131.473 157.953ZM143.001 158.514H136.955C137.17 159.836 138.21 160.645 139.598 160.645C140.441 160.645 141.234 160.331 141.96 159.687L142.786 160.877C141.861 161.752 140.787 162.182 139.548 162.182C137.071 162.182 135.187 160.348 135.187 157.953C135.138 155.623 137.087 153.657 139.383 153.707C141.531 153.707 143.133 155.309 143.133 157.424C143.133 157.771 143.084 158.134 143.001 158.514ZM136.988 157.16H141.399C141.382 155.921 140.457 155.177 139.317 155.177C138.177 155.177 137.252 155.954 136.988 157.16ZM155.913 149.61H157.664V162H156.045V160.844C155.45 161.686 154.41 162.182 153.204 162.182C150.924 162.182 149.239 160.348 149.239 157.953C149.189 155.59 150.957 153.657 153.204 153.707C154.327 153.707 155.302 154.137 155.913 154.88V149.61ZM155.946 157.953C155.946 156.202 154.756 155.293 153.501 155.293C152.113 155.293 151.006 156.383 151.006 157.936C151.006 159.489 152.064 160.596 153.501 160.596C154.773 160.596 155.946 159.72 155.946 157.953ZM160.387 155.524L160.536 151.097H162.535L161.726 155.524H160.387ZM171.879 158.514H165.832C166.047 159.836 167.088 160.645 168.476 160.645C169.318 160.645 170.111 160.331 170.838 159.687L171.664 160.877C170.739 161.752 169.665 162.182 168.426 162.182C165.948 162.182 164.065 160.348 164.065 157.953C164.015 155.623 165.965 153.657 168.261 153.707C170.408 153.707 172.011 155.309 172.011 157.424C172.011 157.771 171.961 158.134 171.879 158.514ZM165.865 157.16H170.276C170.26 155.921 169.335 155.177 168.195 155.177C167.055 155.177 166.13 155.954 165.865 157.16ZM171.02 152.617H169.731L168.244 150.816L166.741 152.617H165.436L167.683 149.114H168.789L171.02 152.617ZM178.822 160.53V162C178.277 162.116 177.798 162.182 177.385 162.182C175.518 162.182 174.395 161.257 174.395 159.357V155.392H173.073V153.889H174.395V151.758H176.146V153.889H178.558V155.392H176.146V159.208C176.146 160.249 176.691 160.612 177.748 160.612C177.996 160.612 178.343 160.579 178.822 160.53ZM185.223 153.889V155.425H184.694C183.323 155.425 182.315 156.235 182.315 157.672V162H180.581V153.889H182.2V154.946C182.778 154.219 183.637 153.806 184.562 153.806C184.81 153.806 185.024 153.839 185.223 153.889ZM193.916 158.514H187.87C188.084 159.836 189.125 160.645 190.513 160.645C191.355 160.645 192.148 160.331 192.875 159.687L193.701 160.877C192.776 161.752 191.702 162.182 190.463 162.182C187.985 162.182 186.102 160.348 186.102 157.953C186.053 155.623 188.002 153.657 190.298 153.707C192.446 153.707 194.048 155.309 194.048 157.424C194.048 157.771 193.999 158.134 193.916 158.514ZM187.903 157.16H192.314C192.297 155.921 191.372 155.177 190.232 155.177C189.092 155.177 188.167 155.954 187.903 157.16ZM207.109 157.094V162H205.49V161.091C204.895 161.802 204.003 162.182 202.896 162.182C201.194 162.182 200.071 161.24 200.071 159.836C200.071 158.432 201.227 157.523 203.061 157.523H205.357V156.994C205.357 155.871 204.73 155.26 203.623 155.26C202.714 155.26 202.053 155.656 201.376 156.466L200.368 155.442C201.178 154.269 202.384 153.707 203.788 153.707C205.787 153.707 207.109 154.913 207.109 157.094ZM205.357 158.927V158.779H203.276C202.351 158.779 201.839 159.109 201.839 159.77C201.839 160.447 202.417 160.844 203.259 160.844C204.432 160.844 205.357 160.034 205.357 158.927ZM209.44 158.597V153.889H211.158V158.729C211.158 159.852 211.935 160.579 212.992 160.579C214 160.579 214.776 159.852 214.776 158.729V153.889H216.511V158.597C216.511 160.778 214.974 162.182 212.992 162.182C210.96 162.182 209.44 160.778 209.44 158.597ZM225.932 162H223.95L221.918 159.026L219.902 162H217.92L220.927 157.787L218.135 153.889H220.117L221.934 156.565L223.735 153.889H225.717L222.909 157.804L225.932 162ZM239.147 156.928V162H237.412V157.176C237.412 156.053 236.719 155.293 235.645 155.293C234.571 155.293 233.795 156.069 233.795 157.176V162H232.06V149.61H233.795V154.698C234.34 154.054 235.166 153.707 236.14 153.707C237.991 153.707 239.147 155.012 239.147 156.928ZM241.05 157.936C241.001 155.607 242.999 153.674 245.329 153.707C247.691 153.657 249.69 155.64 249.64 157.936C249.69 160.232 247.691 162.231 245.329 162.182C242.999 162.231 241.001 160.232 241.05 157.936ZM247.856 157.953C247.856 156.449 246.749 155.293 245.345 155.293C243.908 155.293 242.818 156.449 242.818 157.953C242.818 159.456 243.908 160.579 245.329 160.579C246.766 160.579 247.856 159.423 247.856 157.953ZM256.271 153.889V155.425H255.742C254.371 155.425 253.364 156.235 253.364 157.672V162H251.629V153.889H253.248V154.946C253.826 154.219 254.685 153.806 255.61 153.806C255.858 153.806 256.073 153.839 256.271 153.889ZM264.105 157.094V162H262.486V161.091C261.892 161.802 261 162.182 259.893 162.182C258.191 162.182 257.068 161.24 257.068 159.836C257.068 158.432 258.224 157.523 260.058 157.523H262.354V156.994C262.354 155.871 261.727 155.26 260.62 155.26C259.711 155.26 259.05 155.656 258.373 156.466L257.365 155.442C258.175 154.269 259.381 153.707 260.785 153.707C262.784 153.707 264.105 154.913 264.105 157.094ZM262.354 158.927V158.779H260.273C259.348 158.779 258.836 159.109 258.836 159.77C258.836 160.447 259.414 160.844 260.256 160.844C261.429 160.844 262.354 160.034 262.354 158.927ZM266.519 162V153.889H268.254V162H266.519ZM266.206 150.866C266.206 150.221 266.734 149.709 267.395 149.709C268.039 149.709 268.568 150.221 268.568 150.866C268.568 151.51 268.039 152.005 267.395 152.005C266.734 152.005 266.206 151.51 266.206 150.866ZM275.404 153.889V155.425H274.876C273.505 155.425 272.497 156.235 272.497 157.672V162H270.762V153.889H272.381V154.946C272.96 154.219 273.819 153.806 274.744 153.806C274.991 153.806 275.206 153.839 275.404 153.889ZM284.098 158.514H278.052C278.266 159.836 279.307 160.645 280.695 160.645C281.537 160.645 282.33 160.331 283.057 159.687L283.883 160.877C282.958 161.752 281.884 162.182 280.645 162.182C278.167 162.182 276.284 160.348 276.284 157.953C276.234 155.623 278.184 153.657 280.48 153.707C282.628 153.707 284.23 155.309 284.23 157.424C284.23 157.771 284.18 158.134 284.098 158.514ZM278.085 157.16H282.495C282.479 155.921 281.554 155.177 280.414 155.177C279.274 155.177 278.349 155.954 278.085 157.16ZM285.458 160.612L286.449 159.522C287.159 160.265 287.87 160.678 288.729 160.678C289.472 160.678 290.034 160.365 290.034 159.77C290.034 159.291 289.687 159.092 288.894 158.762L288.068 158.415C286.631 157.82 285.953 157.193 285.953 156.053C285.953 154.599 287.159 153.707 288.811 153.707C289.984 153.707 290.909 154.12 291.62 154.963L290.678 156.036C290.166 155.508 289.488 155.21 288.778 155.21C288.101 155.21 287.671 155.475 287.671 155.987C287.671 156.4 287.952 156.615 288.745 156.945L289.521 157.259C291.058 157.903 291.735 158.564 291.735 159.704C291.735 160.48 291.454 161.091 290.876 161.537C290.298 161.967 289.588 162.182 288.729 162.182C287.341 162.182 286.184 161.554 285.458 160.612ZM304.527 149.61H306.278V162H304.66V160.844C304.065 161.686 303.024 162.182 301.818 162.182C299.538 162.182 297.853 160.348 297.853 157.953C297.804 155.59 299.571 153.657 301.818 153.707C302.941 153.707 303.916 154.137 304.527 154.88V149.61ZM304.56 157.953C304.56 156.202 303.371 155.293 302.115 155.293C300.728 155.293 299.621 156.383 299.621 157.936C299.621 159.489 300.678 160.596 302.115 160.596C303.388 160.596 304.56 159.72 304.56 157.953ZM316.089 158.514H310.043C310.257 159.836 311.298 160.645 312.686 160.645C313.528 160.645 314.321 160.331 315.048 159.687L315.874 160.877C314.949 161.752 313.875 162.182 312.636 162.182C310.158 162.182 308.275 160.348 308.275 157.953C308.226 155.623 310.175 153.657 312.471 153.707C314.619 153.707 316.221 155.309 316.221 157.424C316.221 157.771 316.172 158.134 316.089 158.514ZM310.076 157.16H314.487C314.47 155.921 313.545 155.177 312.405 155.177C311.265 155.177 310.34 155.954 310.076 157.16ZM36.6807 178.936C36.6807 181.365 34.9956 183.182 32.6994 183.182C31.5925 183.182 30.6344 182.752 29.9901 182.009V185.974H28.2555V174.889H29.8745V176.029C30.4692 175.186 31.5099 174.707 32.6994 174.707C34.9956 174.707 36.6807 176.541 36.6807 178.936ZM34.8965 178.953C34.8965 177.4 33.8227 176.293 32.4185 176.293C31.1465 176.293 29.9736 177.168 29.9736 178.936C29.9736 180.72 31.1465 181.596 32.4185 181.596C33.8062 181.596 34.8965 180.505 34.8965 178.953ZM43.3193 174.889V176.425H42.7907C41.4195 176.425 40.4118 177.235 40.4118 178.672V183H38.6772V174.889H40.2962V175.946C40.8744 175.219 41.7334 174.806 42.6585 174.806C42.9063 174.806 43.1211 174.839 43.3193 174.889ZM44.8722 183V174.889H46.6068V183H44.8722ZM44.5583 171.866C44.5583 171.221 45.087 170.709 45.7478 170.709C46.392 170.709 46.9207 171.221 46.9207 171.866C46.9207 172.51 46.392 173.005 45.7478 173.005C45.087 173.005 44.5583 172.51 44.5583 171.866ZM48.3552 181.612L49.3464 180.522C50.0567 181.265 50.7671 181.678 51.6261 181.678C52.3695 181.678 52.9312 181.365 52.9312 180.77C52.9312 180.291 52.5843 180.092 51.7913 179.762L50.9653 179.415C49.5281 178.82 48.8508 178.193 48.8508 177.053C48.8508 175.599 50.0567 174.707 51.7087 174.707C52.8816 174.707 53.8068 175.12 54.5171 175.963L53.5755 177.036C53.0634 176.508 52.386 176.21 51.6757 176.21C50.9984 176.21 50.5689 176.475 50.5689 176.987C50.5689 177.4 50.8497 177.615 51.6426 177.945L52.4191 178.259C53.9554 178.903 54.6327 179.564 54.6327 180.704C54.6327 181.48 54.3519 182.091 53.7737 182.537C53.1955 182.967 52.4852 183.182 51.6261 183.182C50.2385 183.182 49.0821 182.554 48.3552 181.612ZM63.9347 179.514H57.8885C58.1032 180.836 59.144 181.645 60.5316 181.645C61.3742 181.645 62.1671 181.331 62.894 180.687L63.72 181.877C62.7949 182.752 61.7211 183.182 60.4821 183.182C58.0041 183.182 56.1208 181.348 56.1208 178.953C56.0713 176.623 58.0206 174.657 60.3169 174.707C62.4645 174.707 64.0669 176.309 64.0669 178.424C64.0669 178.771 64.0173 179.134 63.9347 179.514ZM57.9215 178.16H62.3323C62.3158 176.921 61.3907 176.177 60.2508 176.177C59.1109 176.177 58.1858 176.954 57.9215 178.16ZM65.2945 181.612L66.2857 180.522C66.9961 181.265 67.7064 181.678 68.5655 181.678C69.3089 181.678 69.8705 181.365 69.8705 180.77C69.8705 180.291 69.5236 180.092 68.7307 179.762L67.9047 179.415C66.4674 178.82 65.7901 178.193 65.7901 177.053C65.7901 175.599 66.9961 174.707 68.6481 174.707C69.821 174.707 70.7461 175.12 71.4565 175.963L70.5148 177.036C70.0027 176.508 69.3254 176.21 68.615 176.21C67.9377 176.21 67.5082 176.475 67.5082 176.987C67.5082 177.4 67.789 177.615 68.582 177.945L69.3584 178.259C70.8948 178.903 71.5721 179.564 71.5721 180.704C71.5721 181.48 71.2913 182.091 70.7131 182.537C70.1349 182.967 69.4245 183.182 68.5655 183.182C67.1778 183.182 66.0214 182.554 65.2945 181.612ZM73.341 181.91C73.341 181.183 73.9192 180.621 74.6461 180.621C75.373 180.621 75.9181 181.166 75.9181 181.91C75.9181 182.637 75.373 183.182 74.6461 183.182C73.9192 183.182 73.341 182.637 73.341 181.91Z" fill="#8BA0AC"/>
</svg>
