<svg width="173" height="170" viewBox="0 0 173 170" fill="none" xmlns="http://www.w3.org/2000/svg">
<rect width="173" height="169.018" rx="9.13613" fill="#F1F6F4"/>
<path d="M51.854 129.407H67.854V113.407H51.854V129.407ZM80.2584 117.727H82.6904L77.9864 128.479H77.2664L72.5464 117.727H74.9944L77.6344 124.127L80.2584 117.727ZM82.5874 124.319C82.5394 122.063 84.5074 120.143 86.8274 120.191C89.1474 120.159 91.1314 122.063 91.0834 124.319C91.1314 126.575 89.1314 128.511 86.8114 128.463C84.4914 128.511 82.5394 126.575 82.5874 124.319ZM88.8754 124.335C88.8754 123.103 87.9954 122.159 86.8274 122.159C85.6274 122.159 84.7794 123.071 84.7794 124.335C84.7794 125.567 85.6274 126.479 86.8274 126.479C87.9954 126.479 88.8754 125.567 88.8754 124.335ZM97.8578 126.479V128.287C97.3458 128.415 96.8498 128.479 96.3698 128.479C94.3698 128.479 93.2018 127.487 93.2018 125.503V122.191H91.9538V120.367H93.2018V118.367H95.3618V120.367H97.6018V122.191H95.3618V125.311C95.3618 126.207 95.8098 126.543 96.8338 126.543C96.9618 126.543 97.2978 126.527 97.8578 126.479ZM104.29 120.367V122.271H103.714C102.418 122.271 101.586 122.975 101.586 124.335V128.287H99.426V120.367H101.41V121.311C101.938 120.655 102.706 120.271 103.586 120.271C103.858 120.271 104.082 120.303 104.29 120.367ZM112.753 125.055H107.201C107.457 126.063 108.273 126.623 109.425 126.623C110.209 126.623 110.945 126.351 111.633 125.823L112.529 127.295C111.585 128.079 110.529 128.479 109.361 128.479C106.913 128.527 104.977 126.623 105.025 124.335C104.977 122.047 106.881 120.143 109.169 120.191C111.361 120.191 112.897 121.807 112.897 123.871C112.897 124.255 112.849 124.655 112.753 125.055ZM107.201 123.535H110.801C110.785 122.559 110.033 121.935 109.089 121.935C108.177 121.935 107.441 122.559 107.201 123.535ZM39.8686 144.319C39.8206 142.063 41.7886 140.143 44.1086 140.191C46.4286 140.159 48.4126 142.063 48.3646 144.319C48.4126 146.575 46.4126 148.511 44.0926 148.463C41.7726 148.511 39.8206 146.575 39.8686 144.319ZM46.1566 144.335C46.1566 143.103 45.2766 142.159 44.1086 142.159C42.9086 142.159 42.0606 143.071 42.0606 144.335C42.0606 145.567 42.9086 146.479 44.1086 146.479C45.2766 146.479 46.1566 145.567 46.1566 144.335ZM58.419 144.335C58.419 146.719 56.787 148.479 54.579 148.479C53.491 148.479 52.595 148.063 52.035 147.311V148.287H50.051V136.287H52.211V141.135C52.787 140.511 53.571 140.191 54.579 140.191C56.787 140.191 58.419 141.951 58.419 144.335ZM56.227 144.319C56.227 143.023 55.331 142.143 54.179 142.143C53.075 142.143 52.179 142.927 52.179 144.335C52.179 145.759 53.091 146.511 54.179 146.511C55.347 146.511 56.227 145.647 56.227 144.319ZM59.3935 146.943L60.4815 145.631C61.1695 146.351 61.9215 146.703 62.7055 146.703C63.2815 146.703 63.7135 146.479 63.7135 146.047C63.7135 145.711 63.4895 145.583 62.8975 145.327L62.0495 144.975C60.5935 144.383 59.8895 143.727 59.8895 142.559C59.8895 141.071 61.0735 140.191 62.8015 140.191C63.9855 140.191 64.9295 140.591 65.6495 141.375L64.5615 142.703C64.0335 142.207 63.4415 141.951 62.7855 141.951C62.2575 141.951 61.9375 142.143 61.9375 142.511C61.9375 142.815 62.1455 142.959 62.7695 143.215L63.5375 143.535C65.0735 144.159 65.7615 144.783 65.7615 145.951C65.7615 146.735 65.4735 147.359 64.8815 147.807C64.3055 148.255 63.5695 148.479 62.6735 148.479C61.2815 148.479 60.1135 147.903 59.3935 146.943ZM74.6748 145.055H69.1228C69.3788 146.063 70.1948 146.623 71.3468 146.623C72.1308 146.623 72.8668 146.351 73.5548 145.823L74.4508 147.295C73.5068 148.079 72.4508 148.479 71.2828 148.479C68.8348 148.527 66.8988 146.623 66.9468 144.335C66.8988 142.047 68.8028 140.143 71.0908 140.191C73.2828 140.191 74.8188 141.807 74.8188 143.871C74.8188 144.255 74.7708 144.655 74.6748 145.055ZM69.1228 143.535H72.7228C72.7068 142.559 71.9548 141.935 71.0108 141.935C70.0988 141.935 69.3628 142.559 69.1228 143.535ZM81.3681 140.367V142.271H80.7921C79.4961 142.271 78.6641 142.975 78.6641 144.335V148.287H76.5041V140.367H78.4881V141.311C79.0161 140.655 79.7841 140.271 80.6641 140.271C80.9361 140.271 81.1601 140.303 81.3681 140.367ZM88.0993 140.367H90.3873L86.4673 148.479H85.7473L81.8273 140.367H84.0993L86.0993 144.847L88.0993 140.367ZM97.9723 143.583V148.287H95.9883V147.519C95.4123 148.111 94.5803 148.479 93.5723 148.479C91.8923 148.479 90.8363 147.503 90.8363 146.111C90.8363 144.687 91.9883 143.807 93.8283 143.807H95.8123V143.455C95.8123 142.575 95.3003 142.063 94.3403 142.063C93.5243 142.063 92.9483 142.399 92.2443 143.151L91.1243 141.823C92.0363 140.735 93.1883 140.191 94.5803 140.191C96.6443 140.191 97.9723 141.391 97.9723 143.583ZM95.8123 145.327V145.231H94.1163C93.4123 145.231 93.0123 145.503 93.0123 146.031C93.0123 146.559 93.4603 146.895 94.1483 146.895C95.0923 146.895 95.8123 146.239 95.8123 145.327ZM107.331 143.375V148.287H105.187V143.663C105.187 142.751 104.595 142.127 103.715 142.127C102.835 142.127 102.211 142.751 102.211 143.663V148.287H100.051V140.367H102.035V141.087C102.595 140.527 103.411 140.191 104.355 140.191C106.195 140.191 107.331 141.455 107.331 143.375ZM108.962 144.319C108.962 141.999 110.85 140.191 113.202 140.191C114.754 140.191 115.954 140.927 116.642 142.143L115.138 143.311C114.642 142.591 114.066 142.159 113.234 142.159C112.018 142.159 111.154 143.087 111.154 144.319C111.154 145.583 112.018 146.495 113.234 146.495C114.05 146.495 114.626 146.079 115.138 145.359L116.642 146.511C115.954 147.727 114.738 148.479 113.202 148.479C110.882 148.527 108.93 146.607 108.962 144.319ZM125.362 145.055H119.81C120.066 146.063 120.882 146.623 122.034 146.623C122.818 146.623 123.554 146.351 124.242 145.823L125.138 147.295C124.194 148.079 123.138 148.479 121.97 148.479C119.522 148.527 117.586 146.623 117.634 144.335C117.586 142.047 119.49 140.143 121.778 140.191C123.97 140.191 125.506 141.807 125.506 143.871C125.506 144.255 125.458 144.655 125.362 145.055ZM119.81 143.535H123.41C123.394 142.559 122.642 141.935 121.698 141.935C120.786 141.935 120.05 142.559 119.81 143.535Z" fill="#03314B"/>
<path d="M83.1171 18.414C85.5199 17.0268 88.4801 17.0268 90.8829 18.414L119.852 35.1393C122.255 36.5265 123.735 39.0902 123.735 41.8646V75.3151C123.735 78.0895 122.255 80.6532 119.852 82.0404L90.8829 98.7656C88.4801 100.153 85.5199 100.153 83.1171 98.7656L54.1482 82.0404C51.7454 80.6532 50.2653 78.0895 50.2653 75.3151V41.8646C50.2653 39.0902 51.7454 36.5265 54.1482 35.1393L83.1171 18.414Z" fill="white" stroke="#72DD89" stroke-width="2.74084"/>
<path d="M74.6026 61.1525C74.6026 64.4689 71.5877 66.4423 67.5586 66.4423C63.5022 66.4423 60.4873 64.4689 60.4873 61.1525C60.4873 59.1517 61.5288 57.699 63.6118 56.7671C62.0496 55.6982 61.2821 54.3278 61.2821 52.6559C61.2821 51.0936 61.8577 49.8876 63.0363 49.0106C64.2148 48.1335 65.7223 47.695 67.5586 47.695C69.395 47.695 70.875 48.1335 72.0536 49.0106C73.2322 49.8876 73.8077 51.0936 73.8077 52.6559C73.8077 54.3278 73.0403 55.6982 71.478 56.7671C73.5611 57.699 74.6026 59.1517 74.6026 61.1525ZM65.5852 52.8752C65.5852 53.67 66.2156 54.1908 67.5586 54.8486C68.9016 54.1908 69.5046 53.6426 69.5046 52.8477C69.5046 51.9707 68.655 51.3951 67.5586 51.3951C66.4349 51.3951 65.5852 51.9981 65.5852 52.8752ZM69.9432 60.9606C69.9432 59.9465 69.1483 59.2887 67.5312 58.7131C65.9689 59.2887 65.1467 59.9465 65.1467 60.9606C65.1467 61.9747 65.9415 62.6874 67.5586 62.6874C69.1209 62.6874 69.9432 61.9747 69.9432 60.9606ZM89.8616 60.0836C89.8616 63.7289 86.7644 66.4423 82.7902 66.4423C79.6382 66.4423 77.1441 64.7704 75.9107 62.1118L79.1723 59.8095C80.2412 61.4266 81.2005 62.1118 82.5983 62.1118C84.0236 62.1118 85.0377 61.3992 85.0377 60.111C85.0377 58.8228 84.0236 58.2472 81.9131 58.2472H79.3367V57.0412L82.5435 52.2722H77.3907V48.0239H89.5875V49.2573L85.997 54.6019C88.2171 55.4515 89.8616 57.4249 89.8616 60.0836ZM92.0508 52.2448C92.0508 49.641 94.2161 47.695 96.8473 47.695C99.4785 47.695 101.644 49.641 101.644 52.2448C101.644 54.8212 99.4785 56.822 96.8473 56.822C94.2161 56.822 92.0508 54.8212 92.0508 52.2448ZM95.5865 66.1134L106.029 48.0239H109.729L99.2592 66.1134H95.5865ZM98.0806 52.2448C98.0806 51.4499 97.5599 50.8743 96.8747 50.8743C96.1072 50.8743 95.6139 51.3951 95.6139 52.2448C95.6139 53.0944 96.0798 53.6152 96.8747 53.6152C97.5599 53.6152 98.0806 53.0944 98.0806 52.2448ZM103.645 61.8377C103.645 59.2339 105.81 57.2879 108.441 57.2879C111.072 57.2879 113.237 59.2339 113.237 61.8377C113.237 64.4141 111.072 66.4149 108.441 66.4149C105.81 66.4149 103.645 64.4141 103.645 61.8377ZM109.674 61.8377C109.674 61.0429 109.154 60.4673 108.468 60.4673C107.701 60.4673 107.208 60.988 107.208 61.8377C107.208 62.6874 107.674 63.2081 108.468 63.2081C109.154 63.2081 109.674 62.6874 109.674 61.8377Z" fill="#03314B"/>
</svg>
