<svg width="256" height="21" viewBox="0 0 256 21" fill="none" xmlns="http://www.w3.org/2000/svg">
<path d="M10.9296 2.4272H14.2858L7.79424 17.265H6.80064L0.28704 2.4272H3.66528L7.30848 11.2592L10.9296 2.4272ZM14.1436 11.5242C14.0774 8.41088 16.7932 5.76128 19.9948 5.82752C23.1964 5.78336 25.9343 8.41088 25.8681 11.5242C25.9343 14.6374 23.1743 17.3091 19.9727 17.2429C16.7711 17.3091 14.0774 14.6374 14.1436 11.5242ZM22.8211 11.5462C22.8211 9.84608 21.6067 8.54336 19.9948 8.54336C18.3388 8.54336 17.1686 9.80192 17.1686 11.5462C17.1686 13.2464 18.3388 14.505 19.9948 14.505C21.6067 14.505 22.8211 13.2464 22.8211 11.5462ZM27.2017 15.1453L28.7031 13.3347C29.6526 14.3283 30.6903 14.8141 31.7723 14.8141C32.5671 14.8141 33.1633 14.505 33.1633 13.9088C33.1633 13.4451 32.8542 13.2685 32.0372 12.9152L30.867 12.4294C28.8577 11.6125 27.8862 10.7072 27.8862 9.09536C27.8862 7.04192 29.5201 5.82752 31.9047 5.82752C33.5387 5.82752 34.8414 6.37952 35.835 7.46144L34.3335 9.29408C33.6049 8.6096 32.7879 8.25632 31.8827 8.25632C31.154 8.25632 30.7124 8.52128 30.7124 9.02912C30.7124 9.44864 30.9995 9.64736 31.8606 10.0006L32.9204 10.4422C35.0401 11.3034 35.9895 12.1645 35.9895 13.7763C35.9895 14.8582 35.5921 15.7194 34.7751 16.3376C33.9803 16.9558 32.9646 17.265 31.7281 17.265C29.8071 17.265 28.1953 16.4701 27.2017 15.1453ZM55.9797 11.5242C55.9797 14.792 53.7275 17.265 50.6805 17.265C49.3557 17.265 48.2075 16.8013 47.4127 15.9402V20.9744H44.4319V6.0704H47.1698V7.43936C47.8984 6.4016 49.1791 5.82752 50.6805 5.82752C53.7275 5.82752 55.9797 8.25632 55.9797 11.5242ZM52.9547 11.5462C52.9547 9.7136 51.7403 8.52128 50.1285 8.52128C48.6271 8.52128 47.3685 9.55904 47.3685 11.5242C47.3685 13.4672 48.605 14.5491 50.1285 14.5491C51.7183 14.5491 52.9547 13.3347 52.9547 11.5462ZM65.0304 6.0704V8.69792H64.2356C62.4471 8.69792 61.2989 9.66944 61.2989 11.5462V17H58.3181V6.0704H61.056V7.37312C61.7847 6.46784 62.8445 5.93792 64.0589 5.93792C64.4343 5.93792 64.7434 5.98208 65.0304 6.0704ZM66.8784 17V6.0704H69.8592V17H66.8784ZM66.4589 2.096C66.4589 1.03616 67.298 0.241277 68.3578 0.241277C69.4176 0.241277 70.2788 1.03616 70.2788 2.096C70.2788 3.13376 69.4176 3.92864 68.3578 3.92864C67.298 3.92864 66.4589 3.13376 66.4589 2.096ZM71.8145 15.1453L73.316 13.3347C74.2654 14.3283 75.3032 14.8141 76.3851 14.8141C77.18 14.8141 77.7761 14.505 77.7761 13.9088C77.7761 13.4451 77.467 13.2685 76.65 12.9152L75.4798 12.4294C73.4705 11.6125 72.499 10.7072 72.499 9.09536C72.499 7.04192 74.1329 5.82752 76.5176 5.82752C78.1515 5.82752 79.4542 6.37952 80.4478 7.46144L78.9464 9.29408C78.2177 8.6096 77.4008 8.25632 76.4955 8.25632C75.7668 8.25632 75.3252 8.52128 75.3252 9.02912C75.3252 9.44864 75.6123 9.64736 76.4734 10.0006L77.5332 10.4422C79.6529 11.3034 80.6024 12.1645 80.6024 13.7763C80.6024 14.8582 80.2049 15.7194 79.388 16.3376C78.5931 16.9558 77.5774 17.265 76.3409 17.265C74.42 17.265 72.8081 16.4701 71.8145 15.1453ZM92.9026 12.5398H85.2409C85.5942 13.9309 86.7202 14.7037 88.31 14.7037C89.3919 14.7037 90.4076 14.3283 91.357 13.5997L92.5935 15.631C91.2908 16.713 89.8335 17.265 88.2217 17.265C84.8434 17.3312 82.1718 14.7037 82.238 11.5462C82.1718 8.3888 84.7993 5.76128 87.9567 5.82752C90.9817 5.82752 93.1014 8.0576 93.1014 10.9059C93.1014 11.4358 93.0351 11.9878 92.9026 12.5398ZM85.2409 10.4422H90.2089C90.1868 9.09536 89.149 8.23424 87.8463 8.23424C86.5878 8.23424 85.5721 9.09536 85.2409 10.4422ZM94.4336 15.1453L95.935 13.3347C96.8845 14.3283 97.9222 14.8141 99.0041 14.8141C99.799 14.8141 100.395 14.505 100.395 13.9088C100.395 13.4451 100.086 13.2685 99.2691 12.9152L98.0989 12.4294C96.0896 11.6125 95.1181 10.7072 95.1181 9.09536C95.1181 7.04192 96.752 5.82752 99.1366 5.82752C100.771 5.82752 102.073 6.37952 103.067 7.46144L101.565 9.29408C100.837 8.6096 100.02 8.25632 99.1145 8.25632C98.3859 8.25632 97.9443 8.52128 97.9443 9.02912C97.9443 9.44864 98.2313 9.64736 99.0925 10.0006L100.152 10.4422C102.272 11.3034 103.221 12.1645 103.221 13.7763C103.221 14.8582 102.824 15.7194 102.007 16.3376C101.212 16.9558 100.196 17.265 98.96 17.265C97.039 17.265 95.4272 16.4701 94.4336 15.1453ZM111.046 11.5242C111.046 8.32256 113.651 5.82752 116.897 5.82752C119.038 5.82752 120.694 6.8432 121.644 8.52128L119.568 10.1331C118.884 9.13952 118.089 8.54336 116.941 8.54336C115.263 8.54336 114.07 9.824 114.07 11.5242C114.07 13.2685 115.263 14.527 116.941 14.527C118.067 14.527 118.862 13.953 119.568 12.9594L121.644 14.5491C120.694 16.2272 119.016 17.265 116.897 17.265C113.695 17.3312 111.001 14.6816 111.046 11.5242ZM133.677 12.5398H126.016C126.369 13.9309 127.495 14.7037 129.085 14.7037C130.167 14.7037 131.182 14.3283 132.132 13.5997L133.368 15.631C132.065 16.713 130.608 17.265 128.996 17.265C125.618 17.3312 122.946 14.7037 123.013 11.5462C122.946 8.3888 125.574 5.76128 128.731 5.82752C131.756 5.82752 133.876 8.0576 133.876 10.9059C133.876 11.4358 133.81 11.9878 133.677 12.5398ZM126.016 10.4422H130.984C130.961 9.09536 129.924 8.23424 128.621 8.23424C127.362 8.23424 126.347 9.09536 126.016 10.4422ZM143.223 14.505V17C142.517 17.1766 141.832 17.265 141.17 17.265C138.41 17.265 136.798 15.896 136.798 13.1581V8.58752H135.076V6.0704H136.798V3.3104H139.779V6.0704H142.87V8.58752H139.779V12.8931C139.779 14.1296 140.397 14.5933 141.81 14.5933C141.987 14.5933 142.451 14.5712 143.223 14.505ZM151.741 14.505V17C151.034 17.1766 150.349 17.265 149.687 17.265C146.927 17.265 145.315 15.896 145.315 13.1581V8.58752H143.593V6.0704H145.315V3.3104H148.296V6.0704H151.387V8.58752H148.296V12.8931C148.296 14.1296 148.914 14.5933 150.327 14.5933C150.504 14.5933 150.968 14.5712 151.741 14.505ZM163.735 12.5398H156.074C156.427 13.9309 157.553 14.7037 159.143 14.7037C160.225 14.7037 161.24 14.3283 162.19 13.5997L163.426 15.631C162.124 16.713 160.666 17.265 159.055 17.265C155.676 17.3312 153.005 14.7037 153.071 11.5462C153.005 8.3888 155.632 5.76128 158.79 5.82752C161.815 5.82752 163.934 8.0576 163.934 10.9059C163.934 11.4358 163.868 11.9878 163.735 12.5398ZM156.074 10.4422H161.042C161.02 9.09536 159.982 8.23424 158.679 8.23424C157.421 8.23424 156.405 9.09536 156.074 10.4422ZM171.455 15.1453L172.956 13.3347C173.906 14.3283 174.943 14.8141 176.025 14.8141C176.82 14.8141 177.416 14.505 177.416 13.9088C177.416 13.4451 177.107 13.2685 176.29 12.9152L175.12 12.4294C173.111 11.6125 172.139 10.7072 172.139 9.09536C172.139 7.04192 173.773 5.82752 176.158 5.82752C177.792 5.82752 179.095 6.37952 180.088 7.46144L178.587 9.29408C177.858 8.6096 177.041 8.25632 176.136 8.25632C175.407 8.25632 174.966 8.52128 174.966 9.02912C174.966 9.44864 175.253 9.64736 176.114 10.0006L177.174 10.4422C179.293 11.3034 180.243 12.1645 180.243 13.7763C180.243 14.8582 179.845 15.7194 179.028 16.3376C178.233 16.9558 177.218 17.265 175.981 17.265C174.06 17.265 172.448 16.4701 171.455 15.1453ZM192.543 12.5398H184.881C185.234 13.9309 186.361 14.7037 187.95 14.7037C189.032 14.7037 190.048 14.3283 190.997 13.5997L192.234 15.631C190.931 16.713 189.474 17.265 187.862 17.265C184.484 17.3312 181.812 14.7037 181.878 11.5462C181.812 8.3888 184.44 5.76128 187.597 5.82752C190.622 5.82752 192.742 8.0576 192.742 10.9059C192.742 11.4358 192.675 11.9878 192.543 12.5398ZM184.881 10.4422H189.849C189.827 9.09536 188.789 8.23424 187.487 8.23424C186.228 8.23424 185.212 9.09536 184.881 10.4422ZM211.915 10.2214V17H208.934V10.641C208.934 9.33824 208.161 8.52128 206.991 8.52128C205.82 8.52128 204.981 9.36032 204.981 10.5747V17H202.001V10.641C202.001 9.33824 201.228 8.52128 200.058 8.52128C198.843 8.52128 198.048 9.33824 198.048 10.641V17H195.067V6.0704H197.805V7.04192C198.534 6.26912 199.638 5.82752 200.897 5.82752C202.332 5.82752 203.414 6.35744 204.142 7.3952C205.003 6.42368 206.284 5.82752 207.786 5.82752C210.347 5.82752 211.915 7.57184 211.915 10.2214ZM223.917 10.5085V17H221.179V15.9402C220.384 16.7571 219.236 17.265 217.845 17.265C215.527 17.265 214.07 15.9181 214.07 13.9971C214.07 12.032 215.659 10.8176 218.199 10.8176H220.936V10.3318C220.936 9.11744 220.23 8.41088 218.905 8.41088C217.779 8.41088 216.984 8.87456 216.013 9.91232L214.467 8.07968C215.726 6.57824 217.315 5.82752 219.236 5.82752C222.085 5.82752 223.917 7.48352 223.917 10.5085ZM220.936 12.9152V12.7827H218.596C217.624 12.7827 217.072 13.1581 217.072 13.8867C217.072 14.6154 217.691 15.079 218.64 15.079C219.943 15.079 220.936 14.1738 220.936 12.9152ZM226.786 17V6.0704H229.767V17H226.786ZM226.366 2.096C226.366 1.03616 227.205 0.241277 228.265 0.241277C229.325 0.241277 230.186 1.03616 230.186 2.096C230.186 3.13376 229.325 3.92864 228.265 3.92864C227.205 3.92864 226.366 3.13376 226.366 2.096ZM242.762 10.2214V17H239.803V10.6189C239.803 9.36032 238.986 8.4992 237.772 8.4992C236.558 8.4992 235.696 9.36032 235.696 10.6189V17H232.716V6.0704H235.454V7.064C236.226 6.2912 237.352 5.82752 238.655 5.82752C241.194 5.82752 242.762 7.57184 242.762 10.2214ZM255.678 12.5398H248.016C248.369 13.9309 249.496 14.7037 251.085 14.7037C252.167 14.7037 253.183 14.3283 254.132 13.5997L255.369 15.631C254.066 16.713 252.609 17.265 250.997 17.265C247.619 17.3312 244.947 14.7037 245.013 11.5462C244.947 8.3888 247.575 5.76128 250.732 5.82752C253.757 5.82752 255.877 8.0576 255.877 10.9059C255.877 11.4358 255.81 11.9878 255.678 12.5398ZM248.016 10.4422H252.984C252.962 9.09536 251.924 8.23424 250.622 8.23424C249.363 8.23424 248.347 9.09536 248.016 10.4422Z" fill="#03314B"/>
</svg>
