<svg width="323" height="79" viewBox="0 0 323 79" fill="none" xmlns="http://www.w3.org/2000/svg">
<path d="M0.710355 7.54843C0.644276 4.42617 3.33702 1.86559 6.44276 1.91515C8.44167 1.91515 10.1763 2.88982 11.1179 4.42617L9.7963 5.40085C9.01986 4.1949 7.89651 3.51758 6.45928 3.51758C4.22909 3.51758 2.52754 5.23565 2.52754 7.54843C2.52754 9.86122 4.22909 11.5793 6.45928 11.5793C7.89651 11.5793 9.01986 10.902 9.7963 9.69602L11.1179 10.6707C10.1928 12.207 8.47471 13.1817 6.44276 13.1817C3.33702 13.2313 0.644276 10.6707 0.710355 7.54843ZM12.4235 8.93611C12.3739 6.6068 14.3728 4.67397 16.7021 4.70701C19.0645 4.65745 21.0634 6.63984 21.0138 8.93611C21.0634 11.2324 19.0645 13.2313 16.7021 13.1817C14.3728 13.2313 12.3739 11.2324 12.4235 8.93611ZM19.2297 8.95263C19.2297 7.44932 18.1228 6.29292 16.7186 6.29292C15.2814 6.29292 14.1911 7.44932 14.1911 8.95263C14.1911 10.4559 15.2814 11.5793 16.7021 11.5793C18.1394 11.5793 19.2297 10.4229 19.2297 8.95263ZM35.1776 7.92839V13H33.4265V8.17619C33.4265 7.03632 32.7822 6.29292 31.7414 6.29292C30.6842 6.29292 29.9573 7.05284 29.9573 8.09359V13H28.2227V8.17619C28.2227 7.05284 27.5619 6.29292 26.5211 6.29292C25.4639 6.29292 24.737 7.05284 24.737 8.17619V13H23.0024V4.88873H24.6214V5.64865C25.1995 5.05393 25.9925 4.70701 26.9672 4.70701C28.0905 4.70701 28.9496 5.18609 29.4286 5.97905C30.0234 5.20261 31.0311 4.70701 32.1709 4.70701C34.0377 4.70701 35.1776 5.99556 35.1776 7.92839ZM49.7615 7.92839V13H48.0104V8.17619C48.0104 7.03632 47.3661 6.29292 46.3254 6.29292C45.2681 6.29292 44.5412 7.05284 44.5412 8.09359V13H42.8067V8.17619C42.8067 7.05284 42.1459 6.29292 41.1051 6.29292C40.0478 6.29292 39.321 7.05284 39.321 8.17619V13H37.5864V4.88873H39.2053V5.64865C39.7835 5.05393 40.5765 4.70701 41.5511 4.70701C42.6745 4.70701 43.5335 5.18609 44.0126 5.97905C44.6073 5.20261 45.615 4.70701 46.7549 4.70701C48.6217 4.70701 49.7615 5.99556 49.7615 7.92839ZM59.4721 9.5143H53.4259C53.6406 10.8359 54.6814 11.6454 56.069 11.6454C56.9116 11.6454 57.7045 11.3315 58.4314 10.6872L59.2574 11.8766C58.3323 12.7522 57.2585 13.1817 56.0195 13.1817C53.5415 13.1817 51.6582 11.348 51.6582 8.95263C51.6087 6.62332 53.558 4.65745 55.8543 4.70701C58.0019 4.70701 59.6043 6.30944 59.6043 8.42399C59.6043 8.77091 59.5547 9.13434 59.4721 9.5143ZM53.4589 8.15967H57.8697C57.8532 6.92068 56.9281 6.17728 55.7882 6.17728C54.6483 6.17728 53.7232 6.95372 53.4589 8.15967ZM74.6471 8.93611C74.6471 11.3645 72.962 13.1817 70.6658 13.1817C69.5589 13.1817 68.6008 12.7522 67.9565 12.0088V15.9736H66.2219V4.88873H67.8409V6.0286C68.4356 5.18609 69.4763 4.70701 70.6658 4.70701C72.962 4.70701 74.6471 6.54072 74.6471 8.93611ZM72.8629 8.95263C72.8629 7.39976 71.7891 6.29292 70.3849 6.29292C69.1129 6.29292 67.94 7.16848 67.94 8.93611C67.94 10.7203 69.1129 11.5958 70.3849 11.5958C71.7726 11.5958 72.8629 10.5055 72.8629 8.95263ZM76.1315 8.93611C76.082 6.6068 78.0809 4.67397 80.4102 4.70701C82.7725 4.65745 84.7714 6.63984 84.7219 8.93611C84.7714 11.2324 82.7725 13.2313 80.4102 13.1817C78.0809 13.2313 76.082 11.2324 76.1315 8.93611ZM82.9377 8.95263C82.9377 7.44932 81.8309 6.29292 80.4267 6.29292C78.9895 6.29292 77.8992 7.44932 77.8992 8.95263C77.8992 10.4559 78.9895 11.5793 80.4102 11.5793C81.8474 11.5793 82.9377 10.4229 82.9377 8.95263ZM86.6279 9.5969V4.88873H88.3459V9.72906C88.3459 10.8524 89.1224 11.5793 90.1796 11.5793C91.1874 11.5793 91.9638 10.8524 91.9638 9.72906V4.88873H93.6984V9.5969C93.6984 11.7775 92.162 13.1817 90.1796 13.1817C88.1477 13.1817 86.6279 11.7775 86.6279 9.5969ZM100.774 4.88873V6.42508H100.245C98.8743 6.42508 97.8666 7.23456 97.8666 8.67179V13H96.132V4.88873H97.7509V5.94601C98.3291 5.21913 99.1881 4.80613 100.113 4.80613C100.361 4.80613 100.576 4.83917 100.774 4.88873ZM115.382 8.95263C115.382 11.348 113.681 13.1817 111.417 13.1817C110.228 13.1817 109.187 12.7192 108.576 11.8766V13H106.957V0.610079H108.692V5.87993C109.303 5.13653 110.278 4.70701 111.401 4.70701C113.697 4.70701 115.382 6.54072 115.382 8.95263ZM113.598 8.93611C113.598 7.38324 112.508 6.29292 111.12 6.29292C109.848 6.29292 108.675 7.16848 108.675 8.95263C108.675 10.7203 109.848 11.5958 111.12 11.5958C112.524 11.5958 113.598 10.489 113.598 8.93611ZM124.681 9.5143H118.634C118.849 10.8359 119.89 11.6454 121.277 11.6454C122.12 11.6454 122.913 11.3315 123.64 10.6872L124.466 11.8766C123.541 12.7522 122.467 13.1817 121.228 13.1817C118.75 13.1817 116.867 11.348 116.867 8.95263C116.817 6.62332 118.766 4.65745 121.063 4.70701C123.21 4.70701 124.813 6.30944 124.813 8.42399C124.813 8.77091 124.763 9.13434 124.681 9.5143ZM118.667 8.15967H123.078C123.062 6.92068 122.136 6.17728 120.997 6.17728C119.857 6.17728 118.932 6.95372 118.667 8.15967ZM133.243 8.09359V13H131.624V12.0914C131.029 12.8018 130.137 13.1817 129.03 13.1817C127.329 13.1817 126.206 12.2401 126.206 10.8359C126.206 9.4317 127.362 8.52311 129.196 8.52311H131.492V7.99447C131.492 6.87112 130.864 6.25988 129.757 6.25988C128.849 6.25988 128.188 6.65636 127.511 7.46584L126.503 6.4416C127.312 5.26869 128.518 4.70701 129.923 4.70701C131.921 4.70701 133.243 5.91297 133.243 8.09359ZM131.492 9.9273V9.77862H129.41C128.485 9.77862 127.973 10.109 127.973 10.7698C127.973 11.4471 128.551 11.8436 129.394 11.8436C130.567 11.8436 131.492 11.0341 131.492 9.9273ZM135.575 9.5969V4.88873H137.293V9.72906C137.293 10.8524 138.069 11.5793 139.126 11.5793C140.134 11.5793 140.91 10.8524 140.91 9.72906V4.88873H142.645V9.5969C142.645 11.7775 141.109 13.1817 139.126 13.1817C137.094 13.1817 135.575 11.7775 135.575 9.5969ZM144.567 8.93611C144.517 6.6068 146.532 4.67397 148.862 4.70701C150.365 4.70701 151.571 5.41737 152.281 6.59028L151.059 7.54843C150.481 6.72244 149.754 6.30944 148.878 6.30944C147.424 6.30944 146.334 7.46584 146.334 8.93611C146.334 10.4229 147.424 11.5793 148.878 11.5793C149.737 11.5793 150.464 11.1663 151.059 10.3568L152.281 11.2985C151.554 12.4714 150.332 13.1817 148.862 13.1817C146.466 13.1817 144.567 11.2985 144.567 8.93611ZM153.52 8.93611C153.471 6.6068 155.469 4.67397 157.799 4.70701C160.161 4.65745 162.16 6.63984 162.11 8.93611C162.16 11.2324 160.161 13.2313 157.799 13.1817C155.469 13.2313 153.471 11.2324 153.52 8.93611ZM160.326 8.95263C160.326 7.44932 159.22 6.29292 157.815 6.29292C156.378 6.29292 155.288 7.44932 155.288 8.95263C155.288 10.4559 156.378 11.5793 157.799 11.5793C159.236 11.5793 160.326 10.4229 160.326 8.95263ZM164.016 9.5969V4.88873H165.735V9.72906C165.735 10.8524 166.511 11.5793 167.568 11.5793C168.576 11.5793 169.352 10.8524 169.352 9.72906V4.88873H171.087V9.5969C171.087 11.7775 169.551 13.1817 167.568 13.1817C165.536 13.1817 164.016 11.7775 164.016 9.5969ZM181.946 8.93611C181.946 11.3645 180.261 13.1817 177.964 13.1817C176.858 13.1817 175.899 12.7522 175.255 12.0088V15.9736H173.521V4.88873H175.14V6.0286C175.734 5.18609 176.775 4.70701 177.964 4.70701C180.261 4.70701 181.946 6.54072 181.946 8.93611ZM180.162 8.95263C180.162 7.39976 179.088 6.29292 177.684 6.29292C176.412 6.29292 175.239 7.16848 175.239 8.93611C175.239 10.7203 176.412 11.5958 177.684 11.5958C179.071 11.5958 180.162 10.5055 180.162 8.95263ZM194.734 0.610079H196.485V13H194.866V11.8436C194.272 12.6861 193.231 13.1817 192.025 13.1817C189.745 13.1817 188.06 11.348 188.06 8.95263C188.011 6.59028 189.778 4.65745 192.025 4.70701C193.148 4.70701 194.123 5.13653 194.734 5.87993V0.610079ZM194.767 8.95263C194.767 7.20152 193.578 6.29292 192.322 6.29292C190.935 6.29292 189.828 7.38324 189.828 8.93611C189.828 10.489 190.885 11.5958 192.322 11.5958C193.594 11.5958 194.767 10.7203 194.767 8.95263ZM206.296 9.5143H200.25C200.464 10.8359 201.505 11.6454 202.893 11.6454C203.735 11.6454 204.528 11.3315 205.255 10.6872L206.081 11.8766C205.156 12.7522 204.082 13.1817 202.843 13.1817C200.365 13.1817 198.482 11.348 198.482 8.95263C198.432 6.62332 200.382 4.65745 202.678 4.70701C204.826 4.70701 206.428 6.30944 206.428 8.42399C206.428 8.77091 206.379 9.13434 206.296 9.5143ZM200.283 8.15967H204.693C204.677 6.92068 203.752 6.17728 202.612 6.17728C201.472 6.17728 200.547 6.95372 200.283 8.15967ZM221.471 8.93611C221.471 11.3645 219.786 13.1817 217.49 13.1817C216.383 13.1817 215.425 12.7522 214.78 12.0088V15.9736H213.046V4.88873H214.665V6.0286C215.259 5.18609 216.3 4.70701 217.49 4.70701C219.786 4.70701 221.471 6.54072 221.471 8.93611ZM219.687 8.95263C219.687 7.39976 218.613 6.29292 217.209 6.29292C215.937 6.29292 214.764 7.16848 214.764 8.93611C214.764 10.7203 215.937 11.5958 217.209 11.5958C218.596 11.5958 219.687 10.5055 219.687 8.95263ZM230.769 9.5143H224.723C224.938 10.8359 225.978 11.6454 227.366 11.6454C228.209 11.6454 229.002 11.3315 229.728 10.6872L230.554 11.8766C229.629 12.7522 228.556 13.1817 227.317 13.1817C224.839 13.1817 222.955 11.348 222.955 8.95263C222.906 6.62332 224.855 4.65745 227.151 4.70701C229.299 4.70701 230.901 6.30944 230.901 8.42399C230.901 8.77091 230.852 9.13434 230.769 9.5143ZM224.756 8.15967H229.167C229.15 6.92068 228.225 6.17728 227.085 6.17728C225.945 6.17728 225.02 6.95372 224.756 8.15967ZM237.531 4.88873V6.42508H237.002C235.631 6.42508 234.624 7.23456 234.624 8.67179V13H232.889V4.88873H234.508V5.94601C235.086 5.21913 235.945 4.80613 236.87 4.80613C237.118 4.80613 237.333 4.83917 237.531 4.88873ZM238.324 11.6123L239.315 10.522C240.026 11.2654 240.736 11.6784 241.595 11.6784C242.338 11.6784 242.9 11.3645 242.9 10.7698C242.9 10.2907 242.553 10.0925 241.76 9.7621L240.934 9.41518C239.497 8.82047 238.82 8.19271 238.82 7.05284C238.82 5.59909 240.026 4.70701 241.678 4.70701C242.85 4.70701 243.776 5.12001 244.486 5.96252L243.544 7.03632C243.032 6.50768 242.355 6.21032 241.644 6.21032C240.967 6.21032 240.538 6.47464 240.538 6.98676C240.538 7.39976 240.819 7.61451 241.611 7.94491L242.388 8.25879C243.924 8.90307 244.602 9.56386 244.602 10.7037C244.602 11.4802 244.321 12.0914 243.743 12.5374C243.164 12.967 242.454 13.1817 241.595 13.1817C240.207 13.1817 239.051 12.554 238.324 11.6123ZM246.09 8.93611C246.04 6.6068 248.039 4.67397 250.368 4.70701C252.731 4.65745 254.73 6.63984 254.68 8.93611C254.73 11.2324 252.731 13.2313 250.368 13.1817C248.039 13.2313 246.04 11.2324 246.09 8.93611ZM252.896 8.95263C252.896 7.44932 251.789 6.29292 250.385 6.29292C248.948 6.29292 247.857 7.44932 247.857 8.95263C247.857 10.4559 248.948 11.5793 250.368 11.5793C251.806 11.5793 252.896 10.4229 252.896 8.95263ZM263.756 7.92839V13H262.021V8.15967C262.021 7.03632 261.311 6.2764 260.253 6.2764C259.18 6.2764 258.403 7.05284 258.403 8.15967V13H256.669V4.88873H258.288V5.68169C258.899 5.03741 259.708 4.70701 260.716 4.70701C262.616 4.70701 263.756 5.99556 263.756 7.92839ZM273.258 7.92839V13H271.523V8.15967C271.523 7.03632 270.813 6.2764 269.756 6.2764C268.682 6.2764 267.905 7.05284 267.905 8.15967V13H266.171V4.88873H267.79V5.68169C268.401 5.03741 269.21 4.70701 270.218 4.70701C272.118 4.70701 273.258 5.99556 273.258 7.92839ZM282.975 9.5143H276.928C277.143 10.8359 278.184 11.6454 279.572 11.6454C280.414 11.6454 281.207 11.3315 281.934 10.6872L282.76 11.8766C281.835 12.7522 280.761 13.1817 279.522 13.1817C277.044 13.1817 275.161 11.348 275.161 8.95263C275.111 6.62332 277.061 4.65745 279.357 4.70701C281.504 4.70701 283.107 6.30944 283.107 8.42399C283.107 8.77091 283.057 9.13434 282.975 9.5143ZM276.961 8.15967H281.372C281.356 6.92068 280.431 6.17728 279.291 6.17728C278.151 6.17728 277.226 6.95372 276.961 8.15967ZM284.334 11.6123L285.326 10.522C286.036 11.2654 286.746 11.6784 287.605 11.6784C288.349 11.6784 288.91 11.3645 288.91 10.7698C288.91 10.2907 288.564 10.0925 287.771 9.7621L286.945 9.41518C285.507 8.82047 284.83 8.19271 284.83 7.05284C284.83 5.59909 286.036 4.70701 287.688 4.70701C288.861 4.70701 289.786 5.12001 290.496 5.96252L289.555 7.03632C289.043 6.50768 288.365 6.21032 287.655 6.21032C286.978 6.21032 286.548 6.47464 286.548 6.98676C286.548 7.39976 286.829 7.61451 287.622 7.94491L288.398 8.25879C289.935 8.90307 290.612 9.56386 290.612 10.7037C290.612 11.4802 290.331 12.0914 289.753 12.5374C289.175 12.967 288.464 13.1817 287.605 13.1817C286.218 13.1817 285.061 12.554 284.334 11.6123ZM292.629 15.9405L292.794 11.2489H294.809L294.033 15.9405H292.629ZM301.872 13V0.610079H303.607V13H301.872ZM313.417 9.5143H307.371C307.586 10.8359 308.626 11.6454 310.014 11.6454C310.857 11.6454 311.649 11.3315 312.376 10.6872L313.202 11.8766C312.277 12.7522 311.203 13.1817 309.964 13.1817C307.486 13.1817 305.603 11.348 305.603 8.95263C305.554 6.62332 307.503 4.65745 309.799 4.70701C311.947 4.70701 313.549 6.30944 313.549 8.42399C313.549 8.77091 313.5 9.13434 313.417 9.5143ZM307.404 8.15967H311.815C311.798 6.92068 310.873 6.17728 309.733 6.17728C308.593 6.17728 307.668 6.95372 307.404 8.15967ZM11.9439 25.8887H13.7941L10.1928 34.1817H9.59806L7.05399 28.7797L4.50993 34.1817H3.91522L0.313878 25.8887H2.16411L4.29517 31.1916L6.75664 25.707H7.35135L9.84586 31.1255L11.9439 25.8887ZM22.3346 30.5143H16.2884C16.5031 31.8359 17.5439 32.6454 18.9315 32.6454C19.7741 32.6454 20.567 32.3315 21.2939 31.6872L22.1199 32.8766C21.1948 33.7522 20.121 34.1817 18.882 34.1817C16.404 34.1817 14.5207 32.348 14.5207 29.9526C14.4712 27.6233 16.4205 25.6575 18.7168 25.707C20.8644 25.707 22.4668 27.3094 22.4668 29.424C22.4668 29.7709 22.4172 30.1343 22.3346 30.5143ZM16.3214 29.1597H20.7322C20.7157 27.9207 19.7906 27.1773 18.6507 27.1773C17.5108 27.1773 16.5857 27.9537 16.3214 29.1597ZM31.7561 30.5143H25.7099C25.9246 31.8359 26.9654 32.6454 28.353 32.6454C29.1956 32.6454 29.9885 32.3315 30.7154 31.6872L31.5414 32.8766C30.6163 33.7522 29.5425 34.1817 28.3035 34.1817C25.8255 34.1817 23.9422 32.348 23.9422 29.9526C23.8927 27.6233 25.842 25.6575 28.1383 25.707C30.2859 25.707 31.8883 27.3094 31.8883 29.424C31.8883 29.7709 31.8387 30.1343 31.7561 30.5143ZM25.7429 29.1597H30.1537C30.1372 27.9207 29.2121 27.1773 28.0722 27.1773C26.9323 27.1773 26.0072 27.9537 25.7429 29.1597ZM33.8759 34V21.6101H35.6104V34H33.8759ZM37.7085 29.457L41.2602 34H39.1787L35.66 29.4405L38.8318 25.8887H40.9794L37.7085 29.457ZM42.0447 29.4901V28.0198H46.1086V29.4901H42.0447ZM55.4712 30.5143H49.4249C49.6397 31.8359 50.6805 32.6454 52.0681 32.6454C52.9106 32.6454 53.7036 32.3315 54.4305 31.6872L55.2565 32.8766C54.3314 33.7522 53.2576 34.1817 52.0186 34.1817C49.5406 34.1817 47.6573 32.348 47.6573 29.9526C47.6078 27.6233 49.5571 25.6575 51.8534 25.707C54.001 25.707 55.6034 27.3094 55.6034 29.424C55.6034 29.7709 55.5538 30.1343 55.4712 30.5143ZM49.458 29.1597H53.8688C53.8523 27.9207 52.9272 27.1773 51.7873 27.1773C50.6474 27.1773 49.7223 27.9537 49.458 29.1597ZM64.678 28.9284V34H62.9434V29.1597C62.9434 28.0363 62.233 27.2764 61.1757 27.2764C60.102 27.2764 59.3255 28.0528 59.3255 29.1597V34H57.5909V25.8887H59.2099V26.6817C59.8211 26.0374 60.6306 25.707 61.6383 25.707C63.5381 25.707 64.678 26.9956 64.678 28.9284ZM73.255 21.6101H75.0061V34H73.3872V32.8436C72.7925 33.6861 71.7517 34.1817 70.5458 34.1817C68.266 34.1817 66.581 32.348 66.581 29.9526C66.5314 27.5903 68.299 25.6575 70.5458 25.707C71.6691 25.707 72.6438 26.1365 73.255 26.8799V21.6101ZM73.2881 29.9526C73.2881 28.2015 72.0986 27.2929 70.8431 27.2929C69.4554 27.2929 68.3486 28.3832 68.3486 29.9361C68.3486 31.489 69.4059 32.5958 70.8431 32.5958C72.1151 32.5958 73.2881 31.7203 73.2881 29.9526ZM81.385 32.6123L82.3762 31.522C83.0866 32.2654 83.7969 32.6784 84.6559 32.6784C85.3993 32.6784 85.961 32.3645 85.961 31.7698C85.961 31.2907 85.6141 31.0925 84.8211 30.7621L83.9951 30.4152C82.5579 29.8205 81.8806 29.1927 81.8806 28.0528C81.8806 26.5991 83.0866 25.707 84.7385 25.707C85.9115 25.707 86.8366 26.12 87.5469 26.9625L86.6053 28.0363C86.0932 27.5077 85.4159 27.2103 84.7055 27.2103C84.0282 27.2103 83.5987 27.4746 83.5987 27.9868C83.5987 28.3998 83.8795 28.6145 84.6725 28.9449L85.4489 29.2588C86.9852 29.9031 87.6626 30.5639 87.6626 31.7037C87.6626 32.4802 87.3817 33.0914 86.8035 33.5374C86.2253 33.967 85.515 34.1817 84.6559 34.1817C83.2683 34.1817 82.1119 33.554 81.385 32.6123ZM96.9645 30.5143H90.9183C91.133 31.8359 92.1738 32.6454 93.5614 32.6454C94.404 32.6454 95.1969 32.3315 95.9238 31.6872L96.7498 32.8766C95.8247 33.7522 94.7509 34.1817 93.5119 34.1817C91.0339 34.1817 89.1506 32.348 89.1506 29.9526C89.1011 27.6233 91.0504 25.6575 93.3467 25.707C95.4943 25.707 97.0967 27.3094 97.0967 29.424C97.0967 29.7709 97.0471 30.1343 96.9645 30.5143ZM90.9513 29.1597H95.3621C95.3456 27.9207 94.4205 27.1773 93.2806 27.1773C92.1407 27.1773 91.2156 27.9537 90.9513 29.1597ZM111.259 28.9284V34H109.508V29.1762C109.508 28.0363 108.864 27.2929 107.823 27.2929C106.766 27.2929 106.039 28.0528 106.039 29.0936V34H104.305V29.1762C104.305 28.0528 103.644 27.2929 102.603 27.2929C101.546 27.2929 100.819 28.0528 100.819 29.1762V34H99.0843V25.8887H100.703V26.6486C101.281 26.0539 102.074 25.707 103.049 25.707C104.172 25.707 105.031 26.1861 105.511 26.979C106.105 26.2026 107.113 25.707 108.253 25.707C110.12 25.707 111.259 26.9956 111.259 28.9284ZM122.093 29.9526C122.093 32.348 120.392 34.1817 118.129 34.1817C116.939 34.1817 115.898 33.7192 115.287 32.8766V34H113.668V21.6101H115.403V26.8799C116.014 26.1365 116.989 25.707 118.112 25.707C120.408 25.707 122.093 27.5407 122.093 29.9526ZM120.309 29.9361C120.309 28.3832 119.219 27.2929 117.831 27.2929C116.559 27.2929 115.386 28.1685 115.386 29.9526C115.386 31.7203 116.559 32.5958 117.831 32.5958C119.235 32.5958 120.309 31.489 120.309 29.9361ZM124.09 34V21.6101H125.825V34H124.09ZM135.635 30.5143H129.588C129.803 31.8359 130.844 32.6454 132.232 32.6454C133.074 32.6454 133.867 32.3315 134.594 31.6872L135.42 32.8766C134.495 33.7522 133.421 34.1817 132.182 34.1817C129.704 34.1817 127.821 32.348 127.821 29.9526C127.771 27.6233 129.721 25.6575 132.017 25.707C134.164 25.707 135.767 27.3094 135.767 29.424C135.767 29.7709 135.717 30.1343 135.635 30.5143ZM129.621 29.1597H134.032C134.016 27.9207 133.091 27.1773 131.951 27.1773C130.811 27.1773 129.886 27.9537 129.621 29.1597ZM149.686 30.5143H143.64C143.855 31.8359 144.895 32.6454 146.283 32.6454C147.126 32.6454 147.919 32.3315 148.645 31.6872L149.471 32.8766C148.546 33.7522 147.473 34.1817 146.234 34.1817C143.756 34.1817 141.872 32.348 141.872 29.9526C141.823 27.6233 143.772 25.6575 146.068 25.707C148.216 25.707 149.818 27.3094 149.818 29.424C149.818 29.7709 149.769 30.1343 149.686 30.5143ZM143.673 29.1597H148.084C148.067 27.9207 147.142 27.1773 146.002 27.1773C144.862 27.1773 143.937 27.9537 143.673 29.1597ZM148.827 24.6167H147.539L146.052 22.816L144.549 24.6167H143.243L145.49 21.1145H146.597L148.827 24.6167ZM156.63 32.5297V34C156.085 34.1156 155.606 34.1817 155.193 34.1817C153.326 34.1817 152.202 33.2566 152.202 31.3568V27.392H150.881V25.8887H152.202V23.7577H153.954V25.8887H156.365V27.392H153.954V31.2081C153.954 32.2489 154.499 32.6123 155.556 32.6123C155.804 32.6123 156.151 32.5793 156.63 32.5297ZM163.03 25.8887V27.4251H162.502C161.13 27.4251 160.123 28.2346 160.123 29.6718V34H158.388V25.8887H160.007V26.946C160.585 26.2191 161.444 25.8061 162.369 25.8061C162.617 25.8061 162.832 25.8392 163.03 25.8887ZM171.724 30.5143H165.677C165.892 31.8359 166.933 32.6454 168.32 32.6454C169.163 32.6454 169.956 32.3315 170.683 31.6872L171.509 32.8766C170.584 33.7522 169.51 34.1817 168.271 34.1817C165.793 34.1817 163.91 32.348 163.91 29.9526C163.86 27.6233 165.809 25.6575 168.106 25.707C170.253 25.707 171.856 27.3094 171.856 29.424C171.856 29.7709 171.806 30.1343 171.724 30.5143ZM165.71 29.1597H170.121C170.105 27.9207 169.179 27.1773 168.04 27.1773C166.9 27.1773 165.975 27.9537 165.71 29.1597ZM178.391 30.5969V25.8887H180.109V30.7291C180.109 31.8524 180.885 32.5793 181.942 32.5793C182.95 32.5793 183.727 31.8524 183.727 30.7291V25.8887H185.461V30.5969C185.461 32.7775 183.925 34.1817 181.942 34.1817C179.911 34.1817 178.391 32.7775 178.391 30.5969ZM194.982 28.9284V34H193.247V29.1597C193.247 28.0363 192.537 27.2764 191.48 27.2764C190.406 27.2764 189.629 28.0528 189.629 29.1597V34H187.895V25.8887H189.514V26.6817C190.125 26.0374 190.934 25.707 191.942 25.707C193.842 25.707 194.982 26.9956 194.982 28.9284ZM214.202 28.9284V34H212.451V29.1762C212.451 28.0363 211.807 27.2929 210.766 27.2929C209.709 27.2929 208.982 28.0528 208.982 29.0936V34H207.247V29.1762C207.247 28.0528 206.587 27.2929 205.546 27.2929C204.489 27.2929 203.762 28.0528 203.762 29.1762V34H202.027V25.8887H203.646V26.6486C204.224 26.0539 205.017 25.707 205.992 25.707C207.115 25.707 207.974 26.1861 208.453 26.979C209.048 26.2026 210.056 25.707 211.196 25.707C213.062 25.707 214.202 26.9956 214.202 28.9284ZM216.099 29.9361C216.049 27.6068 218.048 25.674 220.378 25.707C222.74 25.6575 224.739 27.6398 224.689 29.9361C224.739 32.2324 222.74 34.2313 220.378 34.1817C218.048 34.2313 216.049 32.2324 216.099 29.9361ZM222.905 29.9526C222.905 28.4493 221.798 27.2929 220.394 27.2929C218.957 27.2929 217.867 28.4493 217.867 29.9526C217.867 31.4559 218.957 32.5793 220.378 32.5793C221.815 32.5793 222.905 31.4229 222.905 29.9526ZM238.853 28.9284V34H237.102V29.1762C237.102 28.0363 236.458 27.2929 235.417 27.2929C234.36 27.2929 233.633 28.0528 233.633 29.0936V34H231.898V29.1762C231.898 28.0528 231.237 27.2929 230.197 27.2929C229.139 27.2929 228.412 28.0528 228.412 29.1762V34H226.678V25.8887H228.297V26.6486C228.875 26.0539 229.668 25.707 230.643 25.707C231.766 25.707 232.625 26.1861 233.104 26.979C233.699 26.2026 234.707 25.707 235.846 25.707C237.713 25.707 238.853 26.9956 238.853 28.9284ZM248.564 30.5143H242.517C242.732 31.8359 243.773 32.6454 245.161 32.6454C246.003 32.6454 246.796 32.3315 247.523 31.6872L248.349 32.8766C247.424 33.7522 246.35 34.1817 245.111 34.1817C242.633 34.1817 240.75 32.348 240.75 29.9526C240.7 27.6233 242.649 25.6575 244.946 25.707C247.093 25.707 248.696 27.3094 248.696 29.424C248.696 29.7709 248.646 30.1343 248.564 30.5143ZM242.55 29.1597H246.961C246.945 27.9207 246.02 27.1773 244.88 27.1773C243.74 27.1773 242.815 27.9537 242.55 29.1597ZM257.77 28.9284V34H256.036V29.1597C256.036 28.0363 255.325 27.2764 254.268 27.2764C253.194 27.2764 252.418 28.0528 252.418 29.1597V34H250.683V25.8887H252.302V26.6817C252.914 26.0374 253.723 25.707 254.731 25.707C256.63 25.707 257.77 26.9956 257.77 28.9284ZM265.009 32.5297V34C264.464 34.1156 263.985 34.1817 263.572 34.1817C261.705 34.1817 260.582 33.2566 260.582 31.3568V27.392H259.26V25.8887H260.582V23.7577H262.333V25.8887H264.745V27.392H262.333V31.2081C262.333 32.2489 262.878 32.6123 263.935 32.6123C264.183 32.6123 264.53 32.5793 265.009 32.5297ZM277.56 21.6101H279.311V34H277.692V32.8436C277.097 33.6861 276.056 34.1817 274.85 34.1817C272.571 34.1817 270.886 32.348 270.886 29.9526C270.836 27.5903 272.604 25.6575 274.85 25.707C275.974 25.707 276.948 26.1365 277.56 26.8799V21.6101ZM277.593 29.9526C277.593 28.2015 276.403 27.2929 275.148 27.2929C273.76 27.2929 272.653 28.3832 272.653 29.9361C272.653 31.489 273.711 32.5958 275.148 32.5958C276.42 32.5958 277.593 31.7203 277.593 29.9526ZM289.121 30.5143H283.075C283.29 31.8359 284.33 32.6454 285.718 32.6454C286.561 32.6454 287.354 32.3315 288.08 31.6872L288.906 32.8766C287.981 33.7522 286.908 34.1817 285.669 34.1817C283.191 34.1817 281.307 32.348 281.307 29.9526C281.258 27.6233 283.207 25.6575 285.503 25.707C287.651 25.707 289.253 27.3094 289.253 29.424C289.253 29.7709 289.204 30.1343 289.121 30.5143ZM283.108 29.1597H287.519C287.502 27.9207 286.577 27.1773 285.437 27.1773C284.297 27.1773 283.372 27.9537 283.108 29.1597ZM295.871 34V21.6101H297.606V34H295.871ZM306.557 29.0936V34H304.938V33.0914C304.343 33.8018 303.451 34.1817 302.344 34.1817C300.643 34.1817 299.519 33.2401 299.519 31.8359C299.519 30.4317 300.676 29.5231 302.509 29.5231H304.806V28.9945C304.806 27.8711 304.178 27.2599 303.071 27.2599C302.162 27.2599 301.502 27.6564 300.824 28.4658L299.817 27.4416C300.626 26.2687 301.832 25.707 303.236 25.707C305.235 25.707 306.557 26.913 306.557 29.0936ZM304.806 30.9273V30.7786H302.724C301.799 30.7786 301.287 31.109 301.287 31.7698C301.287 32.4471 301.865 32.8436 302.708 32.8436C303.88 32.8436 304.806 32.0341 304.806 30.9273ZM0.495597 53.6123L1.48679 52.522C2.19715 53.2654 2.9075 53.6784 3.76654 53.6784C4.50993 53.6784 5.07161 53.3645 5.07161 52.7698C5.07161 52.2907 4.72469 52.0925 3.93173 51.7621L3.10574 51.4152C1.66851 50.8205 0.991194 50.1927 0.991194 49.0528C0.991194 47.5991 2.19715 46.707 3.84914 46.707C5.02205 46.707 5.94716 47.12 6.65752 47.9625L5.71588 49.0363C5.20377 48.5077 4.52645 48.2103 3.8161 48.2103C3.13878 48.2103 2.70926 48.4746 2.70926 48.9868C2.70926 49.3998 2.9901 49.6145 3.78306 49.9449L4.55949 50.2588C6.09584 50.9031 6.77316 51.5639 6.77316 52.7037C6.77316 53.4802 6.49232 54.0914 5.91412 54.5374C5.33593 54.967 4.62557 55.1817 3.76654 55.1817C2.37886 55.1817 1.22247 54.554 0.495597 53.6123ZM16.0751 51.5143H10.0289C10.2436 52.8359 11.2844 53.6454 12.672 53.6454C13.5146 53.6454 14.3075 53.3315 15.0344 52.6872L15.8604 53.8766C14.9353 54.7522 13.8615 55.1817 12.6225 55.1817C10.1445 55.1817 8.26124 53.348 8.26124 50.9526C8.21168 48.6233 10.161 46.6575 12.4573 46.707C14.6049 46.707 16.2073 48.3094 16.2073 50.424C16.2073 50.7709 16.1577 51.1343 16.0751 51.5143ZM10.0619 50.1597H14.4727C14.4562 48.9207 13.5311 48.1773 12.3912 48.1773C11.2513 48.1773 10.3262 48.9537 10.0619 50.1597ZM30.37 49.9284V55H28.6189V50.1762C28.6189 49.0363 27.9746 48.2929 26.9339 48.2929C25.8766 48.2929 25.1497 49.0528 25.1497 50.0936V55H23.4151V50.1762C23.4151 49.0528 22.7543 48.2929 21.7136 48.2929C20.6563 48.2929 19.9294 49.0528 19.9294 50.1762V55H18.1949V46.8887H19.8138V47.6486C20.392 47.0539 21.185 46.707 22.1596 46.707C23.283 46.707 24.142 47.1861 24.6211 47.979C25.2158 47.2026 26.2235 46.707 27.3634 46.707C29.2301 46.707 30.37 47.9956 30.37 49.9284ZM39.2216 50.0936V55H37.6026V54.0914C37.0079 54.8018 36.1158 55.1817 35.009 55.1817C33.3075 55.1817 32.1841 54.2401 32.1841 52.8359C32.1841 51.4317 33.3405 50.5231 35.1742 50.5231H37.4705V49.9945C37.4705 48.8711 36.8427 48.2599 35.7359 48.2599C34.8273 48.2599 34.1665 48.6564 33.4892 49.4658L32.4815 48.4416C33.2909 47.2687 34.4969 46.707 35.9011 46.707C37.9 46.707 39.2216 47.913 39.2216 50.0936ZM37.4705 51.9273V51.7786H35.389C34.4639 51.7786 33.9517 52.109 33.9517 52.7698C33.9517 53.4471 34.5299 53.8436 35.3724 53.8436C36.5454 53.8436 37.4705 53.0341 37.4705 51.9273ZM41.6357 55V46.8887H43.3703V55H41.6357ZM41.3218 43.8656C41.3218 43.2213 41.8504 42.7092 42.5112 42.7092C43.1555 42.7092 43.6841 43.2213 43.6841 43.8656C43.6841 44.5099 43.1555 45.0055 42.5112 45.0055C41.8504 45.0055 41.3218 44.5099 41.3218 43.8656ZM52.9656 49.9284V55H51.231V50.1597C51.231 49.0363 50.5207 48.2764 49.4634 48.2764C48.3896 48.2764 47.6132 49.0528 47.6132 50.1597V55H45.8786V46.8887H47.4975V47.6817C48.1088 47.0374 48.9182 46.707 49.926 46.707C51.8257 46.707 52.9656 47.9956 52.9656 49.9284ZM62.6825 51.5143H56.6363C56.851 52.8359 57.8918 53.6454 59.2794 53.6454C60.122 53.6454 60.9149 53.3315 61.6418 52.6872L62.4678 53.8766C61.5427 54.7522 60.4689 55.1817 59.2299 55.1817C56.7519 55.1817 54.8686 53.348 54.8686 50.9526C54.8191 48.6233 56.7684 46.6575 59.0647 46.707C61.2123 46.707 62.8147 48.3094 62.8147 50.424C62.8147 50.7709 62.7651 51.1343 62.6825 51.5143ZM56.6693 50.1597H61.0801C61.0636 48.9207 60.1385 48.1773 58.9986 48.1773C57.8587 48.1773 56.9336 48.9537 56.6693 50.1597ZM77.8575 50.9361C77.8575 53.3645 76.1725 55.1817 73.8762 55.1817C72.7694 55.1817 71.8112 54.7522 71.1669 54.0088V57.9736H69.4323V46.8887H71.0513V48.0286C71.646 47.1861 72.6868 46.707 73.8762 46.707C76.1725 46.707 77.8575 48.5407 77.8575 50.9361ZM76.0733 50.9526C76.0733 49.3998 74.9995 48.2929 73.5954 48.2929C72.3233 48.2929 71.1504 49.1685 71.1504 50.9361C71.1504 52.7203 72.3233 53.5958 73.5954 53.5958C74.983 53.5958 76.0733 52.5055 76.0733 50.9526ZM79.8541 55V42.6101H81.5887V55H79.8541ZM84.0144 51.5969V46.8887H85.7324V51.7291C85.7324 52.8524 86.5089 53.5793 87.5662 53.5793C88.5739 53.5793 89.3503 52.8524 89.3503 51.7291V46.8887H91.0849V51.5969C91.0849 53.7775 89.5485 55.1817 87.5662 55.1817C85.5342 55.1817 84.0144 53.7775 84.0144 51.5969ZM92.7586 53.6123L93.7498 52.522C94.4601 53.2654 95.1705 53.6784 96.0295 53.6784C96.7729 53.6784 97.3346 53.3645 97.3346 52.7698C97.3346 52.2907 96.9877 52.0925 96.1947 51.7621L95.3687 51.4152C93.9315 50.8205 93.2542 50.1927 93.2542 49.0528C93.2542 47.5991 94.4601 46.707 96.1121 46.707C97.285 46.707 98.2101 47.12 98.9205 47.9625L97.9788 49.0363C97.4667 48.5077 96.7894 48.2103 96.0791 48.2103C95.4017 48.2103 94.9722 48.4746 94.9722 48.9868C94.9722 49.3998 95.2531 49.6145 96.046 49.9449L96.8225 50.2588C98.3588 50.9031 99.0361 51.5639 99.0361 52.7037C99.0361 53.4802 98.7553 54.0914 98.1771 54.5374C97.5989 54.967 96.8885 55.1817 96.0295 55.1817C94.6418 55.1817 93.4854 54.554 92.7586 53.6123ZM105.154 50.9361C105.105 48.6068 107.12 46.674 109.449 46.707C110.953 46.707 112.159 47.4174 112.869 48.5903L111.647 49.5484C111.068 48.7224 110.342 48.3094 109.466 48.3094C108.012 48.3094 106.922 49.4658 106.922 50.9361C106.922 52.4229 108.012 53.5793 109.466 53.5793C110.325 53.5793 111.052 53.1663 111.647 52.3568L112.869 53.2985C112.142 54.4714 110.92 55.1817 109.449 55.1817C107.054 55.1817 105.154 53.2985 105.154 50.9361ZM114.108 50.9361C114.058 48.6068 116.057 46.674 118.387 46.707C120.749 46.6575 122.748 48.6398 122.698 50.9361C122.748 53.2324 120.749 55.2313 118.387 55.1817C116.057 55.2313 114.058 53.2324 114.108 50.9361ZM120.914 50.9526C120.914 49.4493 119.807 48.2929 118.403 48.2929C116.966 48.2929 115.876 49.4493 115.876 50.9526C115.876 52.4559 116.966 53.5793 118.387 53.5793C119.824 53.5793 120.914 52.4229 120.914 50.9526ZM136.862 49.9284V55H135.111V50.1762C135.111 49.0363 134.467 48.2929 133.426 48.2929C132.369 48.2929 131.642 49.0528 131.642 50.0936V55H129.907V50.1762C129.907 49.0528 129.246 48.2929 128.206 48.2929C127.148 48.2929 126.421 49.0528 126.421 50.1762V55H124.687V46.8887H126.306V47.6486C126.884 47.0539 127.677 46.707 128.652 46.707C129.775 46.707 130.634 47.1861 131.113 47.979C131.708 47.2026 132.716 46.707 133.855 46.707C135.722 46.707 136.862 47.9956 136.862 49.9284ZM147.696 50.9361C147.696 53.3645 146.011 55.1817 143.715 55.1817C142.608 55.1817 141.65 54.7522 141.005 54.0088V57.9736H139.271V46.8887H140.89V48.0286C141.484 47.1861 142.525 46.707 143.715 46.707C146.011 46.707 147.696 48.5407 147.696 50.9361ZM145.912 50.9526C145.912 49.3998 144.838 48.2929 143.434 48.2929C142.162 48.2929 140.989 49.1685 140.989 50.9361C140.989 52.7203 142.162 53.5958 143.434 53.5958C144.822 53.5958 145.912 52.5055 145.912 50.9526ZM149.693 55V42.6101H151.427V55H149.693ZM153.935 55V46.8887H155.67V55H153.935ZM153.622 43.8656C153.622 43.2213 154.15 42.7092 154.811 42.7092C155.455 42.7092 155.984 43.2213 155.984 43.8656C155.984 44.5099 155.455 45.0055 154.811 45.0055C154.15 45.0055 153.622 44.5099 153.622 43.8656ZM164.472 46.8887H166.091V57.9736H164.34V54.0253C163.729 54.7687 162.754 55.1817 161.631 55.1817C159.351 55.1817 157.666 53.3645 157.666 50.9361C157.666 48.5407 159.351 46.707 161.631 46.707C162.837 46.707 163.878 47.2026 164.472 48.0451V46.8887ZM164.373 50.9361C164.373 49.1685 163.2 48.2929 161.928 48.2929C160.491 48.2929 159.434 49.4163 159.434 50.9526C159.434 52.5055 160.541 53.5958 161.928 53.5958C163.184 53.5958 164.373 52.6872 164.373 50.9361ZM168.518 51.5969V46.8887H170.236V51.7291C170.236 52.8524 171.012 53.5793 172.069 53.5793C173.077 53.5793 173.853 52.8524 173.853 51.7291V46.8887H175.588V51.5969C175.588 53.7775 174.052 55.1817 172.069 55.1817C170.037 55.1817 168.518 53.7775 168.518 51.5969ZM185.323 51.5143H179.277C179.492 52.8359 180.533 53.6454 181.92 53.6454C182.763 53.6454 183.556 53.3315 184.283 52.6872L185.109 53.8766C184.184 54.7522 183.11 55.1817 181.871 55.1817C179.393 55.1817 177.509 53.348 177.509 50.9526C177.46 48.6233 179.409 46.6575 181.706 46.707C183.853 46.707 185.456 48.3094 185.456 50.424C185.456 50.7709 185.406 51.1343 185.323 51.5143ZM179.31 50.1597H183.721C183.704 48.9207 182.779 48.1773 181.639 48.1773C180.5 48.1773 179.574 48.9537 179.31 50.1597ZM181.045 45.6167L182.35 42.1145H184.464V42.4284L182.333 45.6167H181.045ZM200.498 50.9361C200.498 53.3645 198.813 55.1817 196.517 55.1817C195.41 55.1817 194.452 54.7522 193.808 54.0088V57.9736H192.073V46.8887H193.692V48.0286C194.287 47.1861 195.328 46.707 196.517 46.707C198.813 46.707 200.498 48.5407 200.498 50.9361ZM198.714 50.9526C198.714 49.3998 197.64 48.2929 196.236 48.2929C194.964 48.2929 193.791 49.1685 193.791 50.9361C193.791 52.7203 194.964 53.5958 196.236 53.5958C197.624 53.5958 198.714 52.5055 198.714 50.9526ZM201.983 50.9361C201.933 48.6068 203.932 46.674 206.261 46.707C208.624 46.6575 210.623 48.6398 210.573 50.9361C210.623 53.2324 208.624 55.2313 206.261 55.1817C203.932 55.2313 201.933 53.2324 201.983 50.9361ZM208.789 50.9526C208.789 49.4493 207.682 48.2929 206.278 48.2929C204.841 48.2929 203.75 49.4493 203.75 50.9526C203.75 52.4559 204.841 53.5793 206.261 53.5793C207.699 53.5793 208.789 52.4229 208.789 50.9526ZM212.479 51.5969V46.8887H214.197V51.7291C214.197 52.8524 214.974 53.5793 216.031 53.5793C217.039 53.5793 217.815 52.8524 217.815 51.7291V46.8887H219.55V51.5969C219.55 53.7775 218.013 55.1817 216.031 55.1817C213.999 55.1817 212.479 53.7775 212.479 51.5969ZM226.625 46.8887V48.4251H226.097C224.726 48.4251 223.718 49.2346 223.718 50.6718V55H221.983V46.8887H223.602V47.946C224.18 47.2191 225.039 46.8061 225.965 46.8061C226.212 46.8061 226.427 46.8392 226.625 46.8887ZM241.233 50.9361C241.233 53.3645 239.548 55.1817 237.252 55.1817C236.145 55.1817 235.187 54.7522 234.543 54.0088V57.9736H232.808V46.8887H234.427V48.0286C235.022 47.1861 236.063 46.707 237.252 46.707C239.548 46.707 241.233 48.5407 241.233 50.9361ZM239.449 50.9526C239.449 49.3998 238.375 48.2929 236.971 48.2929C235.699 48.2929 234.526 49.1685 234.526 50.9361C234.526 52.7203 235.699 53.5958 236.971 53.5958C238.359 53.5958 239.449 52.5055 239.449 50.9526ZM247.872 46.8887V48.4251H247.343C245.972 48.4251 244.965 49.2346 244.965 50.6718V55H243.23V46.8887H244.849V47.946C245.427 47.2191 246.286 46.8061 247.211 46.8061C247.459 46.8061 247.674 46.8392 247.872 46.8887ZM256.565 51.5143H250.519C250.734 52.8359 251.775 53.6454 253.162 53.6454C254.005 53.6454 254.798 53.3315 255.525 52.6872L256.351 53.8766C255.426 54.7522 254.352 55.1817 253.113 55.1817C250.635 55.1817 248.752 53.348 248.752 50.9526C248.702 48.6233 250.651 46.6575 252.948 46.707C255.095 46.707 256.698 48.3094 256.698 50.424C256.698 50.7709 256.648 51.1343 256.565 51.5143ZM250.552 50.1597H254.963C254.946 48.9207 254.021 48.1773 252.882 48.1773C251.742 48.1773 250.817 48.9537 250.552 50.1597ZM265.772 49.9284V55H264.038V50.1597C264.038 49.0363 263.327 48.2764 262.27 48.2764C261.196 48.2764 260.42 49.0528 260.42 50.1597V55H258.685V46.8887H260.304V47.6817C260.915 47.0374 261.725 46.707 262.733 46.707C264.632 46.707 265.772 47.9956 265.772 49.9284ZM274.349 42.6101H276.1V55H274.481V53.8436C273.887 54.6861 272.846 55.1817 271.64 55.1817C269.36 55.1817 267.675 53.348 267.675 50.9526C267.626 48.5903 269.393 46.6575 271.64 46.707C272.763 46.707 273.738 47.1365 274.349 47.8799V42.6101ZM274.382 50.9526C274.382 49.2015 273.193 48.2929 271.937 48.2929C270.55 48.2929 269.443 49.3832 269.443 50.9361C269.443 52.489 270.5 53.5958 271.937 53.5958C273.209 53.5958 274.382 52.7203 274.382 50.9526ZM283.251 46.8887V48.4251H282.723C281.351 48.4251 280.344 49.2346 280.344 50.6718V55H278.609V46.8887H280.228V47.946C280.806 47.2191 281.665 46.8061 282.59 46.8061C282.838 46.8061 283.053 46.8392 283.251 46.8887ZM291.944 51.5143H285.898C286.113 52.8359 287.154 53.6454 288.541 53.6454C289.384 53.6454 290.177 53.3315 290.904 52.6872L291.73 53.8766C290.805 54.7522 289.731 55.1817 288.492 55.1817C286.014 55.1817 284.131 53.348 284.131 50.9526C284.081 48.6233 286.03 46.6575 288.327 46.707C290.474 46.707 292.077 48.3094 292.077 50.424C292.077 50.7709 292.027 51.1343 291.944 51.5143ZM285.931 50.1597H290.342C290.326 48.9207 289.4 48.1773 288.261 48.1773C287.121 48.1773 286.196 48.9537 285.931 50.1597ZM303.844 46.8887H305.694L301.779 55.1817H301.184L297.253 46.8887H299.103L301.482 52.2577L303.844 46.8887ZM306.426 50.9361C306.376 48.6068 308.375 46.674 310.705 46.707C313.067 46.6575 315.066 48.6398 315.016 50.9361C315.066 53.2324 313.067 55.2313 310.705 55.1817C308.375 55.2313 306.376 53.2324 306.426 50.9361ZM313.232 50.9526C313.232 49.4493 312.125 48.2929 310.721 48.2929C309.284 48.2929 308.194 49.4493 308.194 50.9526C308.194 52.4559 309.284 53.5793 310.705 53.5793C312.142 53.5793 313.232 52.4229 313.232 50.9526ZM316.245 53.6123L317.236 52.522C317.947 53.2654 318.657 53.6784 319.516 53.6784C320.259 53.6784 320.821 53.3645 320.821 52.7698C320.821 52.2907 320.474 52.0925 319.681 51.7621L318.855 51.4152C317.418 50.8205 316.741 50.1927 316.741 49.0528C316.741 47.5991 317.947 46.707 319.599 46.707C320.771 46.707 321.697 47.12 322.407 47.9625L321.465 49.0363C320.953 48.5077 320.276 48.2103 319.565 48.2103C318.888 48.2103 318.459 48.4746 318.459 48.9868C318.459 49.3998 318.739 49.6145 319.532 49.9449L320.309 50.2588C321.845 50.9031 322.523 51.5639 322.523 52.7037C322.523 53.4802 322.242 54.0914 321.664 54.5374C321.085 54.967 320.375 55.1817 319.516 55.1817C318.128 55.1817 316.972 54.554 316.245 53.6123ZM6.07932 74.5297V76C5.53416 76.1156 5.05509 76.1817 4.64209 76.1817C2.77534 76.1817 1.65199 75.2566 1.65199 73.3568V69.392H0.330398V67.8887H1.65199V65.7577H3.4031V67.8887H5.815V69.392H3.4031V73.2081C3.4031 74.2489 3.94825 74.6123 5.00553 74.6123C5.25333 74.6123 5.60024 74.5793 6.07932 74.5297ZM12.4797 67.8887V69.4251H11.9511C10.58 69.4251 9.57225 70.2346 9.57225 71.6718V76H7.83766V67.8887H9.45661V68.946C10.0348 68.2191 10.8938 67.8061 11.819 67.8061C12.0668 67.8061 12.2815 67.8392 12.4797 67.8887ZM20.314 71.0936V76H18.6951V75.0914C18.1004 75.8018 17.2083 76.1817 16.1015 76.1817C14.3999 76.1817 13.2766 75.2401 13.2766 73.8359C13.2766 72.4317 14.433 71.5231 16.2667 71.5231H18.5629V70.9945C18.5629 69.8711 17.9352 69.2599 16.8284 69.2599C15.9198 69.2599 15.259 69.6564 14.5816 70.4658L13.5739 69.4416C14.3834 68.2687 15.5894 67.707 16.9936 67.707C18.9925 67.707 20.314 68.913 20.314 71.0936ZM18.5629 72.9273V72.7786H16.4814C15.5563 72.7786 15.0442 73.109 15.0442 73.7698C15.0442 74.4471 15.6224 74.8436 16.4649 74.8436C17.6378 74.8436 18.5629 74.0341 18.5629 72.9273ZM22.7281 76V67.8887H24.4627V76H22.7281ZM22.4143 64.8656C22.4143 64.2213 22.9429 63.7092 23.6037 63.7092C24.248 63.7092 24.7766 64.2213 24.7766 64.8656C24.7766 65.5099 24.248 66.0055 23.6037 66.0055C22.9429 66.0055 22.4143 65.5099 22.4143 64.8656ZM31.7949 74.5297V76C31.2497 76.1156 30.7706 76.1817 30.3576 76.1817C28.4909 76.1817 27.3675 75.2566 27.3675 73.3568V69.392H26.0459V67.8887H27.3675V65.7577H29.1186V67.8887H31.5305V69.392H29.1186V73.2081C29.1186 74.2489 29.6638 74.6123 30.7211 74.6123C30.9689 74.6123 31.3158 74.5793 31.7949 74.5297ZM40.6937 72.5143H34.6474C34.8621 73.8359 35.9029 74.6454 37.2906 74.6454C38.1331 74.6454 38.926 74.3315 39.6529 73.6872L40.4789 74.8766C39.5538 75.7522 38.48 76.1817 37.241 76.1817C34.763 76.1817 32.8798 74.348 32.8798 71.9526C32.8302 69.6233 34.7795 67.6575 37.0758 67.707C39.2234 67.707 40.8258 69.3094 40.8258 71.424C40.8258 71.7709 40.7763 72.1343 40.6937 72.5143ZM34.6804 71.1597H39.0912C39.0747 69.9207 38.1496 69.1773 37.0097 69.1773C35.8699 69.1773 34.9447 69.9537 34.6804 71.1597ZM54.9885 70.9284V76H53.2374V71.1762C53.2374 70.0363 52.5931 69.2929 51.5524 69.2929C50.4951 69.2929 49.7682 70.0528 49.7682 71.0936V76H48.0337V71.1762C48.0337 70.0528 47.3729 69.2929 46.3321 69.2929C45.2748 69.2929 44.548 70.0528 44.548 71.1762V76H42.8134V67.8887H44.4323V68.6486C45.0105 68.0539 45.8035 67.707 46.7781 67.707C47.9015 67.707 48.7605 68.1861 49.2396 68.979C49.8343 68.2026 50.842 67.707 51.9819 67.707C53.8487 67.707 54.9885 68.9956 54.9885 70.9284ZM64.6991 72.5143H58.6529C58.8676 73.8359 59.9084 74.6454 61.296 74.6454C62.1385 74.6454 62.9315 74.3315 63.6584 73.6872L64.4844 74.8766C63.5593 75.7522 62.4855 76.1817 61.2465 76.1817C58.7685 76.1817 56.8852 74.348 56.8852 71.9526C56.8357 69.6233 58.785 67.6575 61.0813 67.707C63.2289 67.707 64.8313 69.3094 64.8313 71.424C64.8313 71.7709 64.7817 72.1343 64.6991 72.5143ZM58.6859 71.1597H63.0967C63.0802 69.9207 62.1551 69.1773 61.0152 69.1773C59.8753 69.1773 58.9502 69.9537 58.6859 71.1597ZM73.9059 70.9284V76H72.1713V71.1597C72.1713 70.0363 71.4609 69.2764 70.4037 69.2764C69.3299 69.2764 68.5534 70.0528 68.5534 71.1597V76H66.8188V67.8887H68.4378V68.6817C69.049 68.0374 69.8585 67.707 70.8662 67.707C72.766 67.707 73.9059 68.9956 73.9059 70.9284ZM81.1448 74.5297V76C80.5997 76.1156 80.1206 76.1817 79.7076 76.1817C77.8408 76.1817 76.7175 75.2566 76.7175 73.3568V69.392H75.3959V67.8887H76.7175V65.7577H78.4686V67.8887H80.8805V69.392H78.4686V73.2081C78.4686 74.2489 79.0137 74.6123 80.071 74.6123C80.3188 74.6123 80.6657 74.5793 81.1448 74.5297ZM82.1432 74.6123L83.1344 73.522C83.8448 74.2654 84.5551 74.6784 85.4142 74.6784C86.1576 74.6784 86.7192 74.3645 86.7192 73.7698C86.7192 73.2907 86.3723 73.0925 85.5794 72.7621L84.7534 72.4152C83.3161 71.8205 82.6388 71.1927 82.6388 70.0528C82.6388 68.5991 83.8448 67.707 85.4968 67.707C86.6697 67.707 87.5948 68.12 88.3052 68.9625L87.3635 70.0363C86.8514 69.5077 86.1741 69.2103 85.4637 69.2103C84.7864 69.2103 84.3569 69.4746 84.3569 69.9868C84.3569 70.3998 84.6377 70.6145 85.4307 70.9449L86.2071 71.2588C87.7435 71.9031 88.4208 72.5639 88.4208 73.7037C88.4208 74.4802 88.14 75.0914 87.5618 75.5374C86.9836 75.967 86.2732 76.1817 85.4142 76.1817C84.0265 76.1817 82.8701 75.554 82.1432 74.6123ZM90.1897 74.9097C90.1897 74.1828 90.7679 73.6211 91.4948 73.6211C92.2217 73.6211 92.7668 74.1663 92.7668 74.9097C92.7668 75.6366 92.2217 76.1817 91.4948 76.1817C90.7679 76.1817 90.1897 75.6366 90.1897 74.9097ZM106.21 65.0969H108.176L103.368 76.1817H102.774L97.9663 65.0969H99.9322L103.071 72.6795L106.21 65.0969ZM108.284 71.9361C108.234 69.6068 110.233 67.674 112.563 67.707C114.925 67.6575 116.924 69.6398 116.874 71.9361C116.924 74.2324 114.925 76.2313 112.563 76.1817C110.233 76.2313 108.234 74.2324 108.284 71.9361ZM115.09 71.9526C115.09 70.4493 113.983 69.2929 112.579 69.2929C111.142 69.2929 110.052 70.4493 110.052 71.9526C110.052 73.4559 111.142 74.5793 112.563 74.5793C114 74.5793 115.09 73.4229 115.09 71.9526ZM118.863 76V67.8887H120.598V76H118.863ZM118.549 64.8656C118.549 64.2213 119.078 63.7092 119.739 63.7092C120.383 63.7092 120.911 64.2213 120.911 64.8656C120.911 65.5099 120.383 66.0055 119.739 66.0055C119.078 66.0055 118.549 65.5099 118.549 64.8656ZM122.594 71.9361C122.544 69.6068 124.56 67.674 126.889 67.707C128.392 67.707 129.598 68.4174 130.309 69.5903L129.086 70.5484C128.508 69.7224 127.781 69.3094 126.905 69.3094C125.452 69.3094 124.361 70.4658 124.361 71.9361C124.361 73.4229 125.452 74.5793 126.905 74.5793C127.764 74.5793 128.491 74.1663 129.086 73.3568L130.309 74.2985C129.582 75.4714 128.359 76.1817 126.889 76.1817C124.494 76.1817 122.594 74.2985 122.594 71.9361ZM132.221 76V67.8887H133.955V76H132.221ZM131.907 64.8656C131.907 64.2213 132.436 63.7092 133.096 63.7092C133.741 63.7092 134.269 64.2213 134.269 64.8656C134.269 65.5099 133.741 66.0055 133.096 66.0055C132.436 66.0055 131.907 65.5099 131.907 64.8656ZM147.388 67.8887H149.007V78.9736H147.256V75.0253C146.645 75.7687 145.67 76.1817 144.546 76.1817C142.267 76.1817 140.582 74.3645 140.582 71.9361C140.582 69.5407 142.267 67.707 144.546 67.707C145.752 67.707 146.793 68.2026 147.388 69.0451V67.8887ZM147.289 71.9361C147.289 70.1685 146.116 69.2929 144.844 69.2929C143.407 69.2929 142.349 70.4163 142.349 71.9526C142.349 73.5055 143.456 74.5958 144.844 74.5958C146.099 74.5958 147.289 73.6872 147.289 71.9361ZM151.433 72.5969V67.8887H153.151V72.7291C153.151 73.8524 153.927 74.5793 154.985 74.5793C155.992 74.5793 156.769 73.8524 156.769 72.7291V67.8887H158.503V72.5969C158.503 74.7775 156.967 76.1817 154.985 76.1817C152.953 76.1817 151.433 74.7775 151.433 72.5969ZM168.239 72.5143H162.193C162.407 73.8359 163.448 74.6454 164.836 74.6454C165.678 74.6454 166.471 74.3315 167.198 73.6872L168.024 74.8766C167.099 75.7522 166.025 76.1817 164.786 76.1817C162.308 76.1817 160.425 74.348 160.425 71.9526C160.375 69.6233 162.325 67.6575 164.621 67.707C166.769 67.707 168.371 69.3094 168.371 71.424C168.371 71.7709 168.321 72.1343 168.239 72.5143ZM162.226 71.1597H166.636C166.62 69.9207 165.695 69.1773 164.555 69.1773C163.415 69.1773 162.49 69.9537 162.226 71.1597ZM170.359 76V63.6101H172.093V76H170.359ZM180.896 67.8887H182.515V78.9736H180.763V75.0253C180.152 75.7687 179.177 76.1817 178.054 76.1817C175.774 76.1817 174.089 74.3645 174.089 71.9361C174.089 69.5407 175.774 67.707 178.054 67.707C179.26 67.707 180.301 68.2026 180.896 69.0451V67.8887ZM180.796 71.9361C180.796 70.1685 179.624 69.2929 178.351 69.2929C176.914 69.2929 175.857 70.4163 175.857 71.9526C175.857 73.5055 176.964 74.5958 178.351 74.5958C179.607 74.5958 180.796 73.6872 180.796 71.9361ZM184.941 72.5969V67.8887H186.659V72.7291C186.659 73.8524 187.435 74.5793 188.492 74.5793C189.5 74.5793 190.277 73.8524 190.277 72.7291V67.8887H192.011V72.5969C192.011 74.7775 190.475 76.1817 188.492 76.1817C186.46 76.1817 184.941 74.7775 184.941 72.5969ZM201.746 72.5143H195.7C195.915 73.8359 196.956 74.6454 198.343 74.6454C199.186 74.6454 199.979 74.3315 200.706 73.6872L201.532 74.8766C200.607 75.7522 199.533 76.1817 198.294 76.1817C195.816 76.1817 193.933 74.348 193.933 71.9526C193.883 69.6233 195.832 67.6575 198.129 67.707C200.276 67.707 201.879 69.3094 201.879 71.424C201.879 71.7709 201.829 72.1343 201.746 72.5143ZM195.733 71.1597H200.144C200.128 69.9207 199.202 69.1773 198.063 69.1773C196.923 69.1773 195.998 69.9537 195.733 71.1597ZM203.106 74.6123L204.097 73.522C204.808 74.2654 205.518 74.6784 206.377 74.6784C207.121 74.6784 207.682 74.3645 207.682 73.7698C207.682 73.2907 207.335 73.0925 206.542 72.7621L205.716 72.4152C204.279 71.8205 203.602 71.1927 203.602 70.0528C203.602 68.5991 204.808 67.707 206.46 67.707C207.633 67.707 208.558 68.12 209.268 68.9625L208.327 70.0363C207.814 69.5077 207.137 69.2103 206.427 69.2103C205.749 69.2103 205.32 69.4746 205.32 69.9868C205.32 70.3998 205.601 70.6145 206.394 70.9449L207.17 71.2588C208.707 71.9031 209.384 72.5639 209.384 73.7037C209.384 74.4802 209.103 75.0914 208.525 75.5374C207.947 75.967 207.236 76.1817 206.377 76.1817C204.99 76.1817 203.833 75.554 203.106 74.6123ZM215.502 71.9361C215.452 69.6068 217.468 67.674 219.797 67.707C221.3 67.707 222.506 68.4174 223.217 69.5903L221.994 70.5484C221.416 69.7224 220.689 69.3094 219.814 69.3094C218.36 69.3094 217.27 70.4658 217.27 71.9361C217.27 73.4229 218.36 74.5793 219.814 74.5793C220.673 74.5793 221.4 74.1663 221.994 73.3568L223.217 74.2985C222.49 75.4714 221.267 76.1817 219.797 76.1817C217.402 76.1817 215.502 74.2985 215.502 71.9361ZM224.456 71.9361C224.406 69.6068 226.405 67.674 228.734 67.707C231.097 67.6575 233.096 69.6398 233.046 71.9361C233.096 74.2324 231.097 76.2313 228.734 76.1817C226.405 76.2313 224.406 74.2324 224.456 71.9361ZM231.262 71.9526C231.262 70.4493 230.155 69.2929 228.751 69.2929C227.314 69.2929 226.223 70.4493 226.223 71.9526C226.223 73.4559 227.314 74.5793 228.734 74.5793C230.172 74.5793 231.262 73.4229 231.262 71.9526ZM242.122 70.9284V76H240.387V71.1597C240.387 70.0363 239.677 69.2764 238.619 69.2764C237.546 69.2764 236.769 70.0528 236.769 71.1597V76H235.035V67.8887H236.654V68.6817C237.265 68.0374 238.074 67.707 239.082 67.707C240.982 67.707 242.122 68.9956 242.122 70.9284ZM243.777 74.6123L244.768 73.522C245.478 74.2654 246.189 74.6784 247.048 74.6784C247.791 74.6784 248.353 74.3645 248.353 73.7698C248.353 73.2907 248.006 73.0925 247.213 72.7621L246.387 72.4152C244.95 71.8205 244.272 71.1927 244.272 70.0528C244.272 68.5991 245.478 67.707 247.13 67.707C248.303 67.707 249.228 68.12 249.939 68.9625L248.997 70.0363C248.485 69.5077 247.808 69.2103 247.097 69.2103C246.42 69.2103 245.991 69.4746 245.991 69.9868C245.991 70.3998 246.271 70.6145 247.064 70.9449L247.841 71.2588C249.377 71.9031 250.054 72.5639 250.054 73.7037C250.054 74.4802 249.774 75.0914 249.195 75.5374C248.617 75.967 247.907 76.1817 247.048 76.1817C245.66 76.1817 244.504 75.554 243.777 74.6123ZM259.356 72.5143H253.31C253.525 73.8359 254.566 74.6454 255.953 74.6454C256.796 74.6454 257.589 74.3315 258.316 73.6872L259.142 74.8766C258.217 75.7522 257.143 76.1817 255.904 76.1817C253.426 76.1817 251.542 74.348 251.542 71.9526C251.493 69.6233 253.442 67.6575 255.739 67.707C257.886 67.707 259.489 69.3094 259.489 71.424C259.489 71.7709 259.439 72.1343 259.356 72.5143ZM253.343 71.1597H257.754C257.737 69.9207 256.812 69.1773 255.672 69.1773C254.533 69.1773 253.607 69.9537 253.343 71.1597ZM261.476 76V67.8887H263.211V76H261.476ZM261.162 64.8656C261.162 64.2213 261.691 63.7092 262.352 63.7092C262.996 63.7092 263.525 64.2213 263.525 64.8656C263.525 65.5099 262.996 66.0055 262.352 66.0055C261.691 66.0055 261.162 65.5099 261.162 64.8656ZM265.719 76V63.6101H267.454V76H265.719ZM269.202 74.6123L270.193 73.522C270.904 74.2654 271.614 74.6784 272.473 74.6784C273.216 74.6784 273.778 74.3645 273.778 73.7698C273.778 73.2907 273.431 73.0925 272.638 72.7621L271.812 72.4152C270.375 71.8205 269.698 71.1927 269.698 70.0528C269.698 68.5991 270.904 67.707 272.556 67.707C273.728 67.707 274.654 68.12 275.364 68.9625L274.422 70.0363C273.91 69.5077 273.233 69.2103 272.522 69.2103C271.845 69.2103 271.416 69.4746 271.416 69.9868C271.416 70.3998 271.696 70.6145 272.489 70.9449L273.266 71.2588C274.802 71.9031 275.48 72.5639 275.48 73.7037C275.48 74.4802 275.199 75.0914 274.621 75.5374C274.042 75.967 273.332 76.1817 272.473 76.1817C271.085 76.1817 269.929 75.554 269.202 74.6123ZM281.879 69.0616C281.879 68.3348 282.457 67.7731 283.184 67.7731C283.911 67.7731 284.456 68.3182 284.456 69.0616C284.456 69.7885 283.911 70.3337 283.184 70.3337C282.457 70.3337 281.879 69.7885 281.879 69.0616ZM281.879 74.9097C281.879 74.1828 282.457 73.6211 283.184 73.6211C283.911 73.6211 284.456 74.1663 284.456 74.9097C284.456 75.6366 283.911 76.1817 283.184 76.1817C282.457 76.1817 281.879 75.6366 281.879 74.9097Z" fill="#8BA0AC"/>
</svg>
