<svg width="196" height="44" viewBox="0 0 196 44" fill="none" xmlns="http://www.w3.org/2000/svg">
<path d="M0.911114 16.9788L2.76391 15.5842C3.62058 16.7597 4.55694 17.4968 5.99136 17.4968C7.16679 17.4968 7.86408 16.939 7.86408 16.0425C7.86408 15.2655 7.44571 14.9866 6.19059 14.4088L4.77609 13.7713C2.76391 12.8748 1.58848 11.7392 1.58848 9.98601C1.58848 7.73476 3.4612 6.26049 5.95152 6.26049C7.96369 6.26049 9.4778 7.2367 10.2946 8.75081L8.46175 10.1653C7.78439 9.14926 6.94764 8.6512 5.95152 8.6512C5.01516 8.6512 4.31787 9.10942 4.31787 9.92624C4.31787 10.6235 4.73624 10.9423 5.8519 11.4404L7.34609 12.0978C9.55749 13.074 10.5935 14.1697 10.5935 15.9428C10.5935 18.3535 8.62114 19.8875 5.99136 19.8875C3.76004 19.8875 1.92716 18.7519 0.911114 16.9788ZM21.8416 15.6241H14.9285C15.2472 16.8792 16.2633 17.5765 17.6977 17.5765C18.6739 17.5765 19.5904 17.2378 20.447 16.5804L21.5627 18.4132C20.3873 19.3894 19.0724 19.8875 17.618 19.8875C14.5699 19.9473 12.1593 17.5765 12.219 14.7276C12.1593 11.8786 14.53 9.50787 17.379 9.56763C20.1083 9.56763 22.0209 11.5798 22.0209 14.1498C22.0209 14.628 21.9611 15.126 21.8416 15.6241ZM14.9285 13.7314H19.4111C19.3911 12.5162 18.4548 11.7392 17.2793 11.7392C16.1438 11.7392 15.2273 12.5162 14.9285 13.7314ZM39.3204 13.5322V19.6484H36.6308V13.9107C36.6308 12.7353 35.9335 11.9982 34.8776 11.9982C33.8217 11.9982 33.0647 12.7552 33.0647 13.851V19.6484H30.3751V13.9107C30.3751 12.7353 29.6779 11.9982 28.622 11.9982C27.5262 11.9982 26.809 12.7353 26.809 13.9107V19.6484H24.1195V9.78678H26.5899V10.6634C27.2473 9.96609 28.2434 9.56763 29.379 9.56763C30.674 9.56763 31.6502 10.0458 32.3076 10.9821C33.0846 10.1055 34.2401 9.56763 35.5948 9.56763C37.9059 9.56763 39.3204 11.1415 39.3204 13.5322ZM50.1503 13.7912V19.6484H47.6799V18.6922C46.9627 19.4293 45.9267 19.8875 44.6716 19.8875C42.5797 19.8875 41.2648 18.6722 41.2648 16.939C41.2648 15.1659 42.6992 14.0701 44.9903 14.0701H47.4607V13.6318C47.4607 12.5361 46.8232 11.8986 45.6279 11.8986C44.6118 11.8986 43.8946 12.3169 43.018 13.2533L41.6234 11.5997C42.759 10.245 44.1934 9.56763 45.9267 9.56763C48.4967 9.56763 50.1503 11.0618 50.1503 13.7912ZM47.4607 15.9628V15.8432H45.3489C44.4724 15.8432 43.9743 16.1819 43.9743 16.8394C43.9743 17.4968 44.5321 17.9152 45.3888 17.9152C46.5642 17.9152 47.4607 17.0984 47.4607 15.9628ZM52.7386 19.6484V9.78678H55.4282V19.6484H52.7386ZM52.3601 6.20073C52.3601 5.24445 53.1172 4.52723 54.0735 4.52723C55.0297 4.52723 55.8067 5.24445 55.8067 6.20073C55.8067 7.13709 55.0297 7.8543 54.0735 7.8543C53.1172 7.8543 52.3601 7.13709 52.3601 6.20073ZM67.1537 13.5322V19.6484H64.4841V13.8908C64.4841 12.7552 63.7469 11.9783 62.6512 11.9783C61.5555 11.9783 60.7785 12.7552 60.7785 13.8908V19.6484H58.0889V9.78678H60.5593V10.6833C61.2566 9.98601 62.2727 9.56763 63.4481 9.56763C65.7392 9.56763 67.1537 11.1415 67.1537 13.5322ZM78.8076 15.6241H71.8945C72.2132 16.8792 73.2293 17.5765 74.6637 17.5765C75.6399 17.5765 76.5564 17.2378 77.413 16.5804L78.5287 18.4132C77.3533 19.3894 76.0384 19.8875 74.584 19.8875C71.5359 19.9473 69.1252 17.5765 69.185 14.7276C69.1252 11.8786 71.496 9.50787 74.345 9.56763C77.0743 9.56763 78.9869 11.5798 78.9869 14.1498C78.9869 14.628 78.9271 15.126 78.8076 15.6241ZM71.8945 13.7314H76.377C76.3571 12.5162 75.4208 11.7392 74.2453 11.7392C73.1098 11.7392 72.1933 12.5162 71.8945 13.7314ZM90.6139 6.49957H91.5104V19.6484H88.8208V9.68717L86.3305 10.4841L85.693 8.11329L90.6139 6.49957ZM99.8508 11.4603C99.8508 10.4243 100.668 9.60748 101.723 9.60748C102.759 9.60748 103.556 10.4243 103.556 11.4603C103.556 12.5162 102.779 13.3131 101.723 13.3131C100.668 13.3131 99.8508 12.5162 99.8508 11.4603ZM99.8508 18.0347C99.8508 16.9987 100.668 16.1819 101.723 16.1819C102.759 16.1819 103.556 16.9987 103.556 18.0347C103.556 19.0906 102.779 19.8875 101.723 19.8875C100.668 19.8875 99.8508 19.0906 99.8508 18.0347ZM110.68 16.9788L112.532 15.5842C113.389 16.7597 114.325 17.4968 115.76 17.4968C116.935 17.4968 117.633 16.939 117.633 16.0425C117.633 15.2655 117.214 14.9866 115.959 14.4088L114.545 13.7713C112.532 12.8748 111.357 11.7392 111.357 9.98601C111.357 7.73476 113.23 6.26049 115.72 6.26049C117.732 6.26049 119.246 7.2367 120.063 8.75081L118.23 10.1653C117.553 9.14926 116.716 8.6512 115.72 8.6512C114.784 8.6512 114.086 9.10942 114.086 9.92624C114.086 10.6235 114.505 10.9423 115.62 11.4404L117.115 12.0978C119.326 13.074 120.362 14.1697 120.362 15.9428C120.362 18.3535 118.39 19.8875 115.76 19.8875C113.529 19.8875 111.696 18.7519 110.68 16.9788ZM129.279 9.78678H132.108L127.387 20.5051C126.49 22.5571 125.295 23.4736 123.462 23.4736C122.904 23.4736 122.326 23.3939 121.729 23.2345V20.9832C122.346 21.043 122.725 21.0629 122.884 21.0629C123.84 21.0629 124.478 20.7641 124.936 19.7281L125.235 19.0508L121.45 9.78678H124.299L126.709 16.2616L129.279 9.78678ZM142.739 13.5322V19.6484H140.069V13.8908C140.069 12.7552 139.332 11.9783 138.236 11.9783C137.14 11.9783 136.363 12.7552 136.363 13.8908V19.6484H133.674V9.78678H136.144V10.6833C136.842 9.98601 137.858 9.56763 139.033 9.56763C141.324 9.56763 142.739 11.1415 142.739 13.5322ZM151.663 17.3972V19.6484C151.026 19.8078 150.408 19.8875 149.81 19.8875C147.32 19.8875 145.866 18.6523 145.866 16.1819V12.058H144.312V9.78678H145.866V7.29647H148.555V9.78678H151.344V12.058H148.555V15.9428C148.555 17.0585 149.113 17.4769 150.388 17.4769C150.548 17.4769 150.966 17.457 151.663 17.3972ZM162.681 13.5322V19.6484H160.011V13.9107C160.011 12.7752 159.274 11.9982 158.178 11.9982C157.082 11.9982 156.305 12.7752 156.305 13.9107V19.6484H153.616V4.70654H156.305V10.6235C156.963 9.96609 157.919 9.56763 159.015 9.56763C161.246 9.56763 162.681 11.1415 162.681 13.5322ZM174.335 15.6241H167.421C167.74 16.8792 168.756 17.5765 170.191 17.5765C171.167 17.5765 172.083 17.2378 172.94 16.5804L174.056 18.4132C172.88 19.3894 171.565 19.8875 170.111 19.8875C167.063 19.9473 164.652 17.5765 164.712 14.7276C164.652 11.8786 167.023 9.50787 169.872 9.56763C172.601 9.56763 174.514 11.5798 174.514 14.1498C174.514 14.628 174.454 15.126 174.335 15.6241ZM167.421 13.7314H171.904C171.884 12.5162 170.948 11.7392 169.772 11.7392C168.637 11.7392 167.72 12.5162 167.421 13.7314ZM168.896 8.27267L166.166 4.587V4.10886H169.394L170.848 8.27267H168.896ZM175.716 17.9749L177.071 16.3413C177.927 17.2378 178.864 17.6761 179.84 17.6761C180.557 17.6761 181.095 17.3972 181.095 16.8593C181.095 16.4409 180.816 16.2815 180.079 15.9628L179.023 15.5245C177.21 14.7873 176.334 13.9705 176.334 12.5162C176.334 10.6634 177.808 9.56763 179.959 9.56763C181.434 9.56763 182.609 10.0657 183.506 11.0419L182.151 12.6955C181.493 12.0779 180.756 11.7591 179.94 11.7591C179.282 11.7591 178.884 11.9982 178.884 12.4564C178.884 12.8349 179.143 13.0142 179.92 13.333L180.876 13.7314C182.788 14.5084 183.645 15.2854 183.645 16.7397C183.645 17.716 183.287 18.4929 182.549 19.0508C181.832 19.6086 180.916 19.8875 179.8 19.8875C178.067 19.8875 176.612 19.1703 175.716 17.9749ZM194.743 15.6241H187.83C188.149 16.8792 189.165 17.5765 190.6 17.5765C191.576 17.5765 192.492 17.2378 193.349 16.5804L194.465 18.4132C193.289 19.3894 191.974 19.8875 190.52 19.8875C187.472 19.9473 185.061 17.5765 185.121 14.7276C185.061 11.8786 187.432 9.50787 190.281 9.56763C193.01 9.56763 194.923 11.5798 194.923 14.1498C194.923 14.628 194.863 15.126 194.743 15.6241ZM187.83 13.7314H192.313C192.293 12.5162 191.357 11.7392 190.181 11.7392C189.046 11.7392 188.129 12.5162 187.83 13.7314Z" fill="#03314B"/>
<rect x="49" y="38.7383" width="97.8677" height="4.87713" fill="#FEDE44"/>
</svg>
