<svg width="360" height="250" viewBox="0 0 360 250" fill="none" xmlns="http://www.w3.org/2000/svg">
<rect x="1" y="1" width="358" height="248" rx="10.09" fill="white" stroke="#E6EAED" stroke-width="2"/>
<path d="M53.5821 231.529C53.5821 233.006 52.5576 234.11 51.1614 234.11C50.4884 234.11 49.9058 233.849 49.5141 233.397V235.808H48.4594V229.068H49.4438V229.761C49.8054 229.249 50.4382 228.958 51.1614 228.958C52.5576 228.958 53.5821 230.073 53.5821 231.529ZM52.4973 231.539C52.4973 230.595 51.8444 229.922 50.9906 229.922C50.2172 229.922 49.504 230.454 49.504 231.529C49.504 232.614 50.2172 233.146 50.9906 233.146C51.8344 233.146 52.4973 232.483 52.4973 231.539ZM57.6185 229.068V230.002H57.2971C56.4634 230.002 55.8507 230.494 55.8507 231.368V234H54.7961V229.068H55.7804V229.711C56.132 229.269 56.6543 229.018 57.2168 229.018C57.3674 229.018 57.498 229.038 57.6185 229.068ZM58.5627 234V229.068H59.6174V234H58.5627ZM58.3719 227.23C58.3719 226.838 58.6933 226.527 59.0951 226.527C59.4868 226.527 59.8082 226.838 59.8082 227.23C59.8082 227.622 59.4868 227.923 59.0951 227.923C58.6933 227.923 58.3719 227.622 58.3719 227.23ZM60.6805 233.156L61.2831 232.493C61.715 232.945 62.1469 233.196 62.6693 233.196C63.1213 233.196 63.4628 233.006 63.4628 232.644C63.4628 232.353 63.2518 232.232 62.7697 232.031L62.2675 231.82C61.3936 231.459 60.9818 231.077 60.9818 230.384C60.9818 229.5 61.715 228.958 62.7195 228.958C63.4326 228.958 63.9951 229.209 64.427 229.721L63.8545 230.374C63.5431 230.053 63.1313 229.872 62.6994 229.872C62.2876 229.872 62.0264 230.032 62.0264 230.344C62.0264 230.595 62.1972 230.726 62.6793 230.926L63.1514 231.117C64.0855 231.509 64.4973 231.911 64.4973 232.604C64.4973 233.076 64.3266 233.448 63.975 233.719C63.6235 233.98 63.1916 234.11 62.6693 234.11C61.8255 234.11 61.1224 233.729 60.6805 233.156ZM70.1531 231.881H66.4769C66.6075 232.684 67.2403 233.176 68.084 233.176C68.5963 233.176 69.0784 232.986 69.5203 232.594L70.0226 233.317C69.4601 233.849 68.8072 234.11 68.0539 234.11C66.5472 234.11 65.4021 232.996 65.4021 231.539C65.372 230.123 66.5572 228.928 67.9534 228.958C69.2592 228.958 70.2335 229.932 70.2335 231.218C70.2335 231.429 70.2034 231.65 70.1531 231.881ZM66.497 231.057H69.1788C69.1688 230.304 68.6063 229.852 67.9132 229.852C67.2202 229.852 66.6577 230.324 66.497 231.057ZM77.3883 229.068H78.5133L76.1327 234.11H75.7711L73.3806 229.068H74.5055L75.9519 232.333L77.3883 229.068ZM83.1869 231.017V234H82.2026V233.448C81.841 233.879 81.2986 234.11 80.6256 234.11C79.591 234.11 78.908 233.538 78.908 232.684C78.908 231.83 79.6111 231.278 80.726 231.278H82.1222V230.957C82.1222 230.274 81.7405 229.902 81.0675 229.902C80.5151 229.902 80.1133 230.143 79.7015 230.635L79.0888 230.012C79.581 229.299 80.3142 228.958 81.168 228.958C82.3834 228.958 83.1869 229.691 83.1869 231.017ZM82.1222 232.132V232.041H80.8566C80.2941 232.041 79.9827 232.242 79.9827 232.644C79.9827 233.056 80.3343 233.297 80.8466 233.297C81.5597 233.297 82.1222 232.805 82.1222 232.132ZM84.6547 234V226.467H85.7094V234H84.6547ZM87.2345 234V229.068H88.2892V234H87.2345ZM87.0437 227.23C87.0437 226.838 87.3651 226.527 87.7669 226.527C88.1586 226.527 88.48 226.838 88.48 227.23C88.48 227.622 88.1586 227.923 87.7669 227.923C87.3651 227.923 87.0437 227.622 87.0437 227.23ZM93.5609 226.467H94.6256V234H93.6412V233.297C93.2796 233.809 92.6468 234.11 91.9136 234.11C90.5274 234.11 89.5029 232.996 89.5029 231.539C89.4728 230.103 90.5475 228.928 91.9136 228.958C92.5966 228.958 93.1892 229.219 93.5609 229.671V226.467ZM93.581 231.539C93.581 230.474 92.8578 229.922 92.0944 229.922C91.2506 229.922 90.5777 230.585 90.5777 231.529C90.5777 232.473 91.2205 233.146 92.0944 233.146C92.8678 233.146 93.581 232.614 93.581 231.539ZM100.591 231.881H96.9143C97.0449 232.684 97.6777 233.176 98.5214 233.176C99.0337 233.176 99.5158 232.986 99.9578 232.594L100.46 233.317C99.8975 233.849 99.2446 234.11 98.4913 234.11C96.9846 234.11 95.8395 232.996 95.8395 231.539C95.8094 230.123 96.9947 228.928 98.3908 228.958C99.6966 228.958 100.671 229.932 100.671 231.218C100.671 231.429 100.641 231.65 100.591 231.881ZM96.9344 231.057H99.6163C99.6062 230.304 99.0437 229.852 98.3507 229.852C97.6576 229.852 97.0951 230.324 96.9344 231.057ZM97.9891 228.295L98.7826 226.165H100.068V226.356L98.7725 228.295H97.9891ZM106.319 231.881H102.643C102.773 232.684 103.406 233.176 104.25 233.176C104.762 233.176 105.244 232.986 105.686 232.594L106.188 233.317C105.626 233.849 104.973 234.11 104.22 234.11C102.713 234.11 101.568 232.996 101.568 231.539C101.538 230.123 102.723 228.928 104.119 228.958C105.425 228.958 106.399 229.932 106.399 231.218C106.399 231.429 106.369 231.65 106.319 231.881ZM102.663 231.057H105.345C105.335 230.304 104.772 229.852 104.079 229.852C103.386 229.852 102.824 230.324 102.663 231.057Z" fill="#03314B"/>
<rect x="17.6033" y="227" width="24.9043" height="8" rx="2.51111" fill="#2CE080"/>
<path d="M160.463 231.529C160.463 233.006 159.438 234.11 158.042 234.11C157.369 234.11 156.786 233.849 156.395 233.397V235.808H155.34V229.068H156.324V229.761C156.686 229.249 157.319 228.958 158.042 228.958C159.438 228.958 160.463 230.073 160.463 231.529ZM159.378 231.539C159.378 230.595 158.725 229.922 157.871 229.922C157.098 229.922 156.385 230.454 156.385 231.529C156.385 232.614 157.098 233.146 157.871 233.146C158.715 233.146 159.378 232.483 159.378 231.539ZM164.499 229.068V230.002H164.178C163.344 230.002 162.731 230.494 162.731 231.368V234H161.677V229.068H162.661V229.711C163.012 229.269 163.535 229.018 164.097 229.018C164.248 229.018 164.379 229.038 164.499 229.068ZM165.443 234V229.068H166.498V234H165.443ZM165.252 227.23C165.252 226.838 165.574 226.527 165.976 226.527C166.367 226.527 166.689 226.838 166.689 227.23C166.689 227.622 166.367 227.923 165.976 227.923C165.574 227.923 165.252 227.622 165.252 227.23ZM167.561 233.156L168.164 232.493C168.596 232.945 169.027 233.196 169.55 233.196C170.002 233.196 170.343 233.006 170.343 232.644C170.343 232.353 170.132 232.232 169.65 232.031L169.148 231.82C168.274 231.459 167.862 231.077 167.862 230.384C167.862 229.5 168.596 228.958 169.6 228.958C170.313 228.958 170.876 229.209 171.308 229.721L170.735 230.374C170.424 230.053 170.012 229.872 169.58 229.872C169.168 229.872 168.907 230.032 168.907 230.344C168.907 230.595 169.078 230.726 169.56 230.926L170.032 231.117C170.966 231.509 171.378 231.911 171.378 232.604C171.378 233.076 171.207 233.448 170.856 233.719C170.504 233.98 170.072 234.11 169.55 234.11C168.706 234.11 168.003 233.729 167.561 233.156ZM177.034 231.881H173.357C173.488 232.684 174.121 233.176 174.964 233.176C175.477 233.176 175.959 232.986 176.401 232.594L176.903 233.317C176.341 233.849 175.688 234.11 174.934 234.11C173.428 234.11 172.283 232.996 172.283 231.539C172.252 230.123 173.438 228.928 174.834 228.958C176.14 228.958 177.114 229.932 177.114 231.218C177.114 231.429 177.084 231.65 177.034 231.881ZM173.377 231.057H176.059C176.049 230.304 175.487 229.852 174.794 229.852C174.101 229.852 173.538 230.324 173.377 231.057ZM185.577 231.881H181.901C182.032 232.684 182.664 233.176 183.508 233.176C184.02 233.176 184.503 232.986 184.945 232.594L185.447 233.317C184.884 233.849 184.231 234.11 183.478 234.11C181.971 234.11 180.826 232.996 180.826 231.539C180.796 230.123 181.981 228.928 183.378 228.958C184.683 228.958 185.658 229.932 185.658 231.218C185.658 231.429 185.628 231.65 185.577 231.881ZM181.921 231.057H184.603C184.593 230.304 184.03 229.852 183.337 229.852C182.644 229.852 182.082 230.324 181.921 231.057ZM191.175 230.916V234H190.121V231.057C190.121 230.374 189.689 229.912 189.046 229.912C188.393 229.912 187.921 230.384 187.921 231.057V234H186.866V229.068H187.85V229.55C188.222 229.159 188.714 228.958 189.327 228.958C190.482 228.958 191.175 229.741 191.175 230.916ZM198.281 229.068V230.002H197.96C197.126 230.002 196.514 230.494 196.514 231.368V234H195.459V229.068H196.443V229.711C196.795 229.269 197.317 229.018 197.88 229.018C198.03 229.018 198.161 229.038 198.281 229.068ZM203.567 231.881H199.891C200.021 232.684 200.654 233.176 201.498 233.176C202.01 233.176 202.492 232.986 202.934 232.594L203.436 233.317C202.874 233.849 202.221 234.11 201.468 234.11C199.961 234.11 198.816 232.996 198.816 231.539C198.786 230.123 199.971 228.928 201.367 228.958C202.673 228.958 203.647 229.932 203.647 231.218C203.647 231.429 203.617 231.65 203.567 231.881ZM199.911 231.057H202.593C202.583 230.304 202.02 229.852 201.327 229.852C200.634 229.852 200.072 230.324 199.911 231.057ZM207.789 233.106V234C207.457 234.07 207.166 234.11 206.915 234.11C205.78 234.11 205.097 233.548 205.097 232.393V229.982H204.293V229.068H205.097V227.772H206.162V229.068H207.628V229.982H206.162V232.302C206.162 232.935 206.493 233.156 207.136 233.156C207.287 233.156 207.498 233.136 207.789 233.106ZM212.775 231.017V234H211.791V233.448C211.429 233.879 210.887 234.11 210.214 234.11C209.179 234.11 208.496 233.538 208.496 232.684C208.496 231.83 209.199 231.278 210.314 231.278H211.711V230.957C211.711 230.274 211.329 229.902 210.656 229.902C210.103 229.902 209.702 230.143 209.29 230.635L208.677 230.012C209.169 229.299 209.903 228.958 210.756 228.958C211.972 228.958 212.775 229.691 212.775 231.017ZM211.711 232.132V232.041H210.445C209.883 232.041 209.571 232.242 209.571 232.644C209.571 233.056 209.923 233.297 210.435 233.297C211.148 233.297 211.711 232.805 211.711 232.132ZM217.066 229.068V230.002H216.744C215.911 230.002 215.298 230.494 215.298 231.368V234H214.243V229.068H215.227V229.711C215.579 229.269 216.101 229.018 216.664 229.018C216.815 229.018 216.945 229.038 217.066 229.068ZM221.658 226.467H222.723V234H221.739V233.297C221.377 233.809 220.744 234.11 220.011 234.11C218.625 234.11 217.6 232.996 217.6 231.539C217.57 230.103 218.645 228.928 220.011 228.958C220.694 228.958 221.287 229.219 221.658 229.671V226.467ZM221.678 231.539C221.678 230.474 220.955 229.922 220.192 229.922C219.348 229.922 218.675 230.585 218.675 231.529C218.675 232.473 219.318 233.146 220.192 233.146C220.965 233.146 221.678 232.614 221.678 231.539Z" fill="#03314B"/>
<rect x="124.484" y="227" width="24.9043" height="8" rx="2.51111" fill="#FFAF87"/>
<path d="M276.682 231.529C276.682 233.006 275.658 234.11 274.262 234.11C273.589 234.11 273.006 233.849 272.614 233.397V235.808H271.56V229.068H272.544V229.761C272.906 229.249 273.539 228.958 274.262 228.958C275.658 228.958 276.682 230.073 276.682 231.529ZM275.598 231.539C275.598 230.595 274.945 229.922 274.091 229.922C273.318 229.922 272.604 230.454 272.604 231.529C272.604 232.614 273.318 233.146 274.091 233.146C274.935 233.146 275.598 232.483 275.598 231.539ZM280.719 229.068V230.002H280.397C279.564 230.002 278.951 230.494 278.951 231.368V234H277.896V229.068H278.881V229.711C279.232 229.269 279.755 229.018 280.317 229.018C280.468 229.018 280.598 229.038 280.719 229.068ZM281.663 234V229.068H282.718V234H281.663ZM281.472 227.23C281.472 226.838 281.794 226.527 282.195 226.527C282.587 226.527 282.909 226.838 282.909 227.23C282.909 227.622 282.587 227.923 282.195 227.923C281.794 227.923 281.472 227.622 281.472 227.23ZM283.781 233.156L284.383 232.493C284.815 232.945 285.247 233.196 285.77 233.196C286.222 233.196 286.563 233.006 286.563 232.644C286.563 232.353 286.352 232.232 285.87 232.031L285.368 231.82C284.494 231.459 284.082 231.077 284.082 230.384C284.082 229.5 284.815 228.958 285.82 228.958C286.533 228.958 287.095 229.209 287.527 229.721L286.955 230.374C286.643 230.053 286.232 229.872 285.8 229.872C285.388 229.872 285.127 230.032 285.127 230.344C285.127 230.595 285.298 230.726 285.78 230.926L286.252 231.117C287.186 231.509 287.598 231.911 287.598 232.604C287.598 233.076 287.427 233.448 287.075 233.719C286.724 233.98 286.292 234.11 285.77 234.11C284.926 234.11 284.223 233.729 283.781 233.156ZM293.253 231.881H289.577C289.708 232.684 290.341 233.176 291.184 233.176C291.697 233.176 292.179 232.986 292.621 232.594L293.123 233.317C292.56 233.849 291.908 234.11 291.154 234.11C289.648 234.11 288.502 232.996 288.502 231.539C288.472 230.123 289.658 228.928 291.054 228.958C292.36 228.958 293.334 229.932 293.334 231.218C293.334 231.429 293.304 231.65 293.253 231.881ZM289.597 231.057H292.279C292.269 230.304 291.707 229.852 291.014 229.852C290.321 229.852 289.758 230.324 289.597 231.057ZM304.76 230.916V234H303.696V231.067C303.696 230.374 303.304 229.922 302.671 229.922C302.028 229.922 301.586 230.384 301.586 231.017V234H300.532V231.067C300.532 230.384 300.13 229.922 299.497 229.922C298.854 229.922 298.412 230.384 298.412 231.067V234H297.358V229.068H298.342V229.53C298.693 229.169 299.176 228.958 299.768 228.958C300.451 228.958 300.974 229.249 301.265 229.731C301.626 229.259 302.239 228.958 302.932 228.958C304.067 228.958 304.76 229.741 304.76 230.916ZM310.142 231.017V234H309.158V233.448C308.796 233.879 308.254 234.11 307.581 234.11C306.546 234.11 305.863 233.538 305.863 232.684C305.863 231.83 306.566 231.278 307.681 231.278H309.077V230.957C309.077 230.274 308.696 229.902 308.023 229.902C307.47 229.902 307.069 230.143 306.657 230.635L306.044 230.012C306.536 229.299 307.269 228.958 308.123 228.958C309.339 228.958 310.142 229.691 310.142 231.017ZM309.077 232.132V232.041H307.812C307.249 232.041 306.938 232.242 306.938 232.644C306.938 233.056 307.29 233.297 307.802 233.297C308.515 233.297 309.077 232.805 309.077 232.132ZM315.919 230.916V234H314.864V231.057C314.864 230.374 314.433 229.912 313.79 229.912C313.137 229.912 312.665 230.384 312.665 231.057V234H311.61V229.068H312.594V229.55C312.966 229.159 313.458 228.958 314.071 228.958C315.226 228.958 315.919 229.741 315.919 230.916ZM321.214 229.068H322.199V235.808H321.134V233.407C320.762 233.859 320.17 234.11 319.487 234.11C318.101 234.11 317.076 233.006 317.076 231.529C317.076 230.073 318.101 228.958 319.487 228.958C320.22 228.958 320.853 229.259 321.214 229.771V229.068ZM321.154 231.529C321.154 230.454 320.441 229.922 319.668 229.922C318.794 229.922 318.151 230.605 318.151 231.539C318.151 232.483 318.824 233.146 319.668 233.146C320.431 233.146 321.154 232.594 321.154 231.529ZM323.674 231.931V229.068H324.719V232.011C324.719 232.694 325.191 233.136 325.834 233.136C326.446 233.136 326.918 232.694 326.918 232.011V229.068H327.973V231.931C327.973 233.257 327.039 234.11 325.834 234.11C324.598 234.11 323.674 233.257 323.674 231.931ZM333.892 231.881H330.216C330.347 232.684 330.979 233.176 331.823 233.176C332.335 233.176 332.818 232.986 333.26 232.594L333.762 233.317C333.199 233.849 332.546 234.11 331.793 234.11C330.286 234.11 329.141 232.996 329.141 231.539C329.111 230.123 330.296 228.928 331.693 228.958C332.998 228.958 333.973 229.932 333.973 231.218C333.973 231.429 333.943 231.65 333.892 231.881ZM330.236 231.057H332.918C332.908 230.304 332.345 229.852 331.652 229.852C330.959 229.852 330.397 230.324 330.236 231.057ZM331.291 228.295L332.084 226.165H333.37V226.356L332.074 228.295H331.291ZM339.621 231.881H335.945C336.075 232.684 336.708 233.176 337.552 233.176C338.064 233.176 338.546 232.986 338.988 232.594L339.49 233.317C338.928 233.849 338.275 234.11 337.521 234.11C336.015 234.11 334.87 232.996 334.87 231.539C334.84 230.123 336.025 228.928 337.421 228.958C338.727 228.958 339.701 229.932 339.701 231.218C339.701 231.429 339.671 231.65 339.621 231.881ZM335.965 231.057H338.646C338.636 230.304 338.074 229.852 337.381 229.852C336.688 229.852 336.125 230.324 335.965 231.057Z" fill="#03314B"/>
<rect x="240.704" y="227" width="24.9043" height="8" rx="2.51111" fill="#FF445D"/>
<path d="M34.5636 199.334V198.42C34.8649 198.45 35.0959 198.47 35.2466 198.47C35.9397 198.47 36.2812 198.249 36.2812 197.576V192.705H37.3459V197.687C37.3459 198.862 36.6528 199.444 35.4776 199.444C35.1863 199.444 34.885 199.404 34.5636 199.334ZM41.5564 192.705H41.9281V199.334H40.8634V193.96L39.5174 194.392L39.2563 193.458L41.5564 192.705Z" fill="#03314B"/>
<path d="M78.424 199.334V198.42C78.7253 198.45 78.9563 198.47 79.107 198.47C79.8001 198.47 80.1416 198.249 80.1416 197.576V192.705H81.2063V197.687C81.2063 198.862 80.5132 199.444 79.338 199.444C79.0467 199.444 78.7454 199.404 78.424 199.334ZM85.2863 198.41H88.0887V199.334H83.3377V199.093L85.6981 196.552C86.4314 195.778 86.7528 195.296 86.7528 194.734C86.7528 194.061 86.3209 193.568 85.6479 193.568C84.9749 193.568 84.5229 194.091 84.5229 194.774C84.5229 194.914 84.543 195.085 84.5731 195.286H83.4984C83.4482 195.105 83.4281 194.914 83.4281 194.714C83.4281 193.629 84.3019 192.594 85.6579 192.594C86.9235 192.594 87.8577 193.488 87.8577 194.653C87.8577 195.105 87.7371 195.517 87.4961 195.889C87.265 196.26 86.9135 196.682 86.4514 197.174L85.2863 198.41Z" fill="#03314B"/>
<path d="M123.906 199.334V198.42C124.207 198.45 124.438 198.47 124.589 198.47C125.282 198.47 125.623 198.249 125.623 197.576V192.705H126.688V197.687C126.688 198.862 125.995 199.444 124.82 199.444C124.529 199.444 124.227 199.404 123.906 199.334ZM133.319 197.205C133.319 198.551 132.204 199.444 130.899 199.444C129.824 199.444 129.01 198.862 128.568 198.008L129.312 197.486C129.713 198.099 130.186 198.47 130.869 198.47C131.662 198.47 132.225 197.968 132.225 197.215C132.225 196.461 131.672 196.049 130.698 196.049H129.965V195.758L131.511 193.679H129.04V192.705H133.169V192.996L131.562 195.166C132.054 195.246 132.466 195.467 132.807 195.818C133.149 196.17 133.319 196.632 133.319 197.205Z" fill="#03314B"/>
<path d="M168.375 199.334V198.42C168.677 198.45 168.908 198.47 169.058 198.47C169.751 198.47 170.093 198.249 170.093 197.576V192.705H171.158V197.687C171.158 198.862 170.464 199.444 169.289 199.444C168.998 199.444 168.697 199.404 168.375 199.334ZM178.291 197.265V198.179H177.387V199.334H176.322V198.179H173.008V197.888L175.127 192.705H176.222L174.344 197.265H176.322V195.226H177.387V197.265H178.291Z" fill="#03314B"/>
<path d="M212.952 199.334V198.42C213.254 198.45 213.485 198.47 213.635 198.47C214.329 198.47 214.67 198.249 214.67 197.576V192.705H215.735V197.687C215.735 198.862 215.042 199.444 213.866 199.444C213.575 199.444 213.274 199.404 212.952 199.334ZM222.527 197.195C222.527 198.53 221.402 199.444 220.086 199.444C218.991 199.444 218.157 198.872 217.705 198.018L218.449 197.486C218.85 198.099 219.343 198.47 220.056 198.47C220.849 198.47 221.432 197.978 221.432 197.215C221.432 196.461 220.879 196.039 219.905 196.039H218.378V192.705H222.155V193.659H219.423V195.216C219.684 195.155 219.965 195.125 220.267 195.125C221.452 195.125 222.527 195.859 222.527 197.195Z" fill="#03314B"/>
<path d="M260.907 199.334V198.42C261.209 198.45 261.44 198.47 261.59 198.47C262.283 198.47 262.625 198.249 262.625 197.576V192.705H263.69V197.687C263.69 198.862 262.996 199.444 261.821 199.444C261.53 199.444 261.229 199.404 260.907 199.334ZM270.502 197.154C270.502 198.45 269.417 199.444 268.151 199.444C266.896 199.465 265.781 198.45 265.811 197.144C265.811 196.883 265.851 196.642 265.921 196.421C266.002 196.19 266.092 195.989 266.203 195.808C266.313 195.628 266.484 195.376 266.715 195.045L268.372 192.705H269.628L268.031 194.965C268.121 194.945 268.211 194.935 268.322 194.935C269.477 194.935 270.502 195.899 270.502 197.154ZM269.447 197.154C269.447 196.783 269.316 196.471 269.065 196.22C268.814 195.969 268.513 195.839 268.151 195.839C267.78 195.839 267.478 195.969 267.227 196.22C266.976 196.471 266.855 196.783 266.855 197.154C266.855 197.526 266.976 197.847 267.227 198.099C267.478 198.35 267.78 198.47 268.151 198.47C268.513 198.47 268.814 198.35 269.065 198.099C269.316 197.847 269.447 197.526 269.447 197.154Z" fill="#03314B"/>
<path d="M306.882 199.334V198.42C307.184 198.45 307.415 198.47 307.565 198.47C308.258 198.47 308.6 198.249 308.6 197.576V192.705H309.664V197.687C309.664 198.862 308.971 199.444 307.796 199.444C307.505 199.444 307.204 199.404 306.882 199.334ZM311.695 192.705H316.246V192.996L313.041 199.334H311.886L314.809 193.659H311.695V192.705Z" fill="#03314B"/>
<rect x="40.7382" y="181.172" width="141.66" height="7.8172" rx="3.13889" transform="rotate(-90 40.7382 181.172)" fill="#E4EAF0"/>
<rect x="40.4319" y="181" width="141" height="8.30145" rx="2.51111" transform="rotate(-90 40.4319 181)" fill="#2CE080"/>
<rect x="86.3371" y="181.172" width="141.66" height="7.8172" rx="3.13889" transform="rotate(-90 86.3371 181.172)" fill="#E4EAF0"/>
<rect x="86.0898" y="181" width="141" height="8.30145" rx="2.51111" transform="rotate(-90 86.0898 181)" fill="#2CE080"/>
<rect x="131.938" y="181.172" width="141.66" height="7.8172" rx="3.13889" transform="rotate(-90 131.938 181.172)" fill="#E4EAF0"/>
<rect x="131.748" y="181" width="141" height="8.30145" rx="2.51111" transform="rotate(-90 131.748 181)" fill="#2CE080"/>
<rect x="176.235" y="181.172" width="141.66" height="7.8172" rx="3.13889" transform="rotate(-90 176.235 181.172)" fill="#E4EAF0"/>
<path d="M178.879 181C177.492 181 176.368 179.876 176.368 178.489V110.5H183.632V178.489C183.632 179.876 182.508 181 181.121 181H178.879Z" fill="#2CE080"/>
<path d="M176.368 110.5V42.5111C176.368 41.1243 177.492 40 178.879 40H181.121C182.508 40 183.632 41.1243 183.632 42.5111V110.5H176.368Z" fill="#FFAF87"/>
<rect x="268.721" y="181.66" width="141.66" height="7.8172" rx="3.13889" transform="rotate(-90 268.721 181.66)" fill="#E4EAF0"/>
<path d="M271.364 181.488C269.977 181.488 268.853 180.364 268.853 178.977V110.988H276.116V178.977C276.116 180.364 274.992 181.488 273.605 181.488H271.364Z" fill="#FF445D"/>
<path d="M268.853 110.988V42.9994C268.853 41.6125 269.977 40.4883 271.364 40.4883H273.605C274.992 40.4883 276.116 41.6125 276.116 42.9994V110.988H268.853Z" fill="#FFAF87"/>
<rect x="221.835" y="181.172" width="141.66" height="7.8172" rx="3.13889" transform="rotate(-90 221.835 181.172)" fill="#E4EAF0"/>
<rect x="221.835" y="181.172" width="141.66" height="7.8172" rx="3.13889" transform="rotate(-90 221.835 181.172)" fill="#2CE080"/>
<rect x="313.037" y="181.172" width="141.66" height="7.8172" rx="3.13889" transform="rotate(-90 313.037 181.172)" fill="#E4EAF0"/>
<rect x="313.343" y="181" width="141" height="7.26377" rx="2.51111" transform="rotate(-90 313.343 181)" fill="#FF445D"/>
</svg>
